<svg width="154" height="48" viewBox="0 0 154 48" fill="none" xmlns="http://www.w3.org/2000/svg">
<path d="M0.219042 19V0.766232H11.6508V3.13449H2.97013V8.69009H11.0542V11.0494H2.97013V16.6317H11.7576V19H0.219042ZM17.7739 10.8803V19H15.1119V5.32467H17.6671V7.55048H17.8363C18.1508 6.82635 18.6435 6.24467 19.3142 5.80545C19.9908 5.36622 20.8426 5.14661 21.8694 5.14661C22.8013 5.14661 23.6174 5.34248 24.3178 5.73422C25.0182 6.12003 25.5613 6.69577 25.9471 7.46144C26.3329 8.22712 26.5258 9.17383 26.5258 10.3016V19H23.8637V10.6221C23.8637 9.63086 23.6055 8.85628 23.0892 8.29835C22.5728 7.73448 21.8635 7.45254 20.9613 7.45254C20.344 7.45254 19.795 7.58609 19.3142 7.85318C18.8394 8.12028 18.4625 8.51202 18.1835 9.02841C17.9105 9.53886 17.7739 10.1561 17.7739 10.8803ZM35.9899 19.276C34.6425 19.276 33.4822 18.9881 32.5087 18.4124C31.5413 17.8307 30.7934 17.0146 30.2651 15.964C29.7428 14.9075 29.4817 13.6699 29.4817 12.2514C29.4817 10.8506 29.7428 9.61602 30.2651 8.54763C30.7934 7.47925 31.5294 6.64532 32.4731 6.04583C33.4228 5.44635 34.5327 5.14661 35.8029 5.14661C36.5745 5.14661 37.3224 5.27422 38.0465 5.52945C38.7707 5.78467 39.4206 6.18532 39.9963 6.73138C40.5721 7.27744 41.0261 7.98673 41.3585 8.85925C41.6909 9.72583 41.8571 10.7794 41.8571 12.0199V12.9636H30.9863V10.9693H39.2485C39.2485 10.2689 39.106 9.64867 38.8211 9.10854C38.5362 8.56247 38.1356 8.13215 37.6192 7.81757C37.1087 7.50299 36.5093 7.3457 35.8207 7.3457C35.0729 7.3457 34.42 7.5297 33.862 7.8977C33.31 8.25976 32.8827 8.7346 32.58 9.32221C32.2832 9.90389 32.1348 10.536 32.1348 11.2186V12.7767C32.1348 13.6907 32.2951 14.4683 32.6156 15.1093C32.942 15.7503 33.3961 16.24 33.9778 16.5783C34.5595 16.9107 35.2391 17.0769 36.0166 17.0769C36.5211 17.0769 36.9811 17.0057 37.3966 16.8632C37.8121 16.7148 38.1712 16.4952 38.4739 16.2044C38.7766 15.9136 39.0081 15.5545 39.1683 15.1271L41.688 15.5812C41.4861 16.3231 41.1241 16.973 40.6018 17.531C40.0854 18.083 39.4354 18.5133 38.652 18.8219C37.8744 19.1246 36.9871 19.276 35.9899 19.276ZM44.8108 19V5.32467H47.3838V7.49706H47.5262C47.7755 6.76106 48.2147 6.18235 48.8439 5.76093C49.479 5.33358 50.1972 5.1199 50.9985 5.1199C51.1647 5.1199 51.3605 5.12584 51.5861 5.13771C51.8176 5.14958 51.9986 5.16442 52.1292 5.18222V7.72854C52.0224 7.69886 51.8324 7.66622 51.5594 7.6306C51.2864 7.58906 51.0133 7.56828 50.7403 7.56828C50.1111 7.56828 49.5502 7.70183 49.0576 7.96893C48.5709 8.23009 48.1851 8.59512 47.9002 9.06402C47.6153 9.52699 47.4728 10.0552 47.4728 10.6488V19H44.8108ZM59.6769 24.4131C58.5907 24.4131 57.6559 24.2707 56.8724 23.9858C56.0948 23.7009 55.4597 23.324 54.9671 22.8551C54.4744 22.3862 54.1064 21.8728 53.8631 21.3148L56.1512 20.3711C56.3115 20.6323 56.5251 20.9083 56.7922 21.1991C57.0653 21.4959 57.4333 21.7481 57.8962 21.9559C58.3651 22.1636 58.9676 22.2675 59.7036 22.2675C60.7126 22.2675 61.5466 22.0212 62.2054 21.5285C62.8642 21.0418 63.1936 20.2643 63.1936 19.1959V16.5071H63.0245C62.8642 16.7979 62.6327 17.1214 62.33 17.4776C62.0333 17.8337 61.6237 18.1423 61.1014 18.4035C60.5791 18.6646 59.8995 18.7952 59.0626 18.7952C57.9823 18.7952 57.0089 18.543 56.1423 18.0385C55.2817 17.528 54.5991 16.7772 54.0946 15.7859C53.596 14.7888 53.3467 13.5631 53.3467 12.1089C53.3467 10.6547 53.593 9.40828 54.0857 8.36957C54.5842 7.33086 55.2668 6.53551 56.1334 5.98351C57 5.42558 57.9823 5.14661 59.0804 5.14661C59.9291 5.14661 60.6147 5.28906 61.137 5.57396C61.6593 5.85293 62.0659 6.17938 62.3567 6.55332C62.6535 6.92725 62.882 7.25667 63.0423 7.54157H63.2382V5.32467H65.8468V19.3027C65.8468 20.4779 65.5738 21.4424 65.0277 22.1963C64.4816 22.9501 63.7427 23.508 62.8108 23.8701C61.8849 24.2321 60.8402 24.4131 59.6769 24.4131ZM59.6502 16.5872C60.4158 16.5872 61.0628 16.4092 61.5911 16.053C62.1253 15.691 62.5289 15.1746 62.8019 14.5039C63.0809 13.8272 63.2204 13.017 63.2204 12.0733C63.2204 11.1533 63.0838 10.3431 62.8108 9.64273C62.5378 8.94234 62.1371 8.39628 61.6089 8.00454C61.0806 7.60686 60.4277 7.40802 59.6502 7.40802C58.8489 7.40802 58.1811 7.61577 57.647 8.03125C57.1128 8.4408 56.7091 8.99873 56.4361 9.70505C56.169 10.4114 56.0355 11.2008 56.0355 12.0733C56.0355 12.9696 56.172 13.756 56.445 14.4327C56.718 15.1093 57.1217 15.6376 57.6559 16.0174C58.196 16.3973 58.8608 16.5872 59.6502 16.5872ZM71.0997 24.1282C70.702 24.1282 70.34 24.0956 70.0135 24.0303C69.687 23.971 69.4437 23.9057 69.2834 23.8344L69.9245 21.6532C70.4112 21.7837 70.8445 21.8401 71.2243 21.8223C71.6042 21.8045 71.9396 21.6621 72.2304 21.395C72.5272 21.1279 72.7883 20.6916 73.0139 20.0862L73.3433 19.1781L68.3397 5.32467H71.1887L74.6521 15.9373H74.7945L78.2579 5.32467H81.1158L75.4801 20.8252C75.2189 21.5374 74.8865 22.1399 74.4829 22.6325C74.0793 23.1311 73.5985 23.505 73.0406 23.7543C72.4827 24.0036 71.8357 24.1282 71.0997 24.1282ZM0.219042 28.7662H3.55774L9.36264 42.9401H9.57631L15.3812 28.7662H18.7199V47H16.1024V33.8054H15.9332L10.5557 46.9733H8.38328L3.00575 33.7965H2.83658V47H0.219042V28.7662ZM26.4857 47.3027C25.6191 47.3027 24.8357 47.1425 24.1353 46.8219C23.4349 46.4955 22.8799 46.0236 22.4704 45.4063C22.0668 44.789 21.865 44.0323 21.865 43.136C21.865 42.3644 22.0134 41.7293 22.3101 41.2307C22.6069 40.7321 23.0075 40.3374 23.5121 40.0466C24.0166 39.7558 24.5804 39.5361 25.2037 39.3878C25.8269 39.2394 26.462 39.1266 27.109 39.0494C27.928 38.9545 28.5928 38.8773 29.1033 38.818C29.6137 38.7527 29.9847 38.6488 30.2162 38.5063C30.4477 38.3639 30.5634 38.1324 30.5634 37.8119V37.7496C30.5634 36.972 30.3438 36.3696 29.9046 35.9422C29.4713 35.5149 28.8243 35.3012 27.9637 35.3012C27.0674 35.3012 26.3611 35.5 25.8447 35.8977C25.3342 36.2894 24.9811 36.7257 24.7852 37.2065L22.2834 36.6367C22.5802 35.8057 23.0135 35.135 23.5833 34.6245C24.159 34.1082 24.8208 33.7342 25.5687 33.5027C26.3166 33.2653 27.103 33.1466 27.928 33.1466C28.4741 33.1466 29.0528 33.2119 29.6642 33.3425C30.2815 33.4671 30.8572 33.6986 31.3914 34.0369C31.9315 34.3753 32.3737 34.859 32.718 35.4882C33.0622 36.1114 33.2344 36.9216 33.2344 37.9187V47H30.6346V45.1303H30.5278C30.3557 45.4746 30.0975 45.8129 29.7532 46.1453C29.4089 46.4777 28.9668 46.7537 28.4266 46.9733C27.8865 47.1929 27.2395 47.3027 26.4857 47.3027ZM27.0644 45.1659C27.8004 45.1659 28.4296 45.0205 28.9519 44.7297C29.4802 44.4388 29.8808 44.059 30.1538 43.5901C30.4328 43.1152 30.5723 42.6078 30.5723 42.0676V40.3048C30.4773 40.3998 30.2933 40.4888 30.0203 40.5719C29.7532 40.649 29.4475 40.7173 29.1033 40.7767C28.759 40.8301 28.4237 40.8805 28.0972 40.928C27.7708 40.9696 27.4977 41.0052 27.2781 41.0349C26.7617 41.1001 26.2899 41.2099 25.8625 41.3643C25.4411 41.5186 25.1028 41.7412 24.8475 42.032C24.5982 42.3169 24.4736 42.6968 24.4736 43.1716C24.4736 43.8305 24.717 44.329 25.2037 44.6674C25.6904 44.9997 26.3106 45.1659 27.0644 45.1659ZM36.7801 47V33.3247H39.3531V35.4971H39.4955C39.7448 34.7611 40.1841 34.1823 40.8132 33.7609C41.4483 33.3336 42.1665 33.1199 42.9678 33.1199C43.134 33.1199 43.3299 33.1258 43.5554 33.1377C43.7869 33.1496 43.9679 33.1644 44.0985 33.1822V35.7285C43.9917 35.6989 43.8017 35.6662 43.5287 35.6306C43.2557 35.5891 42.9826 35.5683 42.7096 35.5683C42.0804 35.5683 41.5195 35.7018 41.0269 35.9689C40.5402 36.2301 40.1544 36.5951 39.8695 37.064C39.5846 37.527 39.4421 38.0552 39.4421 38.6488V47H36.7801ZM48.8506 42.3614L48.8328 39.1118H49.2957L54.7445 33.3247H57.9319L51.7174 39.913H51.299L48.8506 42.3614ZM46.4022 47V28.7662H49.0643V47H46.4022ZM55.0383 47L50.1415 40.5007L51.9756 38.6399L58.3058 47H55.0383ZM65.6888 47.276C64.3414 47.276 63.181 46.9881 62.2076 46.4124C61.2401 45.8307 60.4923 45.0146 59.964 43.964C59.4417 42.9075 59.1805 41.6699 59.1805 40.2514C59.1805 38.8506 59.4417 37.616 59.964 36.5476C60.4923 35.4793 61.2283 34.6453 62.172 34.0458C63.1217 33.4464 64.2316 33.1466 65.5018 33.1466C66.2734 33.1466 67.0213 33.2742 67.7454 33.5294C68.4695 33.7847 69.1195 34.1853 69.6952 34.7314C70.271 35.2774 70.725 35.9867 71.0574 36.8592C71.3898 37.7258 71.556 38.7794 71.556 40.0199V40.9636H60.6852V38.9693H68.9473C68.9473 38.2689 68.8049 37.6487 68.52 37.1085C68.2351 36.5625 67.8344 36.1322 67.3181 35.8176C66.8076 35.503 66.2081 35.3457 65.5196 35.3457C64.7717 35.3457 64.1188 35.5297 63.5609 35.8977C63.0089 36.2598 62.5816 36.7346 62.2788 37.3222C61.9821 37.9039 61.8337 38.536 61.8337 39.2186V40.7767C61.8337 41.6907 61.9939 42.4683 62.3145 43.1093C62.6409 43.7503 63.095 44.24 63.6766 44.5783C64.2583 44.9107 64.9379 45.0769 65.7155 45.0769C66.22 45.0769 66.68 45.0057 67.0955 44.8632C67.511 44.7148 67.8701 44.4952 68.1728 44.2044C68.4755 43.9136 68.707 43.5545 68.8672 43.1271L71.3868 43.5812C71.185 44.3231 70.823 44.973 70.3006 45.531C69.7842 46.083 69.1343 46.5133 68.3508 46.8219C67.5733 47.1246 66.6859 47.276 65.6888 47.276ZM80.8932 33.3247V35.4614H73.4234V33.3247H80.8932ZM75.4267 30.0483H78.0887V42.9847C78.0887 43.501 78.1659 43.8898 78.3202 44.151C78.4745 44.4062 78.6734 44.5813 78.9167 44.6763C79.166 44.7653 79.4361 44.8098 79.7269 44.8098C79.9406 44.8098 80.1275 44.795 80.2878 44.7653C80.4481 44.7356 80.5727 44.7119 80.6617 44.6941L81.1425 46.8932C80.9882 46.9525 80.7686 47.0119 80.4837 47.0712C80.1988 47.1365 79.8426 47.1721 79.4153 47.1781C78.7149 47.1899 78.062 47.0653 77.4566 46.8041C76.8512 46.543 76.3615 46.1394 75.9876 45.5933C75.6136 45.0472 75.4267 44.3617 75.4267 43.5367V30.0483ZM90.6868 47V28.7662H97.1861C98.6047 28.7662 99.7799 29.0244 100.712 29.5408C101.644 30.0572 102.341 30.7635 102.804 31.6598C103.267 32.5501 103.498 33.5532 103.498 34.6691C103.498 35.7909 103.264 36.7999 102.795 37.6961C102.332 38.5865 101.632 39.2928 100.694 39.8151C99.7621 40.3315 98.5898 40.5897 97.1772 40.5897H92.7078V38.2571H96.9279C97.8242 38.2571 98.5513 38.1027 99.1092 37.7941C99.6671 37.4795 100.077 37.0522 100.338 36.512C100.599 35.9719 100.73 35.3576 100.73 34.6691C100.73 33.9805 100.599 33.3692 100.338 32.835C100.077 32.3008 99.6642 31.8824 99.1003 31.5796C98.5424 31.2769 97.8064 31.1256 96.8923 31.1256H93.4378V47H90.6868ZM109.172 28.7662V47H106.51V28.7662H109.172ZM116.733 47.3027C115.867 47.3027 115.083 47.1425 114.383 46.8219C113.682 46.4955 113.127 46.0236 112.718 45.4063C112.314 44.789 112.112 44.0323 112.112 43.136C112.112 42.3644 112.261 41.7293 112.557 41.2307C112.854 40.7321 113.255 40.3374 113.759 40.0466C114.264 39.7558 114.828 39.5361 115.451 39.3878C116.074 39.2394 116.709 39.1266 117.356 39.0494C118.175 38.9545 118.84 38.8773 119.351 38.818C119.861 38.7527 120.232 38.6488 120.464 38.5063C120.695 38.3639 120.811 38.1324 120.811 37.8119V37.7496C120.811 36.972 120.591 36.3696 120.152 35.9422C119.719 35.5149 119.072 35.3012 118.211 35.3012C117.315 35.3012 116.608 35.5 116.092 35.8977C115.582 36.2894 115.228 36.7257 115.033 37.2065L112.531 36.6367C112.828 35.8057 113.261 35.135 113.831 34.6245C114.406 34.1082 115.068 33.7342 115.816 33.5027C116.564 33.2653 117.35 33.1466 118.175 33.1466C118.721 33.1466 119.3 33.2119 119.912 33.3425C120.529 33.4671 121.105 33.6986 121.639 34.0369C122.179 34.3753 122.621 34.859 122.965 35.4882C123.31 36.1114 123.482 36.9216 123.482 37.9187V47H120.882V45.1303H120.775C120.603 45.4746 120.345 45.8129 120.001 46.1453C119.656 46.4777 119.214 46.7537 118.674 46.9733C118.134 47.1929 117.487 47.3027 116.733 47.3027ZM117.312 45.1659C118.048 45.1659 118.677 45.0205 119.199 44.7297C119.728 44.4388 120.128 44.059 120.401 43.5901C120.68 43.1152 120.82 42.6078 120.82 42.0676V40.3048C120.725 40.3998 120.541 40.4888 120.268 40.5719C120.001 40.649 119.695 40.7173 119.351 40.7767C119.006 40.8301 118.671 40.8805 118.345 40.928C118.018 40.9696 117.745 41.0052 117.525 41.0349C117.009 41.1001 116.537 41.2099 116.11 41.3643C115.688 41.5186 115.35 41.7412 115.095 42.032C114.846 42.3169 114.721 42.6968 114.721 43.1716C114.721 43.8305 114.964 44.329 115.451 44.6674C115.938 44.9997 116.558 45.1659 117.312 45.1659ZM132.788 47.276C131.464 47.276 130.325 46.9763 129.369 46.3768C128.419 45.7714 127.689 44.9374 127.179 43.875C126.668 42.8125 126.413 41.5958 126.413 40.2247C126.413 38.8358 126.674 37.6101 127.197 36.5476C127.719 35.4793 128.455 34.6453 129.405 34.0458C130.354 33.4464 131.473 33.1466 132.761 33.1466C133.8 33.1466 134.726 33.3395 135.539 33.7253C136.352 34.1052 137.008 34.6394 137.506 35.3279C138.011 36.0164 138.311 36.8207 138.406 37.7407H135.815C135.672 37.0996 135.346 36.5476 134.836 36.0847C134.331 35.6217 133.654 35.3902 132.806 35.3902C132.064 35.3902 131.414 35.5861 130.856 35.9778C130.304 36.3636 129.873 36.9156 129.565 37.6338C129.256 38.3461 129.102 39.1889 129.102 40.1623C129.102 41.1595 129.253 42.0201 129.556 42.7443C129.859 43.4684 130.286 44.0293 130.838 44.427C131.396 44.8246 132.052 45.0235 132.806 45.0235C133.31 45.0235 133.767 44.9315 134.177 44.7475C134.592 44.5576 134.939 44.2875 135.218 43.9373C135.503 43.5871 135.702 43.1657 135.815 42.673H138.406C138.311 43.5574 138.023 44.3468 137.542 45.0413C137.061 45.7357 136.417 46.2818 135.61 46.6795C134.809 47.0772 133.868 47.276 132.788 47.276ZM147.146 47.276C145.799 47.276 144.639 46.9881 143.665 46.4124C142.698 45.8307 141.95 45.0146 141.422 43.964C140.899 42.9075 140.638 41.6699 140.638 40.2514C140.638 38.8506 140.899 37.616 141.422 36.5476C141.95 35.4793 142.686 34.6453 143.63 34.0458C144.579 33.4464 145.689 33.1466 146.959 33.1466C147.731 33.1466 148.479 33.2742 149.203 33.5294C149.927 33.7847 150.577 34.1853 151.153 34.7314C151.729 35.2774 152.183 35.9867 152.515 36.8592C152.847 37.7258 153.014 38.7794 153.014 40.0199V40.9636H142.143V38.9693H150.405C150.405 38.2689 150.263 37.6487 149.978 37.1085C149.693 36.5625 149.292 36.1322 148.776 35.8176C148.265 35.503 147.666 35.3457 146.977 35.3457C146.229 35.3457 145.577 35.5297 145.019 35.8977C144.467 36.2598 144.039 36.7346 143.737 37.3222C143.44 37.9039 143.291 38.536 143.291 39.2186V40.7767C143.291 41.6907 143.452 42.4683 143.772 43.1093C144.099 43.7503 144.553 44.24 145.134 44.5783C145.716 44.9107 146.396 45.0769 147.173 45.0769C147.678 45.0769 148.138 45.0057 148.553 44.8632C148.969 44.7148 149.328 44.4952 149.63 44.2044C149.933 43.9136 150.165 43.5545 150.325 43.1271L152.844 43.5812C152.643 44.3231 152.281 44.973 151.758 45.531C151.242 46.083 150.592 46.5133 149.808 46.8219C149.031 47.1246 148.144 47.276 147.146 47.276Z" fill="#032C3D"/>
</svg>
