<svg width="111" height="35" viewBox="0 0 111 35" fill="none" xmlns="http://www.w3.org/2000/svg">
<path d="M0.645119 14V0.909091H8.85251V2.60938H2.62026V6.59801H8.42424V8.2919H2.62026V12.2997H8.92921V14H0.645119ZM13.2486 8.17045V14H11.3374V4.18182H13.1719V5.77983H13.2934C13.5192 5.25994 13.8729 4.84233 14.3545 4.52699C14.8403 4.21165 15.4518 4.05398 16.189 4.05398C16.858 4.05398 17.4439 4.1946 17.9468 4.47585C18.4496 4.75284 18.8395 5.16619 19.1165 5.71591C19.3935 6.26562 19.532 6.94531 19.532 7.75497V14H17.6208V7.98509C17.6208 7.27344 17.4354 6.71733 17.0647 6.31676C16.6939 5.91193 16.1847 5.70952 15.537 5.70952C15.0938 5.70952 14.6996 5.8054 14.3545 5.99716C14.0135 6.18892 13.743 6.47017 13.5427 6.84091C13.3466 7.20739 13.2486 7.65057 13.2486 8.17045ZM26.3268 14.1982C25.3594 14.1982 24.5263 13.9915 23.8275 13.5781C23.1329 13.1605 22.5959 12.5746 22.2167 11.8203C21.8417 11.0618 21.6542 10.1733 21.6542 9.15483C21.6542 8.14915 21.8417 7.26278 22.2167 6.49574C22.5959 5.72869 23.1243 5.12997 23.8019 4.69957C24.4837 4.26918 25.2806 4.05398 26.1925 4.05398C26.7465 4.05398 27.2834 4.1456 27.8033 4.32884C28.3232 4.51207 28.7898 4.79972 29.2032 5.19176C29.6165 5.58381 29.9425 6.09304 30.1812 6.71946C30.4198 7.34162 30.5391 8.09801 30.5391 8.98864V9.66619H22.7344V8.23438H28.6662C28.6662 7.73153 28.564 7.28622 28.3594 6.89844C28.1549 6.50639 27.8672 6.19744 27.4965 5.97159C27.13 5.74574 26.6996 5.63281 26.2053 5.63281C25.6684 5.63281 25.1996 5.76491 24.7991 6.02912C24.4028 6.28906 24.0959 6.62997 23.8786 7.05185C23.6655 7.46946 23.559 7.9233 23.559 8.41335V9.53196C23.559 10.1882 23.6741 10.7464 23.9042 11.2067C24.1385 11.6669 24.4645 12.0185 24.8822 12.2614C25.2998 12.5 25.7877 12.6193 26.3459 12.6193C26.7082 12.6193 27.0384 12.5682 27.3367 12.4659C27.635 12.3594 27.8928 12.2017 28.1101 11.9929C28.3275 11.7841 28.4937 11.5263 28.6087 11.2195L30.4177 11.5455C30.2728 12.0781 30.0128 12.5447 29.6378 12.9453C29.2671 13.3416 28.8005 13.6506 28.238 13.8722C27.6797 14.0895 27.0427 14.1982 26.3268 14.1982ZM32.6597 14V4.18182H34.507V5.74148H34.6093C34.7882 5.21307 35.1036 4.79758 35.5553 4.49503C36.0112 4.18821 36.5269 4.0348 37.1022 4.0348C37.2215 4.0348 37.3621 4.03906 37.524 4.04759C37.6902 4.05611 37.8202 4.06676 37.9139 4.07955V5.90767C37.8372 5.88636 37.7009 5.86293 37.5048 5.83736C37.3088 5.80753 37.1128 5.79261 36.9168 5.79261C36.4651 5.79261 36.0624 5.88849 35.7087 6.08026C35.3593 6.26776 35.0823 6.52983 34.8777 6.86648C34.6732 7.19886 34.5709 7.57812 34.5709 8.00426V14H32.6597ZM43.3328 17.8864C42.553 17.8864 41.8818 17.7841 41.3193 17.5795C40.7611 17.375 40.3051 17.1044 39.9514 16.7678C39.5977 16.4311 39.3335 16.0625 39.1588 15.6619L40.8015 14.9844C40.9166 15.1719 41.07 15.37 41.2618 15.5788C41.4578 15.7919 41.722 15.973 42.0544 16.1222C42.391 16.2713 42.8236 16.3459 43.352 16.3459C44.0764 16.3459 44.6751 16.169 45.1481 15.8153C45.6211 15.4659 45.8577 14.9077 45.8577 14.1406V12.2102H45.7362C45.6211 12.419 45.455 12.6513 45.2376 12.907C45.0246 13.1626 44.7305 13.3842 44.3555 13.5717C43.9805 13.7592 43.4926 13.853 42.8917 13.853C42.1162 13.853 41.4173 13.6719 40.7952 13.3097C40.1773 12.9432 39.6872 12.4041 39.325 11.6925C38.967 10.9766 38.7881 10.0966 38.7881 9.05256C38.7881 8.00852 38.9649 7.11364 39.3186 6.3679C39.6765 5.62216 40.1666 5.05114 40.7888 4.65483C41.4109 4.25426 42.1162 4.05398 42.9045 4.05398C43.5139 4.05398 44.0061 4.15625 44.3811 4.3608C44.7561 4.56108 45.048 4.79545 45.2568 5.06392C45.4699 5.33239 45.6339 5.56889 45.749 5.77344H45.8896V4.18182H47.7625V14.2173C47.7625 15.0611 47.5665 15.7536 47.1744 16.2947C46.7824 16.8359 46.2518 17.2365 45.5828 17.4964C44.918 17.7564 44.168 17.8864 43.3328 17.8864ZM43.3136 12.2678C43.8633 12.2678 44.3278 12.1399 44.7071 11.8842C45.0906 11.6243 45.3804 11.2536 45.5764 10.772C45.7767 10.2862 45.8768 9.70455 45.8768 9.02699C45.8768 8.36648 45.7788 7.7848 45.5828 7.28196C45.3868 6.77912 45.0991 6.38707 44.7199 6.10582C44.3406 5.82031 43.8719 5.67756 43.3136 5.67756C42.7383 5.67756 42.2589 5.8267 41.8754 6.125C41.4919 6.41903 41.2021 6.8196 41.0061 7.3267C40.8143 7.83381 40.7185 8.40057 40.7185 9.02699C40.7185 9.67045 40.8165 10.2351 41.0125 10.7209C41.2085 11.2067 41.4983 11.5859 41.8818 11.8587C42.2696 12.1314 42.7469 12.2678 43.3136 12.2678ZM51.5338 17.6818C51.2483 17.6818 50.9883 17.6584 50.754 17.6115C50.5196 17.5689 50.3449 17.522 50.2298 17.4709L50.69 15.9048C51.0395 15.9986 51.3506 16.0391 51.6233 16.0263C51.896 16.0135 52.1368 15.9112 52.3456 15.7195C52.5586 15.5277 52.7461 15.2145 52.9081 14.7798L53.1446 14.1278L49.5523 4.18182H51.5977L54.0842 11.8011H54.1865L56.673 4.18182H58.7248L54.6787 15.3104C54.4912 15.8217 54.2525 16.2543 53.9628 16.608C53.673 16.9659 53.3278 17.2344 52.9273 17.4134C52.5267 17.5923 52.0622 17.6818 51.5338 17.6818ZM0.645119 20.9091H3.04214L7.20975 31.0852H7.36316L11.5308 20.9091H13.9278V34H12.0485V24.527H11.9271L8.06628 33.9808H6.50663L2.64583 24.5206H2.52438V34H0.645119V20.9091ZM19.5033 34.2173C18.8811 34.2173 18.3186 34.1023 17.8158 33.8722C17.3129 33.6378 16.9145 33.299 16.6204 32.8558C16.3307 32.4126 16.1858 31.8693 16.1858 31.2259C16.1858 30.6719 16.2923 30.2159 16.5054 29.858C16.7185 29.5 17.0061 29.2166 17.3683 29.0078C17.7305 28.799 18.1354 28.6413 18.5828 28.5348C19.0302 28.4283 19.4862 28.3473 19.9507 28.2919C20.5388 28.2237 21.016 28.1683 21.3825 28.1257C21.749 28.0788 22.0153 28.0043 22.1815 27.902C22.3477 27.7997 22.4308 27.6335 22.4308 27.4034V27.3587C22.4308 26.8004 22.2731 26.3679 21.9578 26.0611C21.6467 25.7543 21.1822 25.6009 20.5643 25.6009C19.9209 25.6009 19.4138 25.7436 19.043 26.0291C18.6765 26.3104 18.423 26.6236 18.2824 26.9688L16.4862 26.5597C16.6993 25.9631 17.0104 25.4815 17.4194 25.1151C17.8328 24.7443 18.3079 24.4759 18.8449 24.3097C19.3818 24.1392 19.9464 24.054 20.5388 24.054C20.9308 24.054 21.3463 24.1009 21.7852 24.1946C22.2284 24.2841 22.6417 24.4503 23.0253 24.6932C23.4131 24.9361 23.7305 25.2834 23.9777 25.7351C24.2248 26.1825 24.3484 26.7642 24.3484 27.4801V34H22.4819V32.6577H22.4052C22.2817 32.9048 22.0963 33.1477 21.8491 33.3864C21.602 33.625 21.2845 33.8232 20.8967 33.9808C20.5089 34.1385 20.0444 34.2173 19.5033 34.2173ZM19.9187 32.6832C20.4471 32.6832 20.8988 32.5788 21.2738 32.37C21.6531 32.1612 21.9408 31.8885 22.1368 31.5518C22.3371 31.2109 22.4372 30.8466 22.4372 30.4588V29.1932C22.369 29.2614 22.2369 29.3253 22.0409 29.3849C21.8491 29.4403 21.6297 29.4893 21.3825 29.532C21.1354 29.5703 20.8946 29.6065 20.6602 29.6406C20.4258 29.6705 20.2298 29.696 20.0721 29.7173C19.7014 29.7642 19.3626 29.843 19.0558 29.9538C18.7533 30.0646 18.5104 30.2244 18.3271 30.4332C18.1481 30.6378 18.0586 30.9105 18.0586 31.2514C18.0586 31.7244 18.2334 32.0824 18.5828 32.3253C18.9322 32.5639 19.3775 32.6832 19.9187 32.6832ZM26.8941 34V24.1818H28.7414V25.7415H28.8436C29.0226 25.2131 29.3379 24.7976 29.7897 24.495C30.2456 24.1882 30.7612 24.0348 31.3365 24.0348C31.4558 24.0348 31.5965 24.0391 31.7584 24.0476C31.9246 24.0561 32.0546 24.0668 32.1483 24.0795V25.9077C32.0716 25.8864 31.9352 25.8629 31.7392 25.8374C31.5432 25.8075 31.3472 25.7926 31.1512 25.7926C30.6995 25.7926 30.2968 25.8885 29.9431 26.0803C29.5936 26.2678 29.3166 26.5298 29.1121 26.8665C28.9075 27.1989 28.8053 27.5781 28.8053 28.0043V34H26.8941ZM35.5601 30.6697L35.5473 28.3366H35.8797L39.7916 24.1818H42.08L37.6183 28.9119H37.3179L35.5601 30.6697ZM33.8023 34V20.9091H35.7135V34H33.8023ZM40.0025 34L36.4869 29.3338L37.8037 27.9979L42.3484 34H40.0025ZM47.649 34.1982C46.6817 34.1982 45.8486 33.9915 45.1497 33.5781C44.4551 33.1605 43.9182 32.5746 43.5389 31.8203C43.1639 31.0618 42.9764 30.1733 42.9764 29.1548C42.9764 28.1491 43.1639 27.2628 43.5389 26.4957C43.9182 25.7287 44.4466 25.13 45.1242 24.6996C45.806 24.2692 46.6029 24.054 47.5148 24.054C48.0688 24.054 48.6057 24.1456 49.1256 24.3288C49.6455 24.5121 50.1121 24.7997 50.5254 25.1918C50.9388 25.5838 51.2648 26.093 51.5034 26.7195C51.7421 27.3416 51.8614 28.098 51.8614 28.9886V29.6662H44.0567V28.2344H49.9885C49.9885 27.7315 49.8862 27.2862 49.6817 26.8984C49.4772 26.5064 49.1895 26.1974 48.8188 25.9716C48.4523 25.7457 48.0219 25.6328 47.5276 25.6328C46.9906 25.6328 46.5219 25.7649 46.1213 26.0291C45.725 26.2891 45.4182 26.63 45.2009 27.0518C44.9878 27.4695 44.8813 27.9233 44.8813 28.4134V29.532C44.8813 30.1882 44.9963 30.7464 45.2264 31.2067C45.4608 31.6669 45.7868 32.0185 46.2044 32.2614C46.622 32.5 47.11 32.6193 47.6682 32.6193C48.0304 32.6193 48.3607 32.5682 48.659 32.4659C48.9573 32.3594 49.2151 32.2017 49.4324 31.9929C49.6497 31.7841 49.8159 31.5263 49.931 31.2195L51.7399 31.5455C51.595 32.0781 51.3351 32.5447 50.9601 32.9453C50.5894 33.3416 50.1227 33.6506 49.5602 33.8722C49.002 34.0895 48.3649 34.1982 47.649 34.1982ZM58.565 24.1818V25.7159H53.2021V24.1818H58.565ZM54.6403 21.8295H56.5515V31.1172C56.5515 31.4879 56.6069 31.767 56.7177 31.9545C56.8285 32.1378 56.9713 32.2635 57.146 32.3317C57.325 32.3956 57.5189 32.4276 57.7277 32.4276C57.8811 32.4276 58.0153 32.4169 58.1304 32.3956C58.2454 32.3743 58.3349 32.3572 58.3988 32.3445L58.744 33.9233C58.6332 33.9659 58.4756 34.0085 58.271 34.0511C58.0665 34.098 57.8108 34.1236 57.504 34.1278C57.0011 34.1364 56.5324 34.0469 56.0977 33.8594C55.6631 33.6719 55.3115 33.3821 55.043 32.9901C54.7746 32.598 54.6403 32.1058 54.6403 31.5135V21.8295ZM65.5963 34V20.9091H70.2625C71.281 20.9091 72.1247 21.0945 72.7937 21.4652C73.4628 21.8359 73.9635 22.343 74.2959 22.9865C74.6283 23.6257 74.7944 24.3459 74.7944 25.147C74.7944 25.9524 74.6261 26.6768 74.2895 27.3203C73.9571 27.9595 73.4542 28.4666 72.781 28.8416C72.1119 29.2124 71.2703 29.3977 70.2561 29.3977H67.0473V27.723H70.0771C70.7206 27.723 71.2426 27.6122 71.6432 27.3906C72.0437 27.1648 72.3378 26.858 72.5253 26.4702C72.7128 26.0824 72.8065 25.6413 72.8065 25.147C72.8065 24.6527 72.7128 24.2138 72.5253 23.8303C72.3378 23.4467 72.0416 23.1463 71.6368 22.929C71.2362 22.7116 70.7078 22.603 70.0515 22.603H67.5714V34H65.5963ZM78.8678 20.9091V34H76.9566V20.9091H78.8678ZM84.2962 34.2173C83.6741 34.2173 83.1116 34.1023 82.6087 33.8722C82.1059 33.6378 81.7074 33.299 81.4134 32.8558C81.1236 32.4126 80.9787 31.8693 80.9787 31.2259C80.9787 30.6719 81.0853 30.2159 81.2984 29.858C81.5114 29.5 81.7991 29.2166 82.1613 29.0078C82.5235 28.799 82.9283 28.6413 83.3758 28.5348C83.8232 28.4283 84.2792 28.3473 84.7437 28.2919C85.3317 28.2237 85.809 28.1683 86.1755 28.1257C86.542 28.0788 86.8083 28.0043 86.9745 27.902C87.1407 27.7997 87.2238 27.6335 87.2238 27.4034V27.3587C87.2238 26.8004 87.0661 26.3679 86.7508 26.0611C86.4397 25.7543 85.9752 25.6009 85.3573 25.6009C84.7138 25.6009 84.2067 25.7436 83.836 26.0291C83.4695 26.3104 83.216 26.6236 83.0753 26.9688L81.2792 26.5597C81.4922 25.9631 81.8033 25.4815 82.2124 25.1151C82.6258 24.7443 83.1009 24.4759 83.6378 24.3097C84.1748 24.1392 84.7394 24.054 85.3317 24.054C85.7238 24.054 86.1393 24.1009 86.5782 24.1946C87.0214 24.2841 87.4347 24.4503 87.8182 24.6932C88.206 24.9361 88.5235 25.2834 88.7707 25.7351C89.0178 26.1825 89.1414 26.7642 89.1414 27.4801V34H87.2749V32.6577H87.1982C87.0746 32.9048 86.8893 33.1477 86.6421 33.3864C86.3949 33.625 86.0775 33.8232 85.6897 33.9808C85.3019 34.1385 84.8374 34.2173 84.2962 34.2173ZM84.7117 32.6832C85.2401 32.6832 85.6918 32.5788 86.0668 32.37C86.4461 32.1612 86.7337 31.8885 86.9297 31.5518C87.13 31.2109 87.2302 30.8466 87.2302 30.4588V29.1932C87.162 29.2614 87.0299 29.3253 86.8339 29.3849C86.6421 29.4403 86.4226 29.4893 86.1755 29.532C85.9283 29.5703 85.6876 29.6065 85.4532 29.6406C85.2188 29.6705 85.0228 29.696 84.8651 29.7173C84.4944 29.7642 84.1556 29.843 83.8488 29.9538C83.5462 30.0646 83.3033 30.2244 83.1201 30.4332C82.9411 30.6378 82.8516 30.9105 82.8516 31.2514C82.8516 31.7244 83.0263 32.0824 83.3758 32.3253C83.7252 32.5639 84.1705 32.6832 84.7117 32.6832ZM95.8227 34.1982C94.8724 34.1982 94.0542 33.983 93.3681 33.5526C92.6863 33.1179 92.1622 32.5192 91.7957 31.7564C91.4292 30.9936 91.246 30.12 91.246 29.1357C91.246 28.1385 91.4335 27.2585 91.8085 26.4957C92.1835 25.7287 92.7119 25.13 93.3937 24.6996C94.0755 24.2692 94.8788 24.054 95.8035 24.054C96.5492 24.054 97.214 24.1925 97.7978 24.4695C98.3816 24.7422 98.8525 25.1257 99.2105 25.62C99.5727 26.1143 99.7879 26.6918 99.8561 27.3523H97.996C97.8937 26.892 97.6593 26.4957 97.2928 26.1634C96.9306 25.831 96.4448 25.6648 95.8355 25.6648C95.3028 25.6648 94.8362 25.8054 94.4356 26.0866C94.0393 26.3636 93.7303 26.7599 93.5088 27.2756C93.2872 27.7869 93.1764 28.392 93.1764 29.0909C93.1764 29.8068 93.285 30.4247 93.5024 30.9446C93.7197 31.4645 94.0265 31.8672 94.4228 32.1527C94.8234 32.4382 95.2943 32.581 95.8355 32.581C96.1977 32.581 96.5258 32.5149 96.8198 32.3828C97.1181 32.2464 97.3674 32.0526 97.5677 31.8011C97.7723 31.5497 97.915 31.2472 97.996 30.8935H99.8561C99.7879 31.5284 99.5812 32.0952 99.236 32.5938C98.8909 33.0923 98.4285 33.4844 97.849 33.7699C97.2737 34.0554 96.5982 34.1982 95.8227 34.1982ZM106.131 34.1982C105.164 34.1982 104.331 33.9915 103.632 33.5781C102.938 33.1605 102.401 32.5746 102.021 31.8203C101.646 31.0618 101.459 30.1733 101.459 29.1548C101.459 28.1491 101.646 27.2628 102.021 26.4957C102.401 25.7287 102.929 25.13 103.607 24.6996C104.288 24.2692 105.085 24.054 105.997 24.054C106.551 24.054 107.088 24.1456 107.608 24.3288C108.128 24.5121 108.595 24.7997 109.008 25.1918C109.421 25.5838 109.747 26.093 109.986 26.7195C110.224 27.3416 110.344 28.098 110.344 28.9886V29.6662H102.539V28.2344H108.471C108.471 27.7315 108.369 27.2862 108.164 26.8984C107.96 26.5064 107.672 26.1974 107.301 25.9716C106.935 25.7457 106.504 25.6328 106.01 25.6328C105.473 25.6328 105.004 25.7649 104.604 26.0291C104.207 26.2891 103.901 26.63 103.683 27.0518C103.47 27.4695 103.364 27.9233 103.364 28.4134V29.532C103.364 30.1882 103.479 30.7464 103.709 31.2067C103.943 31.6669 104.269 32.0185 104.687 32.2614C105.104 32.5 105.592 32.6193 106.151 32.6193C106.513 32.6193 106.843 32.5682 107.141 32.4659C107.44 32.3594 107.697 32.2017 107.915 31.9929C108.132 31.7841 108.298 31.5263 108.413 31.2195L110.222 31.5455C110.077 32.0781 109.818 32.5447 109.443 32.9453C109.072 33.3416 108.605 33.6506 108.043 33.8722C107.484 34.0895 106.847 34.1982 106.131 34.1982Z" fill="white"/>
</svg>
