<svg width="24" height="24" viewBox="0 0 24 24" fill="none" xmlns="http://www.w3.org/2000/svg">
<g clip-path="url(#clip0_424_442)">
<path d="M20.0399 8.71V4H15.3399L11.9999 0.690002L8.70994 4H3.99994V8.71L0.689941 12L3.99994 15.34V20.04H8.70994L11.9999 23.35L15.3399 20.04H20.0399V15.34L23.3499 12L20.0399 8.71ZM8.82994 7.05C9.80994 7.05 10.5999 7.84 10.5999 8.83C10.5999 9.29944 10.4135 9.74964 10.0815 10.0816C9.74958 10.4135 9.29937 10.6 8.82994 10.6C7.83994 10.6 7.04994 9.81 7.04994 8.83C7.04994 7.84 7.83994 7.05 8.82994 7.05ZM15.2199 17C14.2399 17 13.4499 16.2 13.4499 15.22C13.4499 14.7506 13.6364 14.3004 13.9684 13.9684C14.3003 13.6365 14.7505 13.45 15.2199 13.45C16.1999 13.45 16.9999 14.24 16.9999 15.22C16.9999 15.6921 16.8124 16.1448 16.4786 16.4787C16.1448 16.8125 15.692 17 15.2199 17ZM8.49994 17.03L6.99994 15.53L15.5299 7L17.0299 8.5L8.49994 17.03Z" fill="#232122"/>
</g>
<defs>
<clipPath id="clip0_424_442">
<rect width="24" height="24" fill="white"/>
</clipPath>
</defs>
</svg>
