<svg width="24" height="24" viewBox="0 0 24 24" fill="none" xmlns="http://www.w3.org/2000/svg">
<path d="M3.34998 3.58L20.65 20.87L19.23 22.29L16.94 20H3.99998C3.46955 20 2.96084 19.7893 2.58577 19.4142C2.21069 19.0391 1.99998 18.5304 1.99998 18V6C1.99998 5.72 2.05998 5.46 2.15998 5.22L1.22998 4.29L2.64998 2.87L3.34998 3.58ZM6.59998 4H20C20.5304 4 21.0391 4.21071 21.4142 4.58578C21.7893 4.96085 22 5.46956 22 6V18C22 18.4 21.88 18.77 21.68 19.08L17.6 15H20V13H15.6L13.6 11H20V9H11.6L6.59998 4ZM9.93998 13H8.99998V15H11V14.06L9.93998 13ZM5.93998 9H4.99998V11H6.99998V10.06L5.93998 9Z" fill="#232122"/>
</svg>
