<svg width="20" height="24" viewBox="0 0 20 24" fill="none" xmlns="http://www.w3.org/2000/svg">
<path d="M5.45848 2.03405C8.42443 0.310708 12.0701 0.34083 15.0082 2.11295C17.9174 3.92117 19.6855 7.1483 19.6692 10.6198C19.6014 14.0685 17.7054 17.3103 15.3354 19.8164C13.9676 21.2693 12.4374 22.5541 10.7761 23.6445C10.605 23.7434 10.4176 23.8096 10.2231 23.8399C10.0359 23.8319 9.85365 23.7766 9.6927 23.6789C7.15645 22.0406 4.93138 19.9493 3.12455 17.5057C1.61264 15.466 0.753677 13.0016 0.664307 10.4474L0.671075 10.0758C0.794521 6.74169 2.59847 3.69584 5.45848 2.03405ZM11.3984 7.59709C10.1927 7.08458 8.80258 7.36302 7.87713 8.30241C6.95169 9.2418 6.67347 10.6568 7.17238 11.8868C7.67129 13.1168 8.84892 13.9191 10.1554 13.9191C11.0113 13.9252 11.8341 13.5824 12.4404 12.967C13.0466 12.3515 13.3861 11.5146 13.3831 10.6428C13.3876 9.31197 12.6041 8.1096 11.3984 7.59709Z" fill="#8E8E8E"/>
</svg>
