<svg width="16" height="21" viewBox="0 0 16 21" fill="none" xmlns="http://www.w3.org/2000/svg">
<path d="M7.461 10.5C7.27631 9.87648 7.24815 9.21703 7.379 8.58002C7.723 8.58002 7.69 10.094 7.461 10.5ZM7.391 12.436C7.06725 13.3212 6.67783 14.1809 6.226 15.008C7.05703 14.6307 7.92057 14.3294 8.806 14.108C8.22375 13.6562 7.74187 13.0881 7.391 12.44V12.436ZM3.531 17.555C3.531 17.588 4.072 17.334 4.962 15.906C4.38226 16.3589 3.89622 16.9204 3.531 17.559V17.555ZM10.171 6.55501H15.75V20.016C15.7503 20.1453 15.725 20.2734 15.6756 20.3929C15.6263 20.5124 15.5538 20.621 15.4624 20.7124C15.371 20.8038 15.2624 20.8763 15.1429 20.9256C15.0234 20.975 14.8953 21.0003 14.766 21H0.984002C0.854707 21.0003 0.726633 20.975 0.60713 20.9256C0.487626 20.8763 0.379046 20.8038 0.287621 20.7124C0.196196 20.621 0.123725 20.5124 0.0743677 20.3929C0.0250104 20.2734 -0.000261558 20.1453 2.04101e-06 20.016V0.984015C-0.000261558 0.85472 0.0250104 0.726646 0.0743677 0.607143C0.123725 0.487639 0.196196 0.379059 0.287621 0.287634C0.379046 0.196209 0.487626 0.123738 0.60713 0.0743805C0.726633 0.0250232 0.854707 -0.000248774 0.984002 1.48244e-05H9.184V5.57801C9.18453 5.83961 9.28889 6.0903 9.47415 6.27499C9.6594 6.45968 9.91041 6.56328 10.172 6.56301L10.171 6.55501ZM9.843 13.601C9.01906 13.0956 8.3992 12.3165 8.092 11.4C8.37486 10.5529 8.46171 9.65259 8.346 8.76702C8.31693 8.5443 8.21565 8.33726 8.05768 8.17761C7.8997 8.01795 7.69375 7.91448 7.47136 7.88305C7.24896 7.85162 7.0224 7.89396 6.82637 8.00359C6.63034 8.11322 6.47565 8.28408 6.386 8.49002C6.24665 9.55414 6.3604 10.6361 6.718 11.648C6.22006 12.8485 5.66168 14.023 5.045 15.167C5.045 15.167 5.045 15.167 5.037 15.167C3.925 15.742 2.018 17 2.8 17.961C3.02821 18.2089 3.34535 18.3564 3.682 18.371C4.416 18.371 5.146 17.633 6.188 15.836C7.24364 15.441 8.32647 15.1228 9.428 14.884C10.2325 15.3429 11.1293 15.6162 12.053 15.684C12.2613 15.6891 12.4665 15.6327 12.6431 15.522C12.8196 15.4113 12.9597 15.251 13.0458 15.0613C13.1319 14.8715 13.1604 14.6606 13.1275 14.4549C13.0946 14.2491 13.002 14.0575 12.861 13.904C12.291 13.346 10.634 13.504 9.842 13.604L9.843 13.601ZM15.462 4.30101L11.443 0.287015C11.351 0.195358 11.2418 0.12281 11.1217 0.0735521C11.0015 0.0242947 10.8728 -0.000697886 10.743 1.48244e-05H10.5V5.25001H15.75V5.00001C15.7499 4.74012 15.6467 4.49088 15.463 4.30701L15.462 4.30101ZM12.424 14.778C12.592 14.667 12.324 14.29 10.669 14.409C12.19 15.057 12.424 14.778 12.424 14.778Z" fill="#002C3F"/>
</svg>
