<svg width="18" height="18" viewBox="0 0 18 18" fill="none" xmlns="http://www.w3.org/2000/svg">
<path d="M5.94996 12.6167C6.79163 10.525 7.74163 8.13333 11.3333 7.33333C11.3333 7.33333 7.16663 7.33333 5.81663 11.1917C5.81663 11.1917 5.08329 10.4583 5.08329 9.625C5.08329 8.79166 5.91663 7.025 7.99996 6.60833C8.59163 6.5 9.24996 6.39166 9.89996 6.3C11.5416 6.08333 13.1166 5.85 13.4166 5.25C13.4166 5.25 12.1666 12.3333 7.58329 12.3333C7.43329 12.3333 7.22496 12.2833 7.02496 12.2083L6.63329 13.1667L5.84163 12.8917L5.94996 12.6167ZM9.24996 2.33333C12.925 2.33333 15.9166 5.325 15.9166 9C15.9166 12.675 12.925 15.6667 9.24996 15.6667C5.57496 15.6667 2.58329 12.675 2.58329 9C2.58329 5.325 5.57496 2.33333 9.24996 2.33333ZM9.24996 0.666664C4.66663 0.666664 0.916626 4.41666 0.916626 9C0.916626 13.5833 4.66663 17.3333 9.24996 17.3333C13.8333 17.3333 17.5833 13.5833 17.5833 9C17.5833 4.41666 13.8333 0.666664 9.24996 0.666664Z" fill="#6ABA2F"/>
</svg>
