<svg width="34" height="34" viewBox="0 0 34 34" fill="none" xmlns="http://www.w3.org/2000/svg">
<path d="M16.9999 29C12.8333 29 9.14992 26.8667 6.99992 23.6667C7.04992 20.3334 13.6666 18.5 16.9999 18.5C20.3333 18.5 26.9499 20.3334 26.9999 23.6667C24.8499 26.8667 21.1666 29 16.9999 29ZM16.9999 5.33337C18.326 5.33337 19.5978 5.86016 20.5355 6.79784C21.4731 7.73552 21.9999 9.00729 21.9999 10.3334C21.9999 11.6595 21.4731 12.9312 20.5355 13.8689C19.5978 14.8066 18.326 15.3334 16.9999 15.3334C15.6738 15.3334 14.4021 14.8066 13.4644 13.8689C12.5267 12.9312 11.9999 11.6595 11.9999 10.3334C11.9999 9.00729 12.5267 7.73552 13.4644 6.79784C14.4021 5.86016 15.6738 5.33337 16.9999 5.33337ZM16.9999 0.333374C14.8112 0.333374 12.644 0.76447 10.6219 1.60205C8.59977 2.43963 6.76245 3.66728 5.21481 5.21493C2.0892 8.34053 0.333252 12.5798 0.333252 17C0.333252 21.4203 2.0892 25.6595 5.21481 28.7852C6.76245 30.3328 8.59977 31.5605 10.6219 32.398C12.644 33.2356 14.8112 33.6667 16.9999 33.6667C21.4202 33.6667 25.6594 31.9108 28.785 28.7852C31.9106 25.6595 33.6666 21.4203 33.6666 17C33.6666 7.78337 26.1666 0.333374 16.9999 0.333374Z" fill="white"/>
</svg>
