<svg width="14" height="19" viewBox="0 0 14 19" fill="none" xmlns="http://www.w3.org/2000/svg">
<path d="M7.25004 14.1667C7.69207 14.1667 8.11599 13.9911 8.42855 13.6785C8.74111 13.3659 8.91671 12.942 8.91671 12.5C8.91671 11.575 8.16671 10.8333 7.25004 10.8333C6.80801 10.8333 6.38409 11.0089 6.07153 11.3215C5.75897 11.634 5.58337 12.058 5.58337 12.5C5.58337 12.942 5.75897 13.3659 6.07153 13.6785C6.38409 13.9911 6.80801 14.1667 7.25004 14.1667ZM12.25 6.66666C12.6921 6.66666 13.116 6.84226 13.4286 7.15482C13.7411 7.46738 13.9167 7.8913 13.9167 8.33333V16.6667C13.9167 17.1087 13.7411 17.5326 13.4286 17.8452C13.116 18.1577 12.6921 18.3333 12.25 18.3333H2.25004C1.80801 18.3333 1.38409 18.1577 1.07153 17.8452C0.758969 17.5326 0.583374 17.1087 0.583374 16.6667V8.33333C0.583374 7.40833 1.33337 6.66666 2.25004 6.66666H3.08337V4.99999C3.08337 3.89493 3.52236 2.83512 4.30376 2.05372C5.08516 1.27232 6.14497 0.833328 7.25004 0.833328C7.79722 0.833328 8.33903 0.941102 8.84456 1.1505C9.35008 1.35989 9.80941 1.66681 10.1963 2.05372C10.5832 2.44063 10.8901 2.89996 11.0995 3.40548C11.3089 3.911 11.4167 4.45282 11.4167 4.99999V6.66666H12.25ZM7.25004 2.49999C6.587 2.49999 5.95111 2.76339 5.48227 3.23223C5.01343 3.70107 4.75004 4.33695 4.75004 4.99999V6.66666H9.75004V4.99999C9.75004 4.33695 9.48665 3.70107 9.01781 3.23223C8.54897 2.76339 7.91308 2.49999 7.25004 2.49999Z" fill="#6A6668"/>
</svg>
