<svg width="767" height="506" viewBox="0 0 767 506" fill="none" xmlns="http://www.w3.org/2000/svg">
<line y1="505.063" x2="805.312" y2="505.063" stroke="#1D3E74" stroke-width="0.87155"/>
<path d="M768.795 504.627H104.726C59.5305 438.626 53.3675 348.125 122.188 311.125C221.824 257.624 162.762 246.624 191.522 204.623C278.319 115.122 314.783 221.123 387.199 169.122C516.623 60.6209 689.189 163.122 696.379 213.123C703.569 263.124 655.805 287.124 722.572 339.125C828.987 405.126 797.727 476.96 768.795 504.627Z" fill="#DBFEF2"/>
<path fill-rule="evenodd" clip-rule="evenodd" d="M279.104 245.341C277.773 245.627 276.391 245.777 274.974 245.777C273.316 245.777 271.706 245.571 270.169 245.184C270.177 245.381 270.18 245.579 270.18 245.777H255.364L240.548 245.777C240.548 243.831 240.931 241.905 241.676 240.107C242.42 238.309 243.512 236.676 244.887 235.3C246.263 233.925 247.897 232.833 249.694 232.089C251.492 231.344 253.418 230.961 255.364 230.961C255.562 230.961 255.76 230.965 255.957 230.973C255.57 229.435 255.364 227.825 255.364 226.167C255.364 215.337 264.144 206.557 274.974 206.557C284.671 206.557 292.724 213.595 294.303 222.842C296.106 222.446 297.954 222.245 299.813 222.245C303.018 222.245 306.191 222.843 309.152 224.003C312.113 225.164 314.803 226.865 317.069 229.01C319.335 231.155 321.133 233.701 322.359 236.503C323.585 239.305 324.217 242.308 324.217 245.341H299.813L279.104 245.341Z" fill="white"/>
<path d="M379.562 500.317H331.794V396.257C331.794 383.212 342.369 372.637 355.415 372.637H355.941C368.987 372.637 379.562 383.212 379.562 396.257V500.317Z" fill="#266185"/>
<path d="M379.562 500.317H355.415V410.496H379.562V500.317ZM379.562 404.064H355.415V372.637H355.941C368.985 372.637 379.562 383.212 379.562 396.257V404.064Z" fill="#377A99"/>
<path d="M261.065 502.683H257.916V453.865H271.169V457.015H261.065V502.683Z" fill="#49494A"/>
<path d="M266.904 502.683H263.756V462.395H271.17V465.544H266.904V502.683Z" fill="#49494A"/>
<path d="M417.486 501.314H414.337V424.941H403.443V421.792H417.486V501.314Z" fill="#49494A"/>
<path d="M347.459 431.426L322.062 448.943L296.664 431.426L271.169 449.01V502.683H372.934V449.01L347.459 431.426Z" fill="#6ABA2F"/>
<path d="M251.878 505.043H422.34V500.321H251.878V505.043Z" fill="#3B393D"/>
<path d="M281.799 441.68V431.427H277.862V444.395L281.799 441.68Z" fill="#49494A"/>
<path d="M406.592 500.317H385.861V364.501C385.861 359.283 390.091 355.053 395.309 355.053H397.144C402.362 355.053 406.592 359.283 406.592 364.501V500.317Z" fill="#49494A"/>
<path d="M402.941 357.038C402.937 357.036 402.936 357.035 402.932 357.033C402.936 357.035 402.937 357.036 402.941 357.038ZM402.932 357.033C401.333 355.791 399.324 355.052 397.144 355.052H397.146C399.326 355.052 401.333 355.791 402.932 357.033Z" fill="white"/>
<path d="M406.593 500.317H395.309V355.053H397.144C399.324 355.053 401.333 355.791 402.932 357.033C402.936 357.035 402.937 357.037 402.941 357.038C405.163 358.767 406.593 361.467 406.593 364.501V421.792V424.941V500.317Z" fill="#5A5B5D"/>
<path d="M382.678 393.304H328.68V390.155H382.678V393.304Z" fill="#6ABA2F"/>
<path d="M382.678 388.186H328.68V386.611H382.678V388.186Z" fill="#6ABA2F"/>
<path d="M382.678 420.862H328.68V417.712H382.678V420.862Z" fill="#6ABA2F"/>
<path d="M382.678 425.291H328.68V423.716H382.678V425.291Z" fill="#6ABA2F"/>
<path d="M409.841 369.192H382.613V366.042H409.841V369.192Z" fill="#6ABA2F"/>
<path d="M409.841 373.423H382.613V371.849H409.841V373.423Z" fill="#6ABA2F"/>
<path d="M409.841 400.291H382.613V397.142H409.841V400.291Z" fill="#6ABA2F"/>
<path d="M409.841 404.525H382.613V402.951H409.841V404.525Z" fill="#6ABA2F"/>
<path d="M409.841 430.901H382.613V427.752H409.841V430.901Z" fill="#6ABA2F"/>
<path d="M409.841 435.133H382.613V433.558H409.841V435.133Z" fill="#6ABA2F"/>
<path d="M409.841 445.369H382.613V442.218H409.841V445.369Z" fill="#6ABA2F"/>
<path d="M301.843 502.683H291.114V476.763H301.843V502.683Z" fill="#3B393D"/>
<path d="M320.216 495.56H309.979V485.325H320.216V495.56Z" fill="#D5F0EB"/>
<path d="M334.791 495.56H324.556V485.325H334.791V495.56Z" fill="#D5F0EB"/>
<path d="M349.369 495.56H339.134V485.325H349.369V495.56Z" fill="#D5F0EB"/>
<path d="M363.944 495.56H353.71V485.325H363.944V495.56Z" fill="#D5F0EB"/>
<path d="M320.216 481.751H309.979V471.515H320.216V481.751Z" fill="#D5F0EB"/>
<path d="M334.791 481.751H324.556V471.515H334.791V481.751Z" fill="#D5F0EB"/>
<path d="M349.369 481.751H339.134V471.515H349.369V481.751Z" fill="#D5F0EB"/>
<path d="M363.944 481.751H353.71V471.515H363.944V481.751Z" fill="#D5F0EB"/>
<path d="M358.829 465.937H365.913V450.19H358.829V465.937Z" fill="#D5F0EB"/>
<path d="M348.778 465.937H355.865V450.19H348.778V465.937Z" fill="#D5F0EB"/>
<path d="M338.728 465.937H345.816V450.19H338.728V465.937Z" fill="#D5F0EB"/>
<path d="M328.68 465.937H335.766V450.19H328.68V465.937Z" fill="#D5F0EB"/>
<path d="M308.011 465.937H315.097V450.19H308.011V465.937Z" fill="#D5F0EB"/>
<path d="M297.959 465.937H305.046V450.19H297.959V465.937Z" fill="#D5F0EB"/>
<path d="M287.912 465.937H294.998V450.19H287.912V465.937Z" fill="#D5F0EB"/>
<path d="M277.862 465.937H284.948V450.19H277.862V465.937Z" fill="#D5F0EB"/>
<path d="M284.553 493.495H278.256V473.023H284.553V493.495Z" fill="#D5F0EB"/>
<path d="M396.096 355.052H394.523V339.173H396.096V355.052Z" fill="#49494A"/>
<path d="M397.672 338.78C397.672 340.084 396.615 341.142 395.309 341.142C394.004 341.142 392.947 340.084 392.947 338.78C392.947 337.475 394.004 336.418 395.309 336.418C396.615 336.418 397.672 337.475 397.672 338.78Z" fill="#6ABA2F"/>
<path d="M331.794 410.497H355.415V404.065H331.794V410.497Z" fill="#3F839E"/>
<path d="M355.415 410.497H379.562V404.065H355.415V410.497Z" fill="#5595AB"/>
<path d="M322.062 448.942L324.807 447.049V401.865H331.794V398.716H321.658V448.662L322.062 448.942Z" fill="#3B393D"/>
<path fill-rule="evenodd" clip-rule="evenodd" d="M435.871 194.596C435.025 194.778 434.147 194.873 433.247 194.873C432.193 194.873 431.17 194.742 430.193 194.496C430.198 194.622 430.201 194.747 430.201 194.873H420.786H411.372C411.372 193.637 411.615 192.413 412.088 191.27C412.561 190.128 413.255 189.09 414.129 188.216C415.003 187.342 416.041 186.648 417.183 186.175C418.326 185.702 419.55 185.459 420.786 185.459C420.912 185.459 421.038 185.461 421.163 185.466C420.917 184.489 420.786 183.466 420.786 182.413C420.786 175.531 426.365 169.952 433.247 169.952C439.408 169.952 444.525 174.424 445.529 180.3C446.674 180.048 447.848 179.921 449.03 179.921C451.066 179.921 453.082 180.3 454.964 181.038C456.845 181.775 458.554 182.856 459.994 184.219C461.434 185.582 462.576 187.2 463.356 188.98C464.135 190.761 464.536 192.669 464.536 194.596H449.03H435.871Z" fill="white"/>
<path fill-rule="evenodd" clip-rule="evenodd" d="M536.75 170.048C535.46 170.324 534.121 170.47 532.749 170.47C531.143 170.47 529.583 170.27 528.093 169.895C528.101 170.087 528.105 170.278 528.105 170.47H513.751H499.398C499.398 168.585 499.769 166.719 500.491 164.977C501.212 163.236 502.269 161.654 503.602 160.321C504.935 158.988 506.517 157.931 508.259 157.209C510 156.488 511.867 156.117 513.751 156.117C513.943 156.117 514.135 156.121 514.326 156.128C513.951 154.639 513.752 153.079 513.752 151.473C513.752 140.981 522.257 132.476 532.749 132.476C542.142 132.476 549.944 139.294 551.474 148.251C553.22 147.868 555.01 147.673 556.811 147.673C559.916 147.673 562.99 148.252 565.858 149.376C568.726 150.501 571.333 152.149 573.528 154.227C575.723 156.304 577.464 158.771 578.652 161.485C579.841 164.2 580.452 167.109 580.452 170.048H556.811L536.75 170.048Z" fill="white"/>
<path d="M490.09 185.146L484.788 327.298H503.874L498.583 185.146H490.09Z" fill="#266185"/>
<path d="M493.757 189.786C493.757 189.786 491.528 189.875 487.893 190.487C486.086 190.81 483.888 191.2 481.477 191.835C479.053 192.447 476.354 193.21 473.506 194.192C470.638 195.15 467.607 196.304 464.459 197.663C461.311 198.988 458.101 200.566 454.906 202.448C451.731 204.341 448.63 206.612 445.501 208.969C442.373 211.33 439.174 213.684 435.905 215.924C429.388 220.412 422.811 224.818 416.772 229.17C410.702 233.448 405.085 237.543 400.277 241.045C390.654 248.077 384.354 252.947 384.354 252.947L385.246 254.506C385.246 254.506 392.621 251.482 403.518 246.671C408.957 244.251 415.311 241.439 422.059 238.31C428.842 235.263 435.941 231.773 443.097 228.368C446.674 226.657 450.305 225.075 453.913 223.54C457.513 222.013 461.038 220.455 464.264 218.647C467.49 216.831 470.467 214.837 473.19 212.764C475.933 210.73 478.453 208.677 480.717 206.675C482.988 204.695 484.999 202.744 486.732 200.951C488.489 199.179 489.931 197.472 491.112 196.066C493.457 193.226 494.649 191.34 494.649 191.34L493.757 189.786Z" fill="#D5F0EB"/>
<path d="M493.882 191.34C493.882 191.34 495.066 193.226 497.419 196.066C498.607 197.472 500.041 199.179 501.79 200.951C503.536 202.744 505.55 204.695 507.821 206.675C510.085 208.677 512.602 210.73 515.344 212.764C518.072 214.837 521.044 216.831 524.27 218.647C527.496 220.455 531.018 222.013 534.629 223.54C538.229 225.075 541.872 226.657 545.441 228.368C552.582 231.773 559.692 235.263 566.475 238.31C573.219 241.439 579.573 244.251 585.016 246.671C595.913 251.482 603.284 254.506 603.284 254.506L604.18 252.947C604.18 252.947 597.881 248.077 588.258 241.045C583.454 237.543 577.832 233.448 571.754 229.17C565.723 224.818 559.143 220.412 552.617 215.924C549.364 213.684 546.165 211.33 543.037 208.969C539.912 206.612 536.804 204.341 533.624 202.448C530.441 200.566 527.215 198.988 524.06 197.663C520.939 196.304 517.9 195.15 515.029 194.192C512.185 193.21 509.481 192.447 507.05 191.835C504.646 191.2 502.445 190.81 500.641 190.487C497.006 189.875 494.777 189.786 494.777 189.786L493.882 191.34Z" fill="#D5F0EB"/>
<path d="M495.357 190.57C495.357 190.57 496.393 188.591 497.671 185.135C498.291 183.405 499.039 181.309 499.693 178.902C500.375 176.494 501.061 173.778 501.626 170.817C502.226 167.857 502.74 164.642 503.118 161.253C503.542 157.856 503.772 154.279 503.729 150.578C503.675 146.877 503.258 143.055 502.771 139.17C502.28 135.286 501.824 131.34 501.517 127.393C500.878 119.5 500.32 111.602 499.561 104.208C498.879 96.8055 498.127 89.8981 497.488 83.9762C496.187 72.1363 495.1 64.2469 495.1 64.2469H493.3C493.3 64.2469 492.244 72.1441 490.993 83.9918C490.39 89.9137 489.649 96.8211 489.003 104.223C488.274 111.63 487.76 119.531 487.148 127.42C486.848 131.371 486.416 135.321 485.94 139.202C485.469 143.09 485.072 146.916 485.021 150.617C484.998 154.318 485.243 157.894 485.687 161.284C486.073 164.677 486.607 167.888 487.21 170.849C487.795 173.806 488.488 176.517 489.178 178.921C489.833 181.329 490.592 183.425 491.231 185.147C492.525 188.599 493.565 190.57 493.565 190.57H495.357Z" fill="#D5F0EB"/>
<path d="M488.836 177.696C490.394 177.029 492.097 176.636 493.881 176.581V64.2447H493.301C493.301 64.2447 492.245 72.142 490.994 83.9896C490.39 89.9115 489.65 96.8189 489.004 104.221C488.275 111.628 487.761 119.529 487.149 127.418C486.849 131.368 486.417 135.319 485.941 139.199C485.47 143.088 485.073 146.913 485.022 150.615C485.018 150.79 485.018 150.961 485.018 151.137C485.022 154.651 485.267 158.052 485.688 161.282C486.074 164.675 486.607 167.886 487.211 170.846C487.698 173.313 488.263 175.607 488.836 177.696Z" fill="#DEF4F0"/>
<path d="M591.794 243.646L591.802 243.342C590.723 242.547 589.585 241.717 588.397 240.852C583.57 237.365 577.952 233.279 571.866 229.016C570.004 227.68 568.095 226.34 566.151 224.996C566.1 225.031 566.046 225.066 565.995 225.101C567.955 226.464 569.879 227.82 571.753 229.172C577.831 233.45 583.453 237.545 588.257 241.047C589.492 241.951 590.672 242.82 591.794 243.646ZM542.635 208.668C542.67 208.648 542.705 208.625 542.74 208.605C539.744 206.349 536.74 204.187 533.682 202.368C530.491 200.49 527.265 198.92 524.102 197.603C520.973 196.247 517.942 195.098 515.071 194.151C512.651 193.325 510.349 192.659 508.237 192.102C508.233 192.114 508.233 192.129 508.233 192.141C510.345 192.698 512.64 193.368 515.028 194.194C517.899 195.152 520.938 196.306 524.059 197.665C527.214 198.99 530.44 200.568 533.623 202.45C536.666 204.261 539.643 206.42 542.635 208.668Z" fill="white"/>
<path d="M591.701 246.099L591.795 243.645C590.673 242.819 589.492 241.95 588.257 241.046C583.454 237.544 577.832 233.449 571.754 229.172C569.88 227.82 567.955 226.464 565.996 225.1C564.379 226.218 562.708 227.305 560.986 228.365L591.701 246.099ZM535.432 213.607C537.82 211.866 540.216 210.194 542.635 208.667C539.643 206.419 536.667 204.261 533.624 202.449C530.441 200.567 527.215 198.989 524.059 197.665C520.939 196.305 517.9 195.152 515.028 194.193C512.64 193.367 510.346 192.697 508.234 192.14C508.035 193.893 507.517 195.545 506.734 197.041L535.432 213.607Z" fill="#DEF4F0"/>
<path d="M484.788 327.298H494.649V259.641C492.109 260.806 489.615 261.94 487.184 263.038L484.788 327.298ZM487.773 247.314C488.817 246.574 489.873 245.83 490.936 245.078C492.159 244.197 493.399 243.313 494.649 242.425V204.556C494.544 204.56 494.435 204.56 494.326 204.56C492.592 204.56 490.932 204.244 489.397 203.667L487.773 247.314Z" fill="#3F839E"/>
<path d="M384.938 253.227L482.002 197.192C481.184 195.672 480.638 193.981 480.428 192.193C478.406 192.731 476.22 193.37 473.926 194.153C471.066 195.099 468.023 196.249 464.887 197.604C461.731 198.921 458.505 200.491 455.322 202.369C452.135 204.259 449.019 206.522 445.894 208.872C442.766 211.221 439.555 213.574 436.287 215.81C429.753 220.279 423.169 224.678 417.13 229.018C411.041 233.28 405.419 237.367 400.599 240.854C390.968 247.866 384.657 252.729 384.657 252.729L384.938 253.227Z" fill="#DEF4F0"/>
<path d="M480.339 190.568C480.339 198.294 486.608 204.558 494.326 204.558C502.059 204.558 508.32 198.294 508.32 190.568C508.32 182.834 502.059 176.573 494.326 176.573C486.608 176.573 480.339 182.834 480.339 190.568Z" fill="#6ABA2F"/>
<path d="M474.506 332.704H514.16V321.892H474.506V332.704Z" fill="#3B393D"/>
<path d="M494.325 200.501C499.818 200.501 504.264 196.052 504.264 190.566C504.264 185.081 499.818 180.631 494.325 180.631C488.843 180.631 484.402 185.081 484.402 190.566C484.402 196.052 488.843 200.501 494.325 200.501Z" fill="#85C927"/>
<path d="M635.88 183.141L628.431 383.102H655.29L647.829 183.141H635.88Z" fill="#266185"/>
<path d="M641.047 189.675C641.047 189.675 637.915 189.8 632.795 190.661C630.247 191.109 627.162 191.666 623.772 192.558C620.363 193.415 616.573 194.49 612.56 195.87C608.527 197.214 604.257 198.842 599.851 200.755C595.413 202.621 590.882 204.834 586.398 207.487C581.925 210.148 577.554 213.339 573.167 216.658C568.769 219.978 564.269 223.293 559.676 226.441C550.493 232.753 541.255 238.951 532.77 245.076C524.218 251.095 516.325 256.853 509.546 261.778C496.031 271.67 487.152 278.526 487.152 278.526L488.418 280.712C488.418 280.712 498.793 276.458 514.116 269.694C521.772 266.289 530.705 262.327 540.188 257.929C549.741 253.643 559.734 248.734 569.786 243.946C574.812 241.538 579.931 239.306 584.999 237.155C590.072 235.008 595.024 232.819 599.57 230.279C604.098 227.719 608.286 224.906 612.116 221.996C615.976 219.136 619.518 216.249 622.701 213.433C625.903 210.643 628.728 207.9 631.178 205.376C633.641 202.886 635.663 200.486 637.33 198.507C640.634 194.518 642.309 191.864 642.309 191.864L641.047 189.675Z" fill="#D5F0EB"/>
<path d="M641.218 191.864C641.218 191.864 642.897 194.518 646.209 198.507C647.865 200.486 649.887 202.886 652.361 205.376C654.807 207.9 657.632 210.643 660.834 213.433C664.013 216.249 667.563 219.136 671.416 221.996C675.253 224.906 679.43 227.719 683.969 230.279C688.511 232.819 693.463 235.008 698.532 237.155C703.608 239.306 708.724 241.538 713.75 243.946C723.805 248.734 733.798 253.643 743.343 257.929C752.822 262.327 761.764 266.289 769.411 269.694C784.746 276.458 795.113 280.712 795.113 280.712L796.375 278.526C796.375 278.526 787.508 271.67 773.977 261.778C767.214 256.853 759.317 251.095 750.765 245.076C742.284 238.951 733.035 232.753 723.852 226.441C719.258 223.293 714.762 219.978 710.364 216.658C705.969 213.339 701.598 210.148 697.129 207.487C692.645 204.834 688.114 202.621 683.688 200.755C679.274 198.842 675 197.214 670.979 195.87C666.967 194.49 663.164 193.415 659.759 192.558C656.366 191.666 653.28 191.109 650.736 190.661C645.624 189.8 642.488 189.675 642.488 189.675L641.218 191.864Z" fill="#D5F0EB"/>
<path d="M643.302 190.765C643.302 190.765 644.751 187.987 646.544 183.121C647.432 180.69 648.484 177.741 649.407 174.351C650.361 170.969 651.324 167.147 652.119 162.979C652.964 158.814 653.677 154.302 654.215 149.53C654.815 144.757 655.142 139.724 655.087 134.518C654.994 129.313 654.406 123.933 653.72 118.467C653.038 113.005 652.399 107.453 651.951 101.901C651.067 90.7941 650.291 79.6866 649.216 69.2805C648.262 58.8705 647.19 49.1538 646.306 40.8281C644.463 24.1767 642.94 13.0732 642.94 13.0732H640.415C640.415 13.0732 638.931 24.1846 637.154 40.8477C636.305 49.1734 635.284 58.8976 634.369 69.3115C633.332 79.7254 632.6 90.833 631.758 101.936C631.334 107.496 630.722 113.052 630.056 118.518C629.393 123.98 628.821 129.36 628.762 134.569C628.719 139.774 629.078 144.808 629.689 149.576C630.247 154.349 630.983 158.861 631.84 163.022C632.662 167.186 633.64 171.004 634.602 174.382C635.529 177.764 636.609 180.713 637.497 183.14C639.305 187.995 640.774 190.765 640.774 190.765H643.302Z" fill="#D5F0EB"/>
<path d="M634.124 172.667C636.313 171.732 638.705 171.183 641.218 171.101V13.0765H640.416C640.416 13.0765 638.931 24.1878 637.155 40.8509C636.305 49.1766 635.285 58.9008 634.369 69.3147C633.333 79.7287 632.6 90.8362 631.759 101.94C631.334 107.499 630.722 113.055 630.056 118.521C629.394 123.983 628.821 129.363 628.763 134.572C628.759 134.857 628.759 135.141 628.759 135.426C628.759 140.331 629.113 145.072 629.69 149.58C630.247 154.352 630.984 158.864 631.841 163.025C632.526 166.5 633.321 169.73 634.124 172.667Z" fill="#DEF4F0"/>
<path d="M754.365 278.914L754.762 278.209C754.762 278.209 745.879 271.368 732.337 261.507C725.558 256.602 717.649 250.852 709.078 244.856C700.589 238.747 691.332 232.568 682.134 226.28C677.54 223.132 673.028 219.824 668.634 216.524C664.227 213.209 659.848 210.03 655.368 207.369C650.884 204.731 646.353 202.522 641.908 200.671C637.501 198.766 633.223 197.153 629.195 195.809C625.798 194.652 622.564 193.713 619.587 192.934C619.584 192.954 619.584 192.969 619.58 192.989C622.545 193.768 625.77 194.711 629.144 195.872C633.165 197.216 637.439 198.844 641.853 200.757C646.279 202.623 650.81 204.836 655.294 207.489C659.763 210.15 664.134 213.341 668.529 216.661C672.927 219.98 677.423 223.295 682.017 226.443C691.199 232.755 700.448 238.953 708.93 245.078C717.482 251.097 725.379 256.855 732.142 261.78C745.673 271.672 754.54 278.529 754.54 278.529L754.33 278.895L754.365 278.914Z" fill="white"/>
<path d="M796.165 278.892L796.375 278.525C796.375 278.525 787.508 271.669 773.977 261.777C767.214 256.852 759.317 251.094 750.765 245.075C742.284 238.95 733.035 232.752 723.852 226.44C719.258 223.292 714.762 219.977 710.364 216.657C705.969 213.338 701.598 210.147 697.129 207.486C692.645 204.833 688.114 202.62 683.688 200.754C679.274 198.841 675 197.213 670.979 195.868C667.606 194.707 664.38 193.765 661.415 192.985C661.138 195.448 660.41 197.774 659.307 199.877L796.165 278.892Z" fill="#DEF4F0"/>
<path d="M628.432 383.102H642.309V210.443C642.157 210.447 642.009 210.451 641.857 210.451C639.415 210.451 637.069 210.003 634.911 209.189L628.432 383.102Z" fill="#3F839E"/>
<path d="M487.989 278.915L624.516 200.087C623.367 197.948 622.599 195.576 622.307 193.051C619.451 193.807 616.377 194.711 613.155 195.81C609.123 197.154 604.841 198.767 600.439 200.672C596.001 202.522 591.459 204.731 586.978 207.369C582.502 210.03 578.123 213.209 573.724 216.524C569.314 219.824 564.818 223.132 560.205 226.28C551.018 232.568 541.762 238.747 533.257 244.856C524.701 250.852 516.789 256.602 510.006 261.507C496.459 271.368 487.588 278.21 487.588 278.21L487.989 278.915Z" fill="#DEF4F0"/>
<path d="M622.178 190.767C622.178 201.637 630.983 210.454 641.857 210.454C652.723 210.454 661.539 201.637 661.539 190.767C661.539 179.902 652.723 171.093 641.857 171.093C630.983 171.093 622.178 179.902 622.178 190.767Z" fill="#6ABA2F"/>
<path d="M613.965 390.71H669.744V375.5H613.965V390.71Z" fill="#3B393D"/>
<path d="M641.857 204.741C649.575 204.741 655.832 198.484 655.832 190.766C655.832 183.052 649.575 176.795 641.857 176.795C634.147 176.795 627.874 183.052 627.874 190.766C627.874 198.484 634.147 204.741 641.857 204.741Z" fill="#85C927"/>
<path d="M766.092 498.527H631.002V396.555H766.092V498.527Z" fill="#EEEDED"/>
<path d="M584.81 312.015H726.549L777.423 397.427H635.683L584.81 312.015Z" fill="#F39847"/>
<path d="M631.002 498.527H540.361V396.42L585.682 319.859L631.002 396.42V498.527Z" fill="#E3E3E2"/>
<path d="M585.246 328.274L626.522 397.427H636.231L585.246 312.015L534.26 397.427H543.97L585.246 328.274Z" fill="#F7A34B"/>
<path d="M777.423 505.499H532.517V498.527H777.423V505.499Z" fill="#732C18"/>
<path d="M719.029 474.995H693.754V427.931H719.029V474.995Z" fill="#929292"/>
<path d="M753.891 474.995H730.359V427.931H753.891V474.995Z" fill="#929292"/>
<path d="M581.324 474.995H556.049V427.931H581.324V474.995Z" fill="#929292"/>
<path d="M615.314 474.995H590.911V427.931H615.314V474.995Z" fill="#929292"/>
<path d="M730.359 54.9076C730.359 69.8319 718.263 81.9257 703.339 81.9257C688.416 81.9257 676.323 69.8319 676.323 54.9076C676.323 39.9861 688.416 27.8896 703.339 27.8896C718.263 27.8896 730.359 39.9861 730.359 54.9076Z" fill="#F9DC06"/>
<path d="M704.211 22.8593C706.305 22.8593 708.343 23.0925 710.313 23.5318L710.311 23.5264C707.022 17.8692 704.211 5.83889 704.211 0C704.211 5.83889 701.4 17.8692 698.114 23.5264L698.111 23.5318C700.082 23.0925 702.119 22.8593 704.211 22.8593Z" fill="#F9DC06"/>
<path d="M735.389 54.9076C735.389 57.2987 735.156 59.6308 734.717 61.88H734.722C740.379 58.1204 752.412 54.9076 758.248 54.9076C752.412 54.9076 740.379 51.6948 734.722 47.9382L734.717 47.9352C735.156 50.1845 735.389 52.5194 735.389 54.9076Z" fill="#F9DC06"/>
<path d="M704.211 85.2627C702.119 85.2627 700.082 85.0122 698.111 84.5403L698.114 84.5462C701.4 90.6224 704.211 103.547 704.211 109.815C704.211 103.547 707.022 90.6224 710.311 84.5462L710.313 84.5403C708.343 85.0122 706.305 85.2627 704.211 85.2627Z" fill="#F9DC06"/>
<path d="M673.011 54.9076C673.011 52.5194 673.255 50.1845 673.708 47.9352L673.705 47.9382C667.836 51.6948 655.36 54.9076 649.305 54.9076C655.36 54.9076 667.836 58.1204 673.705 61.88H673.708C673.255 59.6308 673.011 57.2987 673.011 54.9076Z" fill="#F9DC06"/>
<path d="M681.841 32.9938C683.374 31.3329 685.031 29.8927 686.781 28.6616H686.776C680.412 26.9861 669.944 20.1102 665.864 15.6879C669.944 20.1102 676.292 31.4461 677.839 38.3424V38.3482C678.975 36.4521 680.305 34.6576 681.841 32.9938Z" fill="#F9DC06"/>
<path d="M725.92 32.9938C727.517 34.6576 728.902 36.4521 730.086 38.3482V38.3424C731.697 31.4461 738.308 20.1102 742.56 15.6879C738.308 20.1102 727.408 26.9861 720.777 28.6616H720.772C722.598 29.8927 724.323 31.3329 725.92 32.9938Z" fill="#F9DC06"/>
<path d="M725.92 76.4096C724.323 77.9427 722.598 79.2722 720.772 80.4086H720.777C727.408 81.9552 738.308 88.3022 742.56 92.3843C738.308 88.3022 731.697 77.8382 730.086 71.4724V71.4671C728.902 73.2173 727.517 74.8765 725.92 76.4096Z" fill="#F9DC06"/>
<path d="M681.841 76.4096C680.305 74.8765 678.975 73.2173 677.839 71.4671V71.4724C676.292 77.8382 669.944 88.3022 665.864 92.3843C669.944 88.3022 680.409 81.9552 686.776 80.4086H686.781C685.031 79.2722 683.374 77.9427 681.841 76.4096Z" fill="#F9DC06"/>
<path d="M480.04 445.685C471.548 438.881 464.333 430.21 467.188 421.607C469.717 413.977 490.344 369.68 492.194 365.713L495.957 368.029C492.005 376.503 473.243 416.959 472.25 421.6C470.132 431.472 488.214 444.009 501.258 447.905L495.564 462.833C494.117 462.4 488.179 452.207 480.04 445.685Z" fill="#732C18"/>
<path d="M513.797 445.685C522.289 438.881 529.501 430.21 526.647 421.607C524.12 413.977 503.493 369.68 501.641 365.713L497.88 368.029C501.829 376.503 520.592 416.959 521.587 421.6C523.703 431.469 505.624 444.009 492.574 447.905L498.276 462.833C499.717 462.4 505.655 452.207 513.797 445.685Z" fill="#732C18"/>
<path d="M567.288 375.82C567.124 360.843 558.728 348.247 547.06 343.473C547.777 340.692 548.291 337.81 548.291 334.77C548.291 317.882 536.357 304.195 521.633 304.195C517.728 304.195 514.044 305.209 510.698 306.947C503.385 299.791 493.918 295.455 483.559 295.455C465.863 295.455 450.763 308.057 444.627 325.852C429.805 329.847 418.827 344.035 418.827 360.973C418.827 367.693 420.583 373.965 423.595 379.361C417.095 384.952 413.115 392.247 413.115 400.272C413.115 420.556 431.852 431.933 454.95 431.933H540.723C563.821 431.933 578.709 417.757 578.709 400.272C578.709 390.423 576.609 381.625 567.288 375.82Z" fill="#7AB37F"/>
<path d="M540.724 431.933H497.779V298.335C502.544 300.317 506.914 303.245 510.699 306.947C514.045 305.209 517.728 304.195 521.634 304.195C536.357 304.195 548.291 317.882 548.291 334.77C548.291 337.81 547.778 340.692 547.061 343.473C558.729 348.247 567.125 360.843 567.289 375.82C576.609 381.625 578.709 390.423 578.709 400.272C578.709 417.757 563.822 431.933 540.724 431.933ZM545.712 415.41C544.12 415.41 542.827 416.703 542.827 418.296C542.827 419.891 544.12 421.178 545.712 421.178C547.305 421.178 548.598 419.891 548.598 418.296C548.598 416.703 547.305 415.41 545.712 415.41ZM512.069 395.343C510.476 395.343 509.184 396.636 509.184 398.228C509.184 399.827 510.476 401.114 512.069 401.114C513.658 401.114 514.951 399.827 514.951 398.228C514.951 396.636 513.658 395.343 512.069 395.343ZM568.479 385.728C566.883 385.728 565.591 387.021 565.591 388.614C565.591 390.213 566.883 391.499 568.479 391.499C570.066 391.499 571.358 390.213 571.358 388.614C571.358 387.021 570.066 385.728 568.479 385.728ZM535.98 371.729C534.387 371.729 533.095 373.021 533.095 374.614C533.095 376.21 534.387 377.496 535.98 377.496C537.573 377.496 538.865 376.21 538.865 374.614C538.865 373.021 537.573 371.729 535.98 371.729ZM547.147 348.73C545.558 348.73 544.265 350.022 544.265 351.612C544.265 353.208 545.558 354.497 547.147 354.497C548.74 354.497 550.032 353.208 550.032 351.612C550.032 350.022 548.74 348.73 547.147 348.73ZM505.34 347.533C503.747 347.533 502.454 348.826 502.454 350.418C502.454 352.014 503.747 353.304 505.34 353.304C506.929 353.304 508.222 352.014 508.222 350.418C508.222 348.826 506.929 347.533 505.34 347.533ZM529.375 318.426C527.785 318.426 526.492 319.719 526.492 321.312C526.492 322.907 527.785 324.197 529.375 324.197C530.97 324.197 532.263 322.907 532.263 321.312C532.263 319.719 530.97 318.426 529.375 318.426Z" fill="#7AB37F"/>
<path d="M595.627 500.725H506.2V430.907H595.627V500.725Z" fill="#EEEDED"/>
<path d="M475.621 373.023H569.45L603.127 431.504H509.299L475.621 373.023Z" fill="#F39847"/>
<path d="M506.2 500.725H446.197V430.814L476.198 378.394L506.2 430.814V500.725Z" fill="#E3E3E2"/>
<path d="M475.91 384.156L503.234 431.504H509.661L475.91 373.023L442.158 431.504H448.586L475.91 384.156Z" fill="#F7A34B"/>
<path d="M603.112 505.499H441.004V498.527H603.112V505.499Z" fill="#732C18"/>
<path d="M473.314 484.613H456.582V452.39H473.314V484.613Z" fill="#929292"/>
<path d="M495.815 484.613H479.66V452.39H495.815V484.613Z" fill="#929292"/>
<g opacity="0.4">
<path d="M186.922 251.69L181.944 438.979H199.893L194.907 251.69H186.922Z" fill="#266185"/>
<path d="M190.328 245.128C190.328 245.128 188.299 245.209 184.983 245.766C183.333 246.057 181.334 246.417 179.138 246.995C176.93 247.551 174.475 248.247 171.875 249.14C169.263 250.011 166.497 251.066 163.643 252.305C160.768 253.514 157.833 254.947 154.929 256.666C152.032 258.39 149.2 260.457 146.358 262.607C143.509 264.757 140.594 266.904 137.619 268.944C131.671 273.032 125.687 277.047 120.191 281.014C114.651 284.913 109.538 288.643 105.147 291.833C96.3925 298.241 90.6411 302.682 90.6411 302.682L91.4612 304.098C91.4612 304.098 98.1817 301.342 108.107 296.961C113.066 294.756 118.853 292.189 124.996 289.34C131.184 286.564 137.657 283.384 144.168 280.282C147.423 278.723 150.739 277.277 154.023 275.884C157.309 274.493 160.516 273.075 163.461 271.429C166.394 269.771 169.107 267.949 171.587 266.064C174.088 264.212 176.382 262.342 178.444 260.517C180.519 258.71 182.348 256.934 183.936 255.298C185.531 253.686 186.84 252.131 187.92 250.849C190.061 248.265 191.146 246.546 191.146 246.546L190.328 245.128Z" fill="#D5F0EB"/>
<path d="M190.438 246.546C190.438 246.546 191.526 248.265 193.671 250.849C194.744 252.131 196.054 253.686 197.656 255.298C199.241 256.934 201.071 258.71 203.145 260.517C205.204 262.342 207.504 264.212 209.999 266.064C212.485 267.949 215.191 269.771 218.131 271.429C221.073 273.075 224.281 274.493 227.564 275.884C230.852 277.277 234.166 278.723 237.422 280.282C243.935 283.384 250.408 286.564 256.591 289.34C262.731 292.189 268.523 294.756 273.477 296.961C283.41 301.342 290.126 304.098 290.126 304.098L290.943 302.682C290.943 302.682 285.199 298.241 276.435 291.833C272.054 288.643 266.938 284.913 261.399 281.014C255.905 277.047 249.914 273.032 243.965 268.944C240.99 266.904 238.078 264.757 235.228 262.607C232.382 260.457 229.55 258.39 226.656 256.666C223.751 254.947 220.816 253.514 217.949 252.305C215.09 251.066 212.321 250.011 209.717 249.14C207.117 248.247 204.654 247.551 202.449 246.995C200.251 246.417 198.252 246.057 196.604 245.766C193.293 245.209 191.261 245.128 191.261 245.128L190.438 246.546Z" fill="#D5F0EB"/>
<path d="M191.788 245.834C191.788 245.834 192.727 244.035 193.888 240.883C194.463 239.308 195.144 237.397 195.742 235.202C196.361 233.011 196.984 230.536 197.499 227.835C198.047 225.138 198.508 222.215 198.857 219.124C199.245 216.032 199.457 212.772 199.422 209.4C199.361 206.028 198.98 202.543 198.536 199.003C198.095 195.464 197.681 191.868 197.391 188.272C196.818 181.077 196.315 173.882 195.619 167.141C195.001 160.398 194.307 154.104 193.734 148.711C192.54 137.925 191.553 130.733 191.553 130.733H189.918C189.918 130.733 188.956 137.93 187.806 148.724C187.255 154.117 186.594 160.416 186.001 167.161C185.33 173.907 184.855 181.102 184.31 188.295C184.035 191.896 183.639 195.495 183.207 199.035C182.778 202.574 182.408 206.059 182.37 209.433C182.342 212.804 182.574 216.065 182.97 219.154C183.331 222.245 183.808 225.168 184.363 227.863C184.896 230.561 185.529 233.034 186.153 235.222C186.753 237.413 187.452 239.323 188.028 240.895C189.199 244.04 190.15 245.834 190.15 245.834H191.788Z" fill="#D5F0EB"/>
<path d="M185.843 234.112C187.261 233.506 188.811 233.15 190.439 233.097V130.735H189.919C189.919 130.735 188.957 137.933 187.806 148.726C187.256 154.119 186.595 160.418 186.002 167.164C185.331 173.91 184.856 181.105 184.311 188.297C184.036 191.898 183.64 195.497 183.208 199.038C182.779 202.576 182.408 206.061 182.371 209.435C182.368 209.62 182.368 209.804 182.368 209.988C182.368 213.165 182.598 216.237 182.971 219.156C183.332 222.248 183.809 225.17 184.364 227.866C184.808 230.117 185.323 232.209 185.843 234.112Z" fill="#DEF4F0"/>
<path d="M290.829 302.934L291.087 302.477C291.087 302.477 285.333 298.045 276.56 291.658C272.169 288.481 267.046 284.756 261.494 280.872C255.995 276.915 249.999 272.912 244.041 268.839C241.065 266.8 238.143 264.657 235.296 262.52C232.442 260.372 229.605 258.313 226.703 256.589C223.798 254.881 220.863 253.45 217.984 252.251C215.129 251.017 212.358 249.972 209.749 249.101C207.548 248.352 205.454 247.744 203.526 247.239C203.523 247.252 203.523 247.262 203.521 247.274C205.441 247.779 207.531 248.39 209.716 249.142C212.321 250.013 215.089 251.067 217.948 252.307C220.815 253.515 223.75 254.949 226.655 256.667C229.55 258.391 232.381 260.458 235.228 262.608C238.077 264.758 240.989 266.906 243.965 268.945C249.913 273.033 255.904 277.048 261.398 281.016C266.938 284.915 272.053 288.645 276.434 291.835C285.199 298.242 290.943 302.684 290.943 302.684L290.806 302.921L290.829 302.934Z" fill="white"/>
<path d="M290.807 302.92L290.943 302.683C290.943 302.683 285.199 298.241 276.435 291.834C272.054 288.644 266.938 284.914 261.399 281.015C255.905 277.047 249.914 273.032 243.965 268.944C240.99 266.905 238.078 264.757 235.228 262.607C232.382 260.457 229.55 258.39 226.656 256.666C223.751 254.948 220.816 253.514 217.949 252.306C215.09 251.066 212.321 250.011 209.717 249.141C207.531 248.389 205.442 247.778 203.521 247.273C203.342 248.868 202.87 250.375 202.156 251.738L290.807 302.92Z" fill="#DEF4F0"/>
<path d="M181.944 438.979H191.309V256.14C191.206 256.144 191.106 256.148 191.004 256.148C189.355 256.148 187.773 255.674 186.316 254.811L181.944 438.979Z" fill="#3F839E"/>
<path d="M91.1834 302.934L179.62 251.872C178.876 250.487 178.378 248.95 178.189 247.315C176.339 247.804 174.348 248.39 172.261 249.101C169.649 249.972 166.876 251.017 164.024 252.251C161.149 253.45 158.207 254.881 155.305 256.589C152.405 258.313 149.568 260.372 146.719 262.52C143.862 264.657 140.95 266.8 137.962 268.839C132.011 272.912 126.015 276.915 120.506 280.872C114.964 284.756 109.838 288.481 105.445 291.658C96.6699 298.045 90.9236 302.477 90.9236 302.477L91.1834 302.934Z" fill="#DEF4F0"/>
<path d="M178.105 245.836C178.105 252.877 183.809 258.588 190.852 258.588C197.891 258.588 203.602 252.877 203.602 245.836C203.602 238.798 197.891 233.092 190.852 233.092C183.809 233.092 178.105 238.798 178.105 245.836Z" fill="#6ABA2F"/>
<path d="M172.785 444.022H208.916V434.17H172.785V444.022Z" fill="#3B393D"/>
<path d="M190.853 254.888C195.852 254.888 199.905 250.835 199.905 245.835C199.905 240.838 195.852 236.785 190.853 236.785C185.858 236.785 181.795 240.838 181.795 245.835C181.795 250.835 185.858 254.888 190.853 254.888Z" fill="#85C927"/>
</g>
<g opacity="0.4">
<path d="M351.139 326.725L347.449 465.558H360.754L357.058 326.725H351.139Z" fill="#266185"/>
<path d="M353.664 321.86C353.664 321.86 352.159 321.92 349.701 322.334C348.478 322.549 346.996 322.816 345.369 323.245C343.732 323.656 341.912 324.173 339.985 324.835C338.049 325.48 335.998 326.262 333.882 327.181C331.752 328.077 329.576 329.139 327.423 330.413C325.275 331.691 323.176 333.223 321.07 334.817C318.958 336.411 316.797 338.003 314.591 339.514C310.182 342.545 305.746 345.521 301.672 348.462C297.566 351.352 293.776 354.117 290.52 356.482C284.031 361.232 279.767 364.524 279.767 364.524L280.375 365.574C280.375 365.574 285.357 363.531 292.715 360.283C296.391 358.648 300.68 356.746 305.234 354.634C309.821 352.576 314.619 350.219 319.446 347.92C321.859 346.764 324.317 345.692 326.751 344.659C329.187 343.628 331.564 342.577 333.748 341.357C335.921 340.128 337.933 338.777 339.771 337.38C341.625 336.007 343.326 334.621 344.854 333.268C346.392 331.929 347.748 330.612 348.925 329.399C350.107 328.204 351.078 327.052 351.879 326.101C353.465 324.186 354.27 322.912 354.27 322.912L353.664 321.86Z" fill="#D5F0EB"/>
<path d="M353.745 322.912C353.745 322.912 354.551 324.186 356.142 326.101C356.937 327.052 357.908 328.204 359.095 329.399C360.27 330.612 361.627 331.929 363.164 333.268C364.691 334.621 366.395 336.007 368.245 337.38C370.088 338.777 372.093 340.128 374.273 341.357C376.454 342.577 378.832 343.628 381.266 344.659C383.703 345.692 386.159 346.764 388.573 347.92C393.401 350.219 398.2 352.576 402.783 354.634C407.334 356.746 411.628 358.648 415.3 360.283C422.663 363.531 427.641 365.574 427.641 365.574L428.247 364.524C428.247 364.524 423.99 361.232 417.492 356.482C414.245 354.117 410.453 351.352 406.347 348.462C402.274 345.521 397.833 342.545 393.424 339.514C391.218 338.003 389.059 336.411 386.947 334.817C384.837 333.223 382.738 331.691 380.592 330.413C378.439 329.139 376.263 328.077 374.138 327.181C372.019 326.262 369.966 325.48 368.036 324.835C366.109 324.173 364.283 323.656 362.648 323.245C361.019 322.816 359.537 322.549 358.315 322.334C355.861 321.92 354.355 321.86 354.355 321.86L353.745 322.912Z" fill="#D5F0EB"/>
<path d="M354.745 322.384C354.745 322.384 355.441 321.05 356.302 318.714C356.728 317.546 357.233 316.13 357.677 314.503C358.135 312.879 358.597 311.044 358.979 309.042C359.385 307.042 359.727 304.876 359.985 302.584C360.273 300.293 360.431 297.876 360.404 295.376C360.36 292.877 360.077 290.294 359.748 287.669C359.42 285.046 359.114 282.38 358.898 279.714C358.474 274.381 358.102 269.048 357.585 264.051C357.127 259.052 356.612 254.386 356.188 250.389C355.303 242.393 354.571 237.062 354.571 237.062H353.359C353.359 237.062 352.646 242.397 351.793 250.398C351.386 254.396 350.895 259.065 350.456 264.066C349.958 269.066 349.607 274.4 349.202 279.731C348.999 282.401 348.705 285.069 348.385 287.693C348.067 290.316 347.792 292.899 347.764 295.401C347.743 297.9 347.915 300.317 348.209 302.607C348.477 304.898 348.83 307.065 349.242 309.063C349.636 311.062 350.106 312.896 350.568 314.518C351.013 316.142 351.532 317.558 351.958 318.723C352.826 321.054 353.531 322.384 353.531 322.384H354.745Z" fill="#D5F0EB"/>
<path d="M350.339 313.694C351.39 313.246 352.539 312.982 353.745 312.942V237.063H353.36C353.36 237.063 352.647 242.399 351.794 250.4C351.386 254.398 350.896 259.067 350.457 264.067C349.959 269.068 349.607 274.401 349.203 279.733C348.999 282.403 348.706 285.07 348.386 287.695C348.068 290.318 347.793 292.901 347.765 295.402C347.763 295.539 347.763 295.676 347.763 295.812C347.763 298.167 347.933 300.444 348.21 302.608C348.477 304.9 348.831 307.066 349.243 309.064C349.572 310.733 349.953 312.284 350.339 313.694Z" fill="#DEF4F0"/>
<path d="M428.163 364.711L428.354 364.372C428.354 364.372 424.088 361.087 417.586 356.352C414.331 353.997 410.533 351.236 406.417 348.357C402.341 345.423 397.896 342.456 393.479 339.437C391.274 337.925 389.107 336.337 386.997 334.753C384.881 333.161 382.779 331.634 380.627 330.356C378.474 329.09 376.298 328.029 374.164 327.141C372.048 326.226 369.994 325.451 368.06 324.806C366.428 324.25 364.876 323.8 363.446 323.425C363.445 323.435 363.445 323.442 363.443 323.452C364.866 323.826 366.415 324.278 368.035 324.836C369.966 325.481 372.018 326.263 374.138 327.182C376.263 328.078 378.439 329.14 380.592 330.414C382.738 331.692 384.836 333.224 386.947 334.818C389.059 336.412 391.218 338.004 393.423 339.516C397.832 342.546 402.274 345.523 406.346 348.463C410.453 351.354 414.245 354.119 417.492 356.483C423.989 361.233 428.247 364.525 428.247 364.525L428.146 364.701L428.163 364.711Z" fill="white"/>
<path d="M428.146 364.701L428.247 364.525C428.247 364.525 423.99 361.232 417.492 356.482C414.245 354.118 410.453 351.353 406.347 348.463C402.274 345.522 397.833 342.545 393.424 339.515C391.218 338.003 389.059 336.411 386.947 334.817C384.837 333.223 382.738 331.691 380.592 330.414C378.439 329.14 376.263 328.077 374.138 327.181C372.019 326.263 369.966 325.481 368.036 324.835C366.416 324.278 364.867 323.825 363.443 323.451C363.31 324.633 362.96 325.75 362.431 326.76L428.146 364.701Z" fill="#DEF4F0"/>
<path d="M347.449 465.558H354.39V330.023C354.314 330.026 354.24 330.029 354.164 330.029C352.942 330.029 351.769 329.678 350.69 329.039L347.449 465.558Z" fill="#3F839E"/>
<path d="M280.169 364.711L345.726 326.86C345.174 325.833 344.805 324.694 344.665 323.481C343.294 323.844 341.818 324.278 340.271 324.806C338.334 325.451 336.278 326.226 334.165 327.141C332.034 328.029 329.853 329.09 327.701 330.356C325.552 331.634 323.449 333.161 321.337 334.753C319.219 336.337 317.06 337.925 314.845 339.437C310.434 342.456 305.989 345.423 301.906 348.357C297.797 351.236 293.998 353.997 290.741 356.352C284.236 361.087 279.977 364.372 279.977 364.372L280.169 364.711Z" fill="#DEF4F0"/>
<path d="M344.603 322.386C344.603 327.605 348.831 331.839 354.052 331.839C359.27 331.839 363.503 327.605 363.503 322.386C363.503 317.168 359.27 312.938 354.052 312.938C348.831 312.938 344.603 317.168 344.603 322.386Z" fill="#6ABA2F"/>
<path d="M340.659 469.297H367.442V461.994H340.659V469.297Z" fill="#3B393D"/>
<path d="M354.052 329.095C357.758 329.095 360.763 326.091 360.763 322.385C360.763 318.681 357.758 315.676 354.052 315.676C350.35 315.676 347.338 318.681 347.338 322.385C347.338 326.091 350.35 329.095 354.052 329.095Z" fill="#85C927"/>
</g>
<path d="M248.009 487.849H136.833L144.86 419.216H239.981L248.009 487.849Z" fill="#266185"/>
<path d="M191.617 483.032H142.245L143.624 471.235V472.035H191.617V483.032ZM191.617 470.428H143.719L145.005 459.43V460.232H191.617V470.428ZM191.617 458.628H145.1L146.385 447.634V448.434H191.617V458.628ZM191.617 446.828H146.479L147.766 435.827V436.634H191.617V446.828ZM191.617 435.029H147.859L149.145 424.032H192.42H191.617V435.029Z" fill="#3F839E"/>
<path d="M191.618 483.032H193.223V424.032H191.618V483.032Z" fill="#266185"/>
<path d="M208.343 483.064L206.041 424.064L207.645 424.002L209.948 483.001L208.343 483.064Z" fill="#266185"/>
<path d="M225.072 483.096L220.47 424.096L222.068 423.97L226.671 482.971L225.072 483.096Z" fill="#266185"/>
<path d="M176.499 483.064L174.892 483.001L177.194 424.001L178.799 424.064L176.499 483.064Z" fill="#266185"/>
<path d="M159.77 483.096L158.171 482.971L162.771 423.97L164.37 424.096L159.77 483.096Z" fill="#266185"/>
<path d="M147.766 436.636H237.072V435.031H147.766V436.636Z" fill="#266185"/>
<path d="M146.385 448.435H238.456V446.83H146.385V448.435Z" fill="#266185"/>
<path d="M145.005 460.234H239.836V458.629H145.005V460.234Z" fill="#266185"/>
<path d="M143.624 472.037H241.216V470.43H143.624V472.037Z" fill="#266185"/>
<path d="M183.725 501.627H201.117V487.179H183.725V501.627Z" fill="#3B393D"/>
<path d="M178.773 505.108H206.068V498.152H178.773V505.108Z" fill="#49494A"/>
<path d="M248.009 487.849H201.117V487.179H192.42V483.032H193.223H208.342L208.343 483.063L209.147 483.032H225.066L225.072 483.095L225.871 483.032H242.597L241.216 471.238V470.428H241.121L239.835 459.434V458.629H239.741L238.456 447.642V446.829H238.361L237.073 435.826V435.029H236.981L235.694 424.032H222.074L222.068 423.969L221.268 424.032H207.647L207.645 424.001L206.841 424.032H192.42V419.216H239.981L248.009 487.849Z" fill="#307393"/>
<path d="M242.597 483.032H225.871L226.671 482.969L225.817 472.035H241.216V471.238L242.597 483.032ZM225.066 483.032H209.147L209.948 483L209.519 472.035H224.209L225.066 483.032ZM208.342 483.032H193.223V472.035H207.912L208.342 483.032ZM241.121 470.428H225.692L224.896 460.232H239.835V459.434L241.121 470.428ZM224.083 470.428H209.457L209.06 460.232H223.288L224.083 470.428ZM207.85 470.428H193.223V460.232H207.453L207.85 470.428ZM239.741 458.628H224.772L223.977 448.434H238.456V447.641L239.741 458.628ZM223.163 458.628H208.997L208.6 448.434H222.367L223.163 458.628ZM207.39 458.628H193.223V448.434H206.992L207.39 458.628ZM238.361 446.828H223.851L223.056 436.634H237.073V435.826L238.361 446.828ZM222.243 446.828H208.537L208.139 436.634H221.448L222.243 446.828ZM206.929 446.828H193.223V436.634H206.532L206.929 446.828ZM236.981 435.029H222.93L222.074 424.032H235.694L236.981 435.029ZM221.322 435.029H208.076L207.647 424.032H221.268L220.47 424.094L221.322 435.029ZM206.469 435.029H193.223V424.032H192.42H206.841L206.041 424.062L206.469 435.029Z" fill="#4E90A7"/>
<path d="M193.223 483.032H192.42V472.035H193.223V483.032ZM193.223 470.428H192.42V460.232H193.223V470.428ZM193.223 458.628H192.42V448.434H193.223V458.628ZM193.223 446.828H192.42V436.634H193.223V446.828ZM193.223 435.029H192.42V424.032H193.223V435.029Z" fill="#307393"/>
<path d="M208.343 483.064L208.342 483.033L207.912 472.036H209.519L209.948 483.001L209.147 483.033L208.343 483.064ZM209.457 470.429H207.85L207.453 460.234H209.06L209.457 470.429ZM208.997 458.63H207.39L206.992 448.435H208.6L208.997 458.63ZM208.537 446.83H206.929L206.532 436.635H208.139L208.537 446.83ZM208.076 435.03H206.469L206.041 424.064L206.841 424.033L207.645 424.002L207.647 424.033L208.076 435.03Z" fill="#307393"/>
<path d="M225.072 483.096L225.066 483.033L224.209 472.036H225.818L226.671 482.971L225.872 483.033L225.072 483.096ZM225.692 470.429H224.084L223.288 460.233H224.897L225.692 470.429ZM224.773 458.63H223.163L222.367 448.435H223.977L224.773 458.63ZM223.852 446.83H222.243L221.448 436.635H223.056L223.852 446.83ZM222.931 435.03H221.322L220.47 424.096L221.268 424.033L222.068 423.97L222.074 424.033L222.931 435.03Z" fill="#307393"/>
<path d="M237.073 436.636H192.42V435.03H237.073V435.827V436.636Z" fill="#307393"/>
<path d="M238.456 448.435H192.42V446.829H238.456V447.642V448.435Z" fill="#307393"/>
<path d="M239.835 460.234H192.42V458.63H239.835V459.435V460.234Z" fill="#307393"/>
<path d="M241.216 472.037H192.42V470.43H241.216V471.24V472.037Z" fill="#307393"/>
<path d="M201.117 498.151H192.42V487.18H201.117V487.85V498.151Z" fill="#4C4C50"/>
<path d="M206.068 505.108H192.42V498.151H206.068V505.108Z" fill="#5A5B5D"/>
<path d="M135.473 485.889H9.58707L18.6763 409.629H126.384L135.473 485.889Z" fill="#266185"/>
<path d="M71.6203 480.538H15.7147L17.2764 467.43V468.318H71.6203V480.538ZM71.6203 466.533H17.3838L18.8397 454.312V455.204H71.6203V466.533ZM71.6203 453.422H18.9472L20.4031 441.206V442.094H71.6203V453.422ZM71.6203 440.31H20.5088L21.9664 428.086V428.983H71.6203V440.31ZM71.6203 427.199H22.0722L23.5281 414.98H72.5292H71.6203V427.199Z" fill="#3F839E"/>
<path d="M71.6205 480.538H73.4384V414.981H71.6205V480.538Z" fill="#266185"/>
<path d="M90.559 480.573L87.9528 415.015L89.769 414.947L92.3768 480.503L90.559 480.573Z" fill="#266185"/>
<path d="M109.502 480.609L104.291 415.051L106.1 414.911L111.313 480.469L109.502 480.609Z" fill="#266185"/>
<path d="M54.5014 480.573L52.6819 480.503L55.2881 414.945L57.1059 415.015L54.5014 480.573Z" fill="#266185"/>
<path d="M35.5588 480.609L33.7475 480.469L38.9565 414.911L40.7678 415.051L35.5588 480.609Z" fill="#266185"/>
<path d="M21.9665 428.984H123.09V427.201H21.9665V428.984Z" fill="#266185"/>
<path d="M20.4028 442.095H124.656V440.312H20.4028V442.095Z" fill="#266185"/>
<path d="M18.8401 455.205H126.219V453.422H18.8401V455.205Z" fill="#266185"/>
<path d="M17.2767 468.32H127.782V466.535H17.2767V468.32Z" fill="#266185"/>
<path d="M62.6836 501.199H82.3772V485.145H62.6836V501.199Z" fill="#3B393D"/>
<path d="M57.0764 505.067H87.9832V497.337H57.0764V505.067Z" fill="#49494A"/>
<path d="M135.473 485.889H82.377V485.145H72.5292V480.538H73.4381H90.5573L90.559 480.572L91.4696 480.538H109.494L109.501 480.608L110.407 480.538H129.345L127.782 467.433V466.533H127.675L126.219 454.317V453.422H126.111L124.657 441.214V440.311H124.55L123.09 428.085V427.199H122.986L121.529 414.98H106.107L106.1 414.91L105.194 414.98H89.7707L89.769 414.946L88.8585 414.98H72.5292V409.629H126.384L135.473 485.889Z" fill="#307393"/>
<path d="M129.345 480.538H110.407L111.312 480.468L110.345 468.318H127.782V467.433L129.345 480.538ZM109.494 480.538H91.4695L92.3768 480.502L91.891 468.318H108.524L109.494 480.538ZM90.5573 480.538H73.4381V468.318H90.0715L90.5573 480.538ZM127.675 466.533H110.203L109.303 455.204H126.219V454.317L127.675 466.533ZM108.382 466.533H91.8199L91.3704 455.204H107.482L108.382 466.533ZM90.0004 466.533H73.4381V455.204H89.5509L90.0004 466.533ZM126.111 453.422H109.162L108.262 442.094H124.657V441.214L126.111 453.422ZM107.339 453.422H91.2993L90.8498 442.094H106.439L107.339 453.422ZM89.4798 453.422H73.4381V442.094H89.0287L89.4798 453.422ZM124.55 440.31H108.119L107.219 428.983H123.09V428.085L124.55 440.31ZM106.298 440.31H90.7788L90.3276 428.983H105.398L106.298 440.31ZM88.9576 440.31H73.4381V428.983H88.5081L88.9576 440.31ZM122.986 427.199H107.077L106.107 414.98H121.529L122.986 427.199ZM105.256 427.199H90.2566L89.7707 414.98H105.194L104.29 415.05L105.256 427.199ZM88.4371 427.199H73.4381V414.98H72.5292H88.8585L87.9528 415.014L88.4371 427.199Z" fill="#4E90A7"/>
<path d="M73.4381 480.538H72.5292V468.318H73.4381V480.538ZM73.4381 466.533H72.5292V455.204H73.4381V466.533ZM73.4381 453.422H72.5292V442.094H73.4381V453.422ZM73.4381 440.31H72.5292V428.983H73.4381V440.31ZM73.4381 427.199H72.5292V414.98H73.4381V427.199Z" fill="#307393"/>
<path d="M90.559 480.573L90.5573 480.539L90.0715 468.32H91.891L92.3768 480.503L91.4696 480.539L90.559 480.573ZM91.8199 466.534H90.0004L89.5509 455.205H91.3704L91.8199 466.534ZM91.2993 453.423H89.4798L89.0287 442.095H90.8498L91.2993 453.423ZM90.7788 440.312H88.9576L88.5081 428.984H90.3276L90.7788 440.312ZM90.2566 427.2H88.4371L87.9528 415.015L88.8585 414.981L89.769 414.947L89.7707 414.981L90.2566 427.2Z" fill="#307393"/>
<path d="M109.502 480.609L109.495 480.539L108.525 468.32H110.346L111.313 480.469L110.407 480.539L109.502 480.609ZM110.204 466.534H108.383L107.482 455.205H109.303L110.204 466.534ZM109.163 453.423H107.34L106.439 442.095H108.262L109.163 453.423ZM108.12 440.312H106.299L105.398 428.984H107.219L108.12 440.312ZM107.077 427.2H105.256L104.291 415.051L105.195 414.981L106.1 414.911L106.107 414.981L107.077 427.2Z" fill="#307393"/>
<path d="M123.09 428.984H72.5292V427.2H123.09V428.086V428.984Z" fill="#307393"/>
<path d="M124.657 442.095H72.5292V440.311H124.657V441.214V442.095Z" fill="#307393"/>
<path d="M126.219 455.205H72.5292V453.423H126.219V454.318V455.205Z" fill="#307393"/>
<path d="M127.782 468.32H72.5292V466.535H127.782V467.435V468.32Z" fill="#307393"/>
<path d="M82.377 497.336H72.5292V485.146H82.377V485.89V497.336Z" fill="#4C4C50"/>
<path d="M87.9826 505.067H72.5292V497.336H87.9826V505.067Z" fill="#5A5B5D"/>
<path d="M811.383 458.198C811.245 445.573 804.174 434.956 794.348 430.931C794.953 428.587 795.385 426.157 795.385 423.595C795.385 409.359 785.335 397.821 772.937 397.821C769.647 397.821 766.546 398.676 763.728 400.141C757.569 394.109 749.598 390.454 740.873 390.454C725.972 390.454 713.256 401.077 708.089 416.077C695.607 419.445 686.362 431.405 686.362 445.683C686.362 451.347 687.841 456.634 690.378 461.183C684.904 465.896 681.552 472.046 681.552 478.81C681.552 495.908 697.331 505.499 716.782 505.499H789.012C808.463 505.499 821 493.549 821 478.81C821 470.507 819.232 463.091 811.383 458.198Z" fill="#7AB37F"/>
</svg>
