<svg width="372" height="263" viewBox="0 0 372 263" fill="none" xmlns="http://www.w3.org/2000/svg">
<line y1="262.773" x2="418.841" y2="262.773" stroke="#1D3E74" stroke-width="0.453448"/>
<path d="M399.848 262.547H54.4678C30.9617 228.208 27.7563 181.122 63.5498 161.871C115.37 134.036 84.6519 128.313 99.6103 106.461C144.753 59.8954 163.718 115.046 201.381 87.9907C268.694 31.5397 358.445 84.869 362.185 110.883C365.924 136.898 341.083 149.384 375.808 176.439C431.154 210.778 414.896 248.152 399.848 262.547Z" fill="#DBFEF2"/>
<path fill-rule="evenodd" clip-rule="evenodd" d="M145.162 127.646C144.469 127.794 143.75 127.872 143.013 127.872C142.151 127.872 141.314 127.765 140.514 127.564C140.518 127.667 140.52 127.769 140.52 127.872H132.814H125.108C125.108 126.86 125.308 125.858 125.695 124.922C126.082 123.987 126.65 123.137 127.365 122.422C128.081 121.706 128.93 121.138 129.865 120.751C130.8 120.363 131.802 120.164 132.814 120.164C132.917 120.164 133.02 120.166 133.123 120.17C132.921 119.37 132.814 118.532 132.814 117.67C132.814 112.035 137.381 107.467 143.013 107.467C148.056 107.467 152.245 111.129 153.066 115.94C154.004 115.734 154.965 115.629 155.932 115.629C157.599 115.629 159.249 115.94 160.789 116.544C162.329 117.148 163.728 118.033 164.907 119.149C166.085 120.265 167.02 121.589 167.658 123.047C168.296 124.505 168.624 126.068 168.624 127.646H155.932H145.162Z" fill="white"/>
<path d="M197.409 260.304H172.565V206.164C172.565 199.377 178.065 193.875 184.85 193.875H185.124C191.909 193.875 197.409 199.377 197.409 206.164V260.304Z" fill="#266185"/>
<path d="M197.409 260.304H184.85V213.572H197.409V260.304ZM197.409 210.226H184.85V193.875H185.124C191.908 193.875 197.409 199.377 197.409 206.164V210.226Z" fill="#377A99"/>
<path d="M135.779 261.535H134.141V236.136H141.035V237.775H135.779V261.535Z" fill="#49494A"/>
<path d="M138.816 261.535H137.179V240.574H141.035V242.212H138.816V261.535Z" fill="#49494A"/>
<path d="M217.133 260.823H215.495V221.088H209.83V219.449H217.133V260.823Z" fill="#49494A"/>
<path d="M180.712 224.461L167.504 233.575L154.294 224.461L141.035 233.61V261.535H193.962V233.61L180.712 224.461Z" fill="#6ABA2F"/>
<path d="M131.001 262.763H219.658V260.306H131.001V262.763Z" fill="#3B393D"/>
<path d="M146.564 229.796V224.462H144.515V231.209L146.564 229.796Z" fill="#49494A"/>
<path d="M211.468 260.304H200.685V189.642C200.685 186.927 202.885 184.726 205.599 184.726H206.554C209.267 184.726 211.468 186.927 211.468 189.642V260.304Z" fill="#49494A"/>
<path d="M209.569 185.759C209.567 185.758 209.566 185.757 209.564 185.756C209.566 185.757 209.567 185.758 209.569 185.759ZM209.564 185.756C208.732 185.11 207.688 184.726 206.554 184.726H206.555C207.688 184.726 208.732 185.11 209.564 185.756Z" fill="white"/>
<path d="M211.468 260.304H205.599V184.726H206.554C207.688 184.726 208.732 185.11 209.564 185.756C209.566 185.757 209.567 185.758 209.569 185.759C210.724 186.659 211.468 188.063 211.468 189.642V219.449V221.088V260.304Z" fill="#5A5B5D"/>
<path d="M199.03 204.628H170.946V202.989H199.03V204.628Z" fill="#6ABA2F"/>
<path d="M199.03 201.965H170.946V201.145H199.03V201.965Z" fill="#6ABA2F"/>
<path d="M199.03 218.965H170.946V217.327H199.03V218.965Z" fill="#6ABA2F"/>
<path d="M199.03 221.269H170.946V220.45H199.03V221.269Z" fill="#6ABA2F"/>
<path d="M213.158 192.082H198.996V190.444H213.158V192.082Z" fill="#6ABA2F"/>
<path d="M213.158 194.284H198.996V193.465H213.158V194.284Z" fill="#6ABA2F"/>
<path d="M213.158 208.263H198.996V206.624H213.158V208.263Z" fill="#6ABA2F"/>
<path d="M213.158 210.466H198.996V209.646H213.158V210.466Z" fill="#6ABA2F"/>
<path d="M213.158 224.188H198.996V222.55H213.158V224.188Z" fill="#6ABA2F"/>
<path d="M213.158 226.39H198.996V225.571H213.158V226.39Z" fill="#6ABA2F"/>
<path d="M213.158 231.716H198.996V230.076H213.158V231.716Z" fill="#6ABA2F"/>
<path d="M156.988 261.535H151.408V248.049H156.988V261.535Z" fill="#3B393D"/>
<path d="M166.544 257.829H161.219V252.504H166.544V257.829Z" fill="#D5F0EB"/>
<path d="M174.124 257.829H168.801V252.504H174.124V257.829Z" fill="#D5F0EB"/>
<path d="M181.706 257.829H176.383V252.504H181.706V257.829Z" fill="#D5F0EB"/>
<path d="M189.286 257.829H183.964V252.504H189.286V257.829Z" fill="#D5F0EB"/>
<path d="M166.544 250.644H161.219V245.319H166.544V250.644Z" fill="#D5F0EB"/>
<path d="M174.124 250.644H168.801V245.319H174.124V250.644Z" fill="#D5F0EB"/>
<path d="M181.706 250.644H176.383V245.319H181.706V250.644Z" fill="#D5F0EB"/>
<path d="M189.286 250.644H183.964V245.319H189.286V250.644Z" fill="#D5F0EB"/>
<path d="M186.626 242.417H190.311V234.224H186.626V242.417Z" fill="#D5F0EB"/>
<path d="M181.399 242.417H185.084V234.224H181.399V242.417Z" fill="#D5F0EB"/>
<path d="M176.172 242.417H179.858V234.224H176.172V242.417Z" fill="#D5F0EB"/>
<path d="M170.946 242.417H174.631V234.224H170.946V242.417Z" fill="#D5F0EB"/>
<path d="M160.196 242.417H163.881V234.224H160.196V242.417Z" fill="#D5F0EB"/>
<path d="M154.967 242.417H158.654V234.224H154.967V242.417Z" fill="#D5F0EB"/>
<path d="M149.742 242.417H153.428V234.224H149.742V242.417Z" fill="#D5F0EB"/>
<path d="M144.515 242.417H148.201V234.224H144.515V242.417Z" fill="#D5F0EB"/>
<path d="M147.995 256.754H144.72V246.104H147.995V256.754Z" fill="#D5F0EB"/>
<path d="M206.009 184.725H205.191V176.464H206.009V184.725Z" fill="#49494A"/>
<path d="M206.829 176.26C206.829 176.938 206.279 177.489 205.6 177.489C204.921 177.489 204.371 176.938 204.371 176.26C204.371 175.581 204.921 175.031 205.6 175.031C206.279 175.031 206.829 175.581 206.829 176.26Z" fill="#6ABA2F"/>
<path d="M172.565 213.573H184.85V210.226H172.565V213.573Z" fill="#3F839E"/>
<path d="M184.85 213.573H197.409V210.226H184.85V213.573Z" fill="#5595AB"/>
<path d="M167.504 233.575L168.932 232.59V209.082H172.565V207.443H167.294V233.429L167.504 233.575Z" fill="#3B393D"/>
<path fill-rule="evenodd" clip-rule="evenodd" d="M226.696 101.244C226.255 101.338 225.799 101.388 225.33 101.388C224.783 101.388 224.251 101.32 223.742 101.192C223.745 101.257 223.746 101.323 223.746 101.388H218.85H213.953C213.953 100.745 214.08 100.108 214.326 99.5137C214.572 98.9194 214.933 98.3794 215.387 97.9246C215.842 97.4697 216.382 97.1089 216.976 96.8628C217.57 96.6166 218.207 96.4899 218.85 96.4899C218.915 96.4899 218.981 96.4913 219.046 96.4939C218.918 95.9855 218.85 95.4533 218.85 94.9053C218.85 91.3249 221.751 88.4224 225.33 88.4224C228.535 88.4224 231.196 90.7491 231.718 93.8058C232.314 93.6751 232.925 93.6086 233.539 93.6086C234.598 93.6086 235.647 93.8061 236.625 94.1899C237.604 94.5736 238.493 95.136 239.242 95.845C239.991 96.554 240.585 97.3957 240.99 98.3221C241.395 99.2485 241.604 100.241 241.604 101.244H233.539H226.696Z" fill="white"/>
<path fill-rule="evenodd" clip-rule="evenodd" d="M279.163 88.4719C278.492 88.6159 277.795 88.6917 277.081 88.6917C276.246 88.6917 275.435 88.588 274.66 88.3928C274.664 88.4923 274.666 88.592 274.666 88.6918H267.201L259.736 88.6918C259.736 87.7112 259.929 86.7401 260.304 85.8341C260.679 84.928 261.229 84.1048 261.922 83.4114C262.615 82.7179 263.438 82.1679 264.344 81.7926C265.25 81.4173 266.22 81.2241 267.201 81.2241C267.301 81.2241 267.4 81.2261 267.5 81.2301C267.305 80.4551 267.201 79.6436 267.201 78.808C267.201 73.3493 271.624 68.9242 277.081 68.9242C281.967 68.9242 286.024 72.4714 286.82 77.1316C287.728 76.9324 288.659 76.8311 289.596 76.8311C291.211 76.8311 292.81 77.1322 294.301 77.7172C295.793 78.3022 297.149 79.1596 298.29 80.2406C299.432 81.3215 300.338 82.6048 300.956 84.0172C301.574 85.4295 301.892 86.9432 301.892 88.4719H289.596L279.163 88.4719Z" fill="white"/>
<path d="M254.895 96.3274L252.137 170.286H262.064L259.312 96.3274H254.895Z" fill="#266185"/>
<path d="M256.802 98.7414C256.802 98.7414 255.643 98.788 253.752 99.1062C252.812 99.2745 251.669 99.4771 250.415 99.8075C249.154 100.126 247.75 100.523 246.269 101.034C244.778 101.532 243.201 102.132 241.564 102.84C239.927 103.529 238.257 104.35 236.595 105.329C234.944 106.314 233.331 107.496 231.704 108.722C230.077 109.951 228.413 111.175 226.713 112.34C223.323 114.676 219.903 116.968 216.762 119.232C213.605 121.458 210.683 123.588 208.183 125.41C203.178 129.069 199.901 131.603 199.901 131.603L200.366 132.414C200.366 132.414 204.201 130.841 209.869 128.337C212.697 127.079 216.002 125.615 219.512 123.988C223.04 122.402 226.732 120.586 230.454 118.815C232.314 117.925 234.202 117.102 236.079 116.303C237.951 115.509 239.785 114.698 241.463 113.757C243.14 112.813 244.689 111.775 246.105 110.697C247.531 109.638 248.842 108.57 250.02 107.528C251.201 106.499 252.247 105.483 253.148 104.551C254.062 103.628 254.812 102.741 255.426 102.009C256.646 100.531 257.266 99.5501 257.266 99.5501L256.802 98.7414Z" fill="#D5F0EB"/>
<path d="M256.866 99.5501C256.866 99.5501 257.482 100.531 258.706 102.009C259.324 102.741 260.07 103.628 260.98 104.551C261.888 105.483 262.935 106.499 264.116 107.528C265.294 108.57 266.603 109.638 268.029 110.697C269.448 111.775 270.994 112.813 272.671 113.757C274.349 114.698 276.181 115.509 278.059 116.303C279.932 117.102 281.826 117.925 283.682 118.815C287.396 120.586 291.095 122.402 294.622 123.988C298.13 125.615 301.435 127.079 304.265 128.337C309.933 130.841 313.767 132.414 313.767 132.414L314.233 131.603C314.233 131.603 310.956 129.069 305.951 125.41C303.453 123.588 300.529 121.458 297.368 119.232C294.231 116.968 290.809 114.676 287.415 112.34C285.723 111.175 284.059 109.951 282.432 108.722C280.807 107.496 279.19 106.314 277.537 105.329C275.881 104.35 274.203 103.529 272.562 102.84C270.939 102.132 269.358 101.532 267.865 101.034C266.386 100.523 264.98 100.126 263.715 99.8075C262.465 99.4771 261.32 99.2745 260.382 99.1062C258.492 98.788 257.332 98.7414 257.332 98.7414L256.866 99.5501Z" fill="#D5F0EB"/>
<path d="M257.634 99.1495C257.634 99.1495 258.173 98.1198 258.837 96.3218C259.16 95.4219 259.549 94.3313 259.889 93.0787C260.244 91.826 260.6 90.4132 260.894 88.8727C261.206 87.3321 261.474 85.6599 261.67 83.8964C261.891 82.1289 262.011 80.268 261.988 78.3424C261.96 76.4168 261.743 74.4283 261.49 72.4074C261.234 70.3865 260.997 68.3332 260.837 66.2798C260.505 62.1731 260.215 58.0644 259.82 54.2171C259.466 50.3659 259.075 46.7721 258.742 43.691C258.065 37.531 257.5 33.4263 257.5 33.4263H256.564C256.564 33.4263 256.015 37.5351 255.364 43.6992C255.05 46.7802 254.665 50.374 254.329 54.2253C253.95 58.0786 253.683 62.1893 253.364 66.294C253.208 68.3493 252.984 70.4048 252.736 72.4236C252.491 74.4466 252.284 76.437 252.258 78.3627C252.246 80.2883 252.374 82.1491 252.605 83.9126C252.805 85.6781 253.083 87.3484 253.397 88.8889C253.701 90.4274 254.062 91.8381 254.42 93.0888C254.761 94.3414 255.156 95.432 255.488 96.3279C256.161 98.1238 256.702 99.1495 256.702 99.1495H257.634Z" fill="#D5F0EB"/>
<path d="M254.242 92.4512C255.053 92.1046 255.938 91.8998 256.866 91.8714V33.4252H256.564C256.564 33.4252 256.015 37.5339 255.365 43.698C255.051 46.779 254.666 50.3728 254.329 54.2241C253.951 58.0774 253.683 62.1881 253.365 66.2928C253.209 68.3482 252.984 70.4036 252.737 72.4225C252.492 74.4454 252.285 76.4359 252.259 78.3615C252.257 78.4527 252.257 78.5419 252.257 78.6331C252.259 80.4614 252.386 82.231 252.605 83.9114C252.806 85.6769 253.083 87.3472 253.397 88.8877C253.651 90.1708 253.944 91.3647 254.242 92.4512Z" fill="#DEF4F0"/>
<path d="M307.791 126.763L307.795 126.605C307.233 126.192 306.642 125.76 306.024 125.31C303.513 123.496 300.591 121.37 297.426 119.152C296.458 118.457 295.465 117.76 294.454 117.06C294.427 117.078 294.399 117.097 294.373 117.115C295.392 117.824 296.393 118.53 297.367 119.233C300.528 121.459 303.452 123.589 305.951 125.411C306.593 125.882 307.207 126.334 307.791 126.763ZM282.223 108.565C282.241 108.555 282.259 108.543 282.278 108.533C280.719 107.359 279.157 106.234 277.567 105.287C275.907 104.31 274.229 103.494 272.584 102.808C270.957 102.103 269.38 101.505 267.887 101.013C266.629 100.583 265.431 100.236 264.333 99.9464C264.331 99.9525 264.331 99.9605 264.331 99.9666C265.429 100.256 266.622 100.605 267.865 101.035C269.358 101.533 270.939 102.133 272.562 102.841C274.203 103.53 275.881 104.351 277.536 105.33C279.119 106.273 280.667 107.396 282.223 108.565Z" fill="white"/>
<path d="M307.742 128.04L307.791 126.763C307.207 126.333 306.593 125.881 305.951 125.411C303.453 123.589 300.529 121.459 297.368 119.233C296.393 118.53 295.392 117.824 294.373 117.115C293.532 117.696 292.663 118.262 291.767 118.813L307.742 128.04ZM278.477 111.135C279.719 110.229 280.965 109.359 282.223 108.565C280.667 107.395 279.119 106.272 277.536 105.33C275.881 104.351 274.203 103.53 272.562 102.841C270.939 102.133 269.358 101.533 267.865 101.035C266.623 100.605 265.429 100.256 264.331 99.9663C264.228 100.878 263.958 101.738 263.551 102.516L278.477 111.135Z" fill="#DEF4F0"/>
<path d="M252.137 170.286H257.266V135.086C255.945 135.692 254.648 136.281 253.383 136.853L252.137 170.286ZM253.689 128.672C254.232 128.287 254.781 127.9 255.335 127.509C255.971 127.051 256.615 126.59 257.266 126.128V106.426C257.211 106.428 257.154 106.428 257.097 106.428C256.196 106.428 255.333 106.264 254.534 105.964L253.689 128.672Z" fill="#3F839E"/>
<path d="M200.205 131.749L250.688 102.595C250.262 101.804 249.979 100.924 249.869 99.9939C248.818 100.274 247.681 100.606 246.487 101.013C245 101.506 243.418 102.104 241.786 102.809C240.145 103.494 238.467 104.311 236.812 105.288C235.154 106.271 233.533 107.449 231.908 108.671C230.281 109.894 228.612 111.118 226.911 112.281C223.513 114.606 220.089 116.895 216.948 119.153C213.781 121.371 210.857 123.497 208.351 125.311C203.342 128.96 200.059 131.489 200.059 131.489L200.205 131.749Z" fill="#DEF4F0"/>
<path d="M249.823 99.1483C249.823 103.168 253.083 106.427 257.098 106.427C261.12 106.427 264.376 103.168 264.376 99.1483C264.376 95.1247 261.12 91.8672 257.098 91.8672C253.083 91.8672 249.823 95.1247 249.823 99.1483Z" fill="#6ABA2F"/>
<path d="M246.79 173.098H267.413V167.473H246.79V173.098Z" fill="#3B393D"/>
<path d="M257.097 104.316C259.954 104.316 262.266 102.001 262.266 99.1475C262.266 96.2935 259.954 93.9786 257.097 93.9786C254.246 93.9786 251.936 96.2935 251.936 99.1475C251.936 102.001 254.246 104.316 257.097 104.316Z" fill="#85C927"/>
<path d="M330.72 95.2841L326.845 199.319H340.814L336.934 95.2841H330.72Z" fill="#266185"/>
<path d="M333.407 98.6838C333.407 98.6838 331.778 98.7486 329.115 99.1966C327.79 99.4297 326.185 99.7196 324.422 100.184C322.649 100.63 320.678 101.189 318.591 101.907C316.494 102.606 314.273 103.453 311.981 104.449C309.673 105.419 307.316 106.571 304.984 107.951C302.658 109.336 300.384 110.996 298.103 112.723C295.815 114.45 293.475 116.175 291.086 117.812C286.31 121.096 281.506 124.321 277.092 127.508C272.645 130.639 268.539 133.635 265.014 136.197C257.984 141.344 253.367 144.911 253.367 144.911L254.025 146.048C254.025 146.048 259.421 143.835 267.39 140.316C271.372 138.544 276.018 136.483 280.95 134.195C285.919 131.965 291.116 129.411 296.344 126.92C298.958 125.667 301.621 124.506 304.257 123.387C306.895 122.27 309.47 121.131 311.835 119.809C314.19 118.477 316.368 117.014 318.36 115.5C320.368 114.012 322.21 112.51 323.865 111.044C325.531 109.593 327 108.166 328.274 106.853C329.555 105.557 330.607 104.309 331.474 103.279C333.192 101.203 334.063 99.8229 334.063 99.8229L333.407 98.6838Z" fill="#D5F0EB"/>
<path d="M333.496 99.8229C333.496 99.8229 334.369 101.203 336.092 103.279C336.953 104.309 338.004 105.557 339.291 106.853C340.564 108.166 342.033 109.593 343.698 111.044C345.352 112.51 347.198 114.012 349.202 115.5C351.198 117.014 353.37 118.477 355.73 119.809C358.093 121.131 360.668 122.27 363.305 123.387C365.945 124.506 368.605 125.667 371.219 126.92C376.449 129.411 381.647 131.965 386.611 134.195C391.541 136.483 396.191 138.544 400.169 140.316C408.144 143.835 413.536 146.048 413.536 146.048L414.193 144.911C414.193 144.911 409.581 141.344 402.544 136.197C399.026 133.635 394.919 130.639 390.471 127.508C386.06 124.321 381.249 121.096 376.473 117.812C374.084 116.175 371.746 114.45 369.458 112.723C367.173 110.996 364.899 109.336 362.575 107.951C360.243 106.571 357.886 105.419 355.584 104.449C353.289 103.453 351.066 102.606 348.975 101.907C346.888 101.189 344.91 100.63 343.139 100.184C341.374 99.7196 339.769 99.4297 338.446 99.1966C335.788 98.7486 334.156 98.6838 334.156 98.6838L333.496 99.8229Z" fill="#D5F0EB"/>
<path d="M334.58 99.2507C334.58 99.2507 335.333 97.8055 336.266 95.2738C336.728 94.0089 337.275 92.4745 337.755 90.711C338.251 88.9516 338.752 86.9632 339.165 84.7943C339.605 82.6274 339.976 80.2802 340.255 77.7971C340.567 75.314 340.738 72.6951 340.709 69.987C340.661 67.279 340.355 64.4798 339.998 61.6359C339.643 58.7941 339.311 55.9056 339.078 53.0171C338.618 47.2382 338.215 41.4592 337.656 36.0451C337.159 30.629 336.602 25.5737 336.142 21.242C335.183 12.5786 334.391 6.80174 334.391 6.80174H333.078C333.078 6.80174 332.306 12.5827 331.382 21.2522C330.94 25.5838 330.41 30.6431 329.933 36.0613C329.394 41.4794 329.013 47.2584 328.576 53.0353C328.355 55.9279 328.037 58.8184 327.69 61.6622C327.346 64.5041 327.048 67.3033 327.018 70.0134C326.995 72.7214 327.182 75.3403 327.5 77.8213C327.79 80.3044 328.173 82.6517 328.618 84.8165C329.046 86.9834 329.554 88.9699 330.055 90.7273C330.537 92.4867 331.098 94.0211 331.56 95.2839C332.501 97.8096 333.265 99.2507 333.265 99.2507H334.58Z" fill="#D5F0EB"/>
<path d="M329.806 89.835C330.945 89.3485 332.189 89.0627 333.496 89.0201V6.80335H333.079C333.079 6.80335 332.307 12.5843 331.383 21.2538C330.941 25.5855 330.41 30.6447 329.934 36.0629C329.395 41.481 329.014 47.26 328.576 53.037C328.355 55.9295 328.037 58.82 327.691 61.6638C327.346 64.5057 327.048 67.3049 327.018 70.015C327.016 70.163 327.016 70.311 327.016 70.459C327.016 73.011 327.2 75.4777 327.5 77.823C327.79 80.306 328.173 82.6533 328.619 84.8182C328.975 86.6262 329.389 88.3066 329.806 89.835Z" fill="#DEF4F0"/>
<path d="M392.343 145.113L392.55 144.746C392.55 144.746 387.93 141.187 380.887 136.056C377.361 133.504 373.247 130.513 368.79 127.393C364.374 124.215 359.56 121 354.776 117.728C352.387 116.091 350.04 114.37 347.755 112.653C345.463 110.928 343.185 109.274 340.855 107.889C338.523 106.517 336.166 105.368 333.854 104.405C331.563 103.414 329.338 102.575 327.243 101.875C325.476 101.273 323.794 100.785 322.246 100.379C322.244 100.39 322.244 100.398 322.242 100.408C323.784 100.813 325.461 101.304 327.216 101.908C329.307 102.607 331.53 103.454 333.826 104.45C336.128 105.421 338.484 106.572 340.817 107.952C343.141 109.337 345.414 110.997 347.7 112.724C349.988 114.451 352.326 116.176 354.715 117.813C359.491 121.097 364.301 124.322 368.713 127.509C373.16 130.64 377.268 133.636 380.785 136.198C387.823 141.345 392.434 144.912 392.434 144.912L392.325 145.103L392.343 145.113Z" fill="white"/>
<path d="M414.083 145.101L414.193 144.911C414.193 144.911 409.581 141.343 402.544 136.197C399.026 133.634 394.919 130.639 390.471 127.507C386.06 124.32 381.249 121.095 376.473 117.812C374.084 116.174 371.746 114.449 369.458 112.722C367.173 110.995 364.899 109.335 362.575 107.95C360.243 106.57 357.886 105.419 355.584 104.448C353.289 103.453 351.066 102.605 348.975 101.906C347.22 101.302 345.542 100.811 344 100.406C343.856 101.687 343.477 102.897 342.904 103.992L414.083 145.101Z" fill="#DEF4F0"/>
<path d="M326.846 199.319H334.063V109.489C333.984 109.491 333.907 109.493 333.828 109.493C332.558 109.493 331.338 109.26 330.215 108.837L326.846 199.319Z" fill="#3F839E"/>
<path d="M253.802 145.113L324.809 104.101C324.211 102.988 323.812 101.754 323.66 100.44C322.175 100.834 320.576 101.304 318.901 101.875C316.803 102.575 314.576 103.414 312.287 104.405C309.979 105.368 307.616 106.517 305.286 107.889C302.958 109.274 300.68 110.928 298.393 112.653C296.099 114.37 293.76 116.091 291.361 117.728C286.583 121 281.769 124.215 277.345 127.393C272.896 130.513 268.78 133.505 265.253 136.057C258.207 141.187 253.593 144.746 253.593 144.746L253.802 145.113Z" fill="#DEF4F0"/>
<path d="M323.593 99.2522C323.593 104.907 328.173 109.495 333.828 109.495C339.479 109.495 344.065 104.907 344.065 99.2522C344.065 93.5989 339.479 89.0159 333.828 89.0159C328.173 89.0159 323.593 93.5989 323.593 99.2522Z" fill="#6ABA2F"/>
<path d="M319.322 203.278H348.332V195.364H319.322V203.278Z" fill="#3B393D"/>
<path d="M333.828 106.522C337.842 106.522 341.096 103.267 341.096 99.2514C341.096 95.2379 337.842 91.9826 333.828 91.9826C329.818 91.9826 326.556 95.2379 326.556 99.2514C326.556 103.267 329.818 106.522 333.828 106.522Z" fill="#85C927"/>
<path d="M398.443 259.372H328.183V206.319H398.443V259.372Z" fill="#EEEDED"/>
<path d="M304.158 162.335H377.876L404.335 206.772H330.617L304.158 162.335Z" fill="#F39847"/>
<path d="M328.183 259.372H281.04V206.248L304.611 166.416L328.183 206.248V259.372Z" fill="#E3E3E2"/>
<path d="M304.385 170.794L325.852 206.772H330.902L304.385 162.335L277.867 206.772H282.917L304.385 170.794Z" fill="#F7A34B"/>
<path d="M404.335 263H276.961V259.372H404.335V263Z" fill="#732C18"/>
<path d="M373.965 247.129H360.82V222.643H373.965V247.129Z" fill="#929292"/>
<path d="M302.345 247.129H289.2V222.643H302.345V247.129Z" fill="#929292"/>
<path d="M320.023 247.129H307.331V222.643H320.023V247.129Z" fill="#929292"/>
<path d="M379.858 28.5672C379.858 36.332 373.567 42.6241 365.805 42.6241C358.043 42.6241 351.754 36.332 351.754 28.5672C351.754 20.8039 358.043 14.5104 365.805 14.5104C373.567 14.5104 379.858 20.8039 379.858 28.5672Z" fill="#F9DC06"/>
<path d="M366.258 11.8931C367.348 11.8931 368.407 12.0145 369.432 12.243L369.431 12.2402C367.72 9.29691 366.258 3.03778 366.258 -6.19888e-05C366.258 3.03778 364.797 9.29691 363.087 12.2402L363.086 12.243C364.111 12.0145 365.17 11.8931 366.258 11.8931Z" fill="#F9DC06"/>
<path d="M366.258 44.3604C365.17 44.3604 364.111 44.23 363.086 43.9845L363.087 43.9876C364.797 47.1489 366.258 53.8732 366.258 57.1345C366.258 53.8732 367.72 47.1489 369.431 43.9876L369.432 43.9845C368.407 44.23 367.348 44.3604 366.258 44.3604Z" fill="#F9DC06"/>
<path d="M350.031 28.5671C350.031 27.3246 350.158 26.1098 350.394 24.9395L350.392 24.9411C347.34 26.8956 340.851 28.5671 337.702 28.5671C340.851 28.5671 347.34 30.2387 350.392 32.1947H350.394C350.158 31.0245 350.031 29.8112 350.031 28.5671Z" fill="#F9DC06"/>
<path d="M354.624 17.1659C355.421 16.3018 356.283 15.5525 357.193 14.9119H357.19C353.881 14.0402 348.436 10.4628 346.314 8.16201C348.436 10.4628 351.738 16.3607 352.542 19.9486V19.9517C353.133 18.9652 353.825 18.0315 354.624 17.1659Z" fill="#F9DC06"/>
<path d="M354.624 39.7542C353.825 38.9565 353.133 38.0933 352.542 37.1827V37.1855C351.738 40.4974 348.436 45.9416 346.314 48.0654C348.436 45.9416 353.879 42.6394 357.19 41.8348H357.193C356.283 41.2435 355.421 40.5518 354.624 39.7542Z" fill="#F9DC06"/>
<path d="M249.668 231.88C245.251 228.34 241.499 223.829 242.983 219.353C244.299 215.383 255.027 192.337 255.989 190.272L257.946 191.478C255.891 195.886 246.132 216.934 245.616 219.35C244.514 224.485 253.919 231.008 260.703 233.035L257.742 240.802C256.989 240.577 253.901 235.273 249.668 231.88Z" fill="#732C18"/>
<path d="M267.225 231.88C271.641 228.34 275.392 223.829 273.908 219.353C272.594 215.383 261.866 192.337 260.902 190.272L258.946 191.478C261 195.886 270.758 216.934 271.276 219.35C272.376 224.484 262.974 231.008 256.186 233.035L259.152 240.802C259.902 240.577 262.99 235.273 267.225 231.88Z" fill="#732C18"/>
<path d="M295.045 195.531C294.96 187.739 290.593 181.185 284.524 178.701C284.898 177.255 285.165 175.755 285.165 174.174C285.165 165.387 278.958 158.266 271.3 158.266C269.269 158.266 267.353 158.793 265.613 159.698C261.809 155.975 256.886 153.719 251.498 153.719C242.294 153.719 234.441 160.275 231.249 169.533C223.54 171.612 217.831 178.994 217.831 187.806C217.831 191.302 218.744 194.565 220.311 197.373C216.93 200.282 214.86 204.078 214.86 208.253C214.86 218.806 224.605 224.725 236.618 224.725H281.229C293.242 224.725 300.985 217.35 300.985 208.253C300.985 203.128 299.893 198.551 295.045 195.531Z" fill="#7AB37F"/>
<path d="M281.229 224.725H258.893V155.217C261.372 156.248 263.645 157.772 265.613 159.698C267.354 158.793 269.269 158.266 271.301 158.266C278.958 158.266 285.165 165.387 285.165 174.174C285.165 175.755 284.898 177.255 284.525 178.701C290.593 181.185 294.96 187.739 295.045 195.531C299.893 198.551 300.985 203.128 300.985 208.253C300.985 217.35 293.242 224.725 281.229 224.725ZM283.824 216.129C282.995 216.129 282.323 216.801 282.323 217.63C282.323 218.46 282.995 219.129 283.824 219.129C284.652 219.129 285.324 218.46 285.324 217.63C285.324 216.801 284.652 216.129 283.824 216.129ZM266.326 205.688C265.497 205.688 264.825 206.361 264.825 207.189C264.825 208.021 265.497 208.69 266.326 208.69C267.152 208.69 267.825 208.021 267.825 207.189C267.825 206.361 267.152 205.688 266.326 205.688ZM295.665 200.686C294.835 200.686 294.162 201.358 294.162 202.187C294.162 203.019 294.835 203.688 295.665 203.688C296.49 203.688 297.162 203.019 297.162 202.187C297.162 201.358 296.49 200.686 295.665 200.686ZM278.762 193.402C277.934 193.402 277.261 194.075 277.261 194.903C277.261 195.734 277.934 196.403 278.762 196.403C279.59 196.403 280.263 195.734 280.263 194.903C280.263 194.075 279.59 193.402 278.762 193.402ZM284.57 181.436C283.743 181.436 283.071 182.109 283.071 182.936C283.071 183.766 283.743 184.437 284.57 184.437C285.398 184.437 286.07 183.766 286.07 182.936C286.07 182.109 285.398 181.436 284.57 181.436ZM262.826 180.814C261.998 180.814 261.325 181.486 261.325 182.315C261.325 183.145 261.998 183.816 262.826 183.816C263.653 183.816 264.325 183.145 264.325 182.315C264.325 181.486 263.653 180.814 262.826 180.814ZM275.326 165.67C274.5 165.67 273.827 166.343 273.827 167.171C273.827 168.002 274.5 168.672 275.326 168.672C276.156 168.672 276.829 168.002 276.829 167.171C276.829 166.343 276.156 165.67 275.326 165.67Z" fill="#7AB37F"/>
<path d="M309.784 260.516H263.273V224.192H309.784V260.516Z" fill="#EEEDED"/>
<path d="M247.369 194.076H296.17L313.685 224.502H264.885L247.369 194.076Z" fill="#F39847"/>
<path d="M263.273 260.516H232.066V224.143L247.669 196.87L263.273 224.143V260.516Z" fill="#E3E3E2"/>
<path d="M247.52 199.868L261.731 224.502H265.074L247.52 194.076L229.966 224.502H233.309L247.52 199.868Z" fill="#F7A34B"/>
<path d="M313.677 263H229.365V259.372H313.677V263Z" fill="#732C18"/>
<path d="M246.169 252.134H237.467V235.368H246.169V252.134Z" fill="#929292"/>
<path d="M257.872 252.134H249.47V235.368H257.872V252.134Z" fill="#929292"/>
<g opacity="0.4">
<path d="M97.2179 130.949L94.6289 228.391H103.964L101.371 130.949H97.2179Z" fill="#266185"/>
<path d="M98.9891 127.535C98.9891 127.535 97.9339 127.577 96.2092 127.867C95.3508 128.018 94.3112 128.206 93.1693 128.506C92.0208 128.795 90.7438 129.157 89.3918 129.622C88.0333 130.075 86.5948 130.624 85.1103 131.269C83.6153 131.898 82.0888 132.643 80.578 133.538C79.0712 134.434 77.5985 135.51 76.1206 136.628C74.6387 137.747 73.1228 138.864 71.5753 139.925C68.4816 142.052 65.3695 144.141 62.5108 146.205C59.6297 148.234 56.9705 150.175 54.6867 151.834C50.1335 155.168 47.1422 157.479 47.1422 157.479L47.5688 158.216C47.5688 158.216 51.0641 156.782 56.2263 154.502C58.8055 153.355 61.8151 152.02 65.0099 150.537C68.2283 149.093 71.595 147.438 74.9813 145.825C76.6745 145.013 78.3992 144.261 80.1068 143.536C81.8158 142.813 83.484 142.075 85.0157 141.219C86.5409 140.356 87.9519 139.408 89.2422 138.427C90.5429 137.464 91.736 136.491 92.8084 135.541C93.8873 134.601 94.8388 133.677 95.6644 132.826C96.494 131.987 97.1752 131.178 97.737 130.511C98.85 129.167 99.4144 128.272 99.4144 128.272L98.9891 127.535Z" fill="#D5F0EB"/>
<path d="M99.0465 128.272C99.0465 128.272 99.6122 129.167 100.728 130.511C101.286 131.178 101.967 131.987 102.8 132.826C103.625 133.677 104.576 134.601 105.655 135.541C106.726 136.491 107.922 137.464 109.22 138.427C110.513 139.408 111.92 140.356 113.449 141.219C114.98 142.075 116.648 142.813 118.355 143.536C120.066 144.261 121.789 145.013 123.482 145.825C126.87 147.438 130.237 149.093 133.452 150.537C136.646 152.02 139.658 153.355 142.235 154.502C147.401 156.782 150.894 158.216 150.894 158.216L151.319 157.479C151.319 157.479 148.331 155.168 143.773 151.834C141.494 150.175 138.834 148.234 135.953 146.205C133.095 144.141 129.979 142.052 126.886 139.925C125.338 138.864 123.823 137.747 122.342 136.628C120.861 135.51 119.388 134.434 117.883 133.538C116.372 132.643 114.846 131.898 113.355 131.269C111.868 130.624 110.428 130.075 109.073 129.622C107.721 129.157 106.44 128.795 105.293 128.506C104.15 128.206 103.11 128.018 102.253 127.867C100.531 127.577 99.4744 127.535 99.4744 127.535L99.0465 128.272Z" fill="#D5F0EB"/>
<path d="M99.7484 127.902C99.7484 127.902 100.237 126.966 100.84 125.326C101.14 124.507 101.494 123.513 101.805 122.37C102.127 121.231 102.451 119.943 102.719 118.538C103.003 117.134 103.244 115.614 103.425 114.005C103.627 112.397 103.737 110.7 103.719 108.946C103.687 107.192 103.489 105.379 103.258 103.537C103.028 101.696 102.813 99.8248 102.662 97.9538C102.364 94.2104 102.103 90.4671 101.741 86.96C101.419 83.4517 101.058 80.177 100.76 77.3711C100.14 71.7593 99.6264 68.0173 99.6264 68.0173H98.7758C98.7758 68.0173 98.2757 71.762 97.6772 77.3777C97.3911 80.1836 97.0472 83.4608 96.7388 86.9705C96.3896 90.4801 96.1428 94.2235 95.8593 97.9656C95.7163 99.8393 95.5102 101.712 95.2857 103.554C95.0626 105.395 94.8697 107.208 94.85 108.963C94.8355 110.717 94.9563 112.414 95.1623 114.021C95.35 115.629 95.5981 117.15 95.8869 118.552C96.1638 119.956 96.4933 121.243 96.8175 122.381C97.1298 123.521 97.4934 124.515 97.7927 125.333C98.4017 126.969 98.8966 127.902 98.8966 127.902H99.7484Z" fill="#D5F0EB"/>
<path d="M96.6565 121.803C97.3941 121.488 98.2 121.303 99.0466 121.275V68.0186H98.7763C98.7763 68.0186 98.2762 71.7633 97.6777 77.3791C97.3915 80.1849 97.0477 83.4621 96.7392 86.9718C96.3901 90.4815 96.1433 94.2249 95.8598 97.9669C95.7167 99.8406 95.5106 101.713 95.2862 103.555C95.0631 105.396 94.8701 107.209 94.8504 108.965C94.8491 109.06 94.8491 109.156 94.8491 109.252C94.8491 110.905 94.9686 112.503 95.1628 114.022C95.3505 115.631 95.5986 117.151 95.8874 118.554C96.1184 119.725 96.3861 120.813 96.6565 121.803Z" fill="#DEF4F0"/>
<path d="M151.259 157.61L151.393 157.372C151.393 157.372 148.401 155.066 143.838 151.743C141.555 150.09 138.89 148.152 136.002 146.131C133.142 144.073 130.024 141.99 126.925 139.871C125.377 138.81 123.857 137.695 122.377 136.583C120.892 135.466 119.417 134.394 117.908 133.498C116.397 132.609 114.87 131.864 113.373 131.241C111.888 130.599 110.447 130.055 109.09 129.602C107.945 129.212 106.856 128.896 105.853 128.633C105.852 128.64 105.852 128.645 105.851 128.651C106.849 128.914 107.936 129.232 109.073 129.623C110.427 130.076 111.867 130.625 113.354 131.27C114.845 131.899 116.372 132.644 117.883 133.538C119.388 134.435 120.861 135.511 122.341 136.629C123.823 137.748 125.338 138.865 126.885 139.926C129.979 142.053 133.095 144.142 135.953 146.206C138.834 148.235 141.494 150.176 143.773 151.835C148.331 155.169 151.319 157.48 151.319 157.48L151.248 157.603L151.259 157.61Z" fill="white"/>
<path d="M151.248 157.603L151.319 157.479C151.319 157.479 148.331 155.168 143.773 151.835C141.494 150.175 138.834 148.234 135.953 146.206C133.095 144.142 129.979 142.053 126.886 139.926C125.338 138.865 123.823 137.747 122.342 136.629C120.861 135.51 119.388 134.435 117.883 133.538C116.372 132.644 114.846 131.898 113.355 131.269C111.868 130.624 110.428 130.076 109.073 129.623C107.936 129.231 106.85 128.914 105.851 128.651C105.758 129.481 105.512 130.265 105.141 130.974L151.248 157.603Z" fill="#DEF4F0"/>
<path d="M94.6288 228.391H99.4993V133.264C99.4459 133.266 99.394 133.268 99.3406 133.268C98.4833 133.268 97.6602 133.021 96.9027 132.573L94.6288 228.391Z" fill="#3F839E"/>
<path d="M47.4243 157.61L93.4199 131.044C93.0327 130.323 92.7742 129.523 92.6757 128.672C91.7136 128.927 90.678 129.232 89.5925 129.602C88.234 130.055 86.7915 130.599 85.3083 131.241C83.8133 131.864 82.2829 132.609 80.7735 133.498C79.2654 134.394 77.7901 135.466 76.3082 136.583C74.8224 137.695 73.3077 138.81 71.7536 139.871C68.6587 141.99 65.5401 144.073 62.6748 146.131C59.7924 148.152 57.1267 150.09 54.8415 151.743C50.2778 155.066 47.2891 157.372 47.2891 157.372L47.4243 157.61Z" fill="#DEF4F0"/>
<path d="M92.6322 127.903C92.6322 131.566 95.5985 134.538 99.2618 134.538C102.923 134.538 105.893 131.566 105.893 127.903C105.893 124.241 102.923 121.272 99.2618 121.272C95.5985 121.272 92.6322 124.241 92.6322 127.903Z" fill="#6ABA2F"/>
<path d="M89.8651 231.015H108.657V225.889H89.8651V231.015Z" fill="#3B393D"/>
<path d="M99.262 132.612C101.862 132.612 103.97 130.504 103.97 127.903C103.97 125.303 101.862 123.194 99.262 123.194C96.6644 123.194 94.5512 125.303 94.5512 127.903C94.5512 130.504 96.6644 132.612 99.262 132.612Z" fill="#85C927"/>
</g>
<g opacity="0.4">
<path d="M182.626 169.988L180.707 242.22H187.627L185.705 169.988H182.626Z" fill="#266185"/>
<path d="M183.939 167.457C183.939 167.457 183.157 167.488 181.879 167.703C181.242 167.815 180.472 167.954 179.625 168.177C178.774 168.391 177.827 168.66 176.825 169.004C175.818 169.34 174.752 169.747 173.651 170.225C172.543 170.691 171.412 171.244 170.292 171.907C169.175 172.572 168.083 173.369 166.987 174.198C165.889 175.027 164.765 175.855 163.618 176.642C161.325 178.219 159.018 179.767 156.899 181.297C154.763 182.801 152.792 184.24 151.099 185.47C147.724 187.941 145.506 189.654 145.506 189.654L145.823 190.2C145.823 190.2 148.414 189.137 152.24 187.448C154.152 186.597 156.383 185.607 158.751 184.508C161.137 183.438 163.633 182.211 166.143 181.015C167.398 180.413 168.677 179.856 169.942 179.318C171.209 178.782 172.446 178.235 173.581 177.601C174.712 176.961 175.758 176.258 176.714 175.531C177.678 174.817 178.563 174.096 179.358 173.392C180.158 172.695 180.863 172.01 181.475 171.379C182.09 170.757 182.595 170.158 183.011 169.663C183.836 168.667 184.255 168.004 184.255 168.004L183.939 167.457Z" fill="#D5F0EB"/>
<path d="M183.982 168.004C183.982 168.004 184.401 168.667 185.228 169.663C185.642 170.158 186.147 170.757 186.765 171.379C187.376 172.01 188.081 172.695 188.881 173.392C189.675 174.096 190.561 174.817 191.523 175.531C192.482 176.258 193.525 176.961 194.658 177.601C195.793 178.235 197.029 178.782 198.295 179.318C199.563 179.856 200.841 180.413 202.096 181.015C204.607 182.211 207.103 183.438 209.486 184.508C211.854 185.607 214.087 186.597 215.996 187.448C219.826 189.137 222.415 190.2 222.415 190.2L222.73 189.654C222.73 189.654 220.516 187.941 217.137 185.47C215.448 184.24 213.475 182.801 211.34 181.297C209.222 179.767 206.912 178.219 204.619 176.642C203.471 175.855 202.349 175.027 201.25 174.198C200.153 173.369 199.061 172.572 197.945 171.907C196.825 171.244 195.694 170.691 194.588 170.225C193.486 169.747 192.419 169.34 191.414 169.004C190.412 168.66 189.463 168.391 188.612 168.177C187.765 167.954 186.994 167.815 186.359 167.703C185.082 167.488 184.299 167.457 184.299 167.457L183.982 168.004Z" fill="#D5F0EB"/>
<path d="M184.502 167.729C184.502 167.729 184.864 167.035 185.312 165.82C185.534 165.212 185.796 164.476 186.027 163.629C186.265 162.784 186.506 161.829 186.704 160.788C186.915 159.747 187.093 158.62 187.227 157.428C187.377 156.236 187.459 154.978 187.445 153.678C187.422 152.377 187.275 151.033 187.104 149.668C186.934 148.303 186.774 146.916 186.662 145.529C186.441 142.754 186.248 139.98 185.979 137.38C185.741 134.779 185.473 132.352 185.252 130.272C184.792 126.112 184.412 123.338 184.412 123.338H183.781C183.781 123.338 183.411 126.114 182.967 130.277C182.755 132.357 182.5 134.786 182.271 137.388C182.012 139.989 181.829 142.764 181.619 145.538C181.513 146.927 181.36 148.315 181.194 149.68C181.029 151.045 180.886 152.389 180.871 153.69C180.86 154.991 180.95 156.248 181.103 157.44C181.242 158.632 181.426 159.759 181.64 160.798C181.845 161.839 182.089 162.793 182.33 163.637C182.561 164.481 182.831 165.218 183.052 165.825C183.504 167.037 183.871 167.729 183.871 167.729H184.502Z" fill="#D5F0EB"/>
<path d="M182.21 163.208C182.757 162.975 183.354 162.838 183.982 162.817V123.339H183.782C183.782 123.339 183.411 126.115 182.967 130.278C182.755 132.358 182.5 134.787 182.272 137.389C182.013 139.99 181.83 142.765 181.62 145.539C181.514 146.928 181.361 148.316 181.195 149.681C181.029 151.046 180.886 152.39 180.872 153.691C180.871 153.762 180.871 153.834 180.871 153.905C180.871 155.13 180.959 156.314 181.103 157.441C181.242 158.633 181.426 159.76 181.64 160.799C181.811 161.668 182.01 162.475 182.21 163.208Z" fill="#DEF4F0"/>
<path d="M222.686 189.751L222.786 189.575C222.786 189.575 220.567 187.866 217.185 185.402C215.492 184.177 213.517 182.74 211.377 181.242C209.257 179.716 206.945 178.173 204.648 176.602C203.5 175.815 202.374 174.989 201.276 174.164C200.176 173.336 199.082 172.542 197.963 171.877C196.843 171.218 195.712 170.666 194.602 170.204C193.501 169.728 192.433 169.325 191.427 168.989C190.578 168.7 189.771 168.466 189.028 168.271C189.027 168.276 189.027 168.28 189.026 168.285C189.766 168.479 190.572 168.715 191.414 169.005C192.418 169.341 193.486 169.748 194.588 170.226C195.693 170.692 196.825 171.245 197.945 171.907C199.061 172.572 200.152 173.369 201.25 174.199C202.348 175.028 203.471 175.856 204.618 176.642C206.912 178.219 209.222 179.768 211.34 181.298C213.475 182.802 215.448 184.24 217.137 185.47C220.516 187.942 222.73 189.655 222.73 189.655L222.678 189.746L222.686 189.751Z" fill="white"/>
<path d="M222.678 189.746L222.73 189.654C222.73 189.654 220.516 187.941 217.137 185.47C215.448 184.24 213.475 182.801 211.34 181.297C209.222 179.767 206.912 178.219 204.619 176.642C203.471 175.856 202.349 175.027 201.25 174.198C200.153 173.369 199.061 172.572 197.945 171.907C196.825 171.244 195.694 170.691 194.588 170.225C193.486 169.747 192.419 169.34 191.414 169.005C190.572 168.715 189.766 168.479 189.026 168.284C188.957 168.899 188.775 169.481 188.499 170.006L222.678 189.746Z" fill="#DEF4F0"/>
<path d="M180.707 242.22H184.318V171.704C184.278 171.705 184.24 171.707 184.2 171.707C183.564 171.707 182.954 171.524 182.393 171.191L180.707 242.22Z" fill="#3F839E"/>
<path d="M145.715 189.751L179.811 170.058C179.524 169.524 179.332 168.931 179.259 168.3C178.546 168.489 177.779 168.715 176.974 168.989C175.967 169.325 174.898 169.728 173.798 170.204C172.69 170.666 171.555 171.218 170.437 171.877C169.319 172.542 168.225 173.336 167.127 174.164C166.025 174.989 164.902 175.815 163.75 176.602C161.456 178.173 159.144 179.716 157.02 181.242C154.884 182.74 152.908 184.177 151.214 185.402C147.831 187.866 145.615 189.575 145.615 189.575L145.715 189.751Z" fill="#DEF4F0"/>
<path d="M179.227 167.73C179.227 170.446 181.426 172.648 184.142 172.648C186.855 172.648 189.057 170.446 189.057 167.73C189.057 165.016 186.855 162.815 184.142 162.815C181.426 162.815 179.227 165.016 179.227 167.73Z" fill="#6ABA2F"/>
<path d="M177.176 244.165H191.106V240.365H177.176V244.165Z" fill="#3B393D"/>
<path d="M184.142 171.221C186.069 171.221 187.632 169.658 187.632 167.73C187.632 165.803 186.069 164.239 184.142 164.239C182.216 164.239 180.65 165.803 180.65 167.73C180.65 169.658 182.216 171.221 184.142 171.221Z" fill="#85C927"/>
</g>
<path d="M128.989 253.817H71.1667L75.3416 218.109H124.814L128.989 253.817Z" fill="#266185"/>
<path d="M99.6597 251.311H73.9812L74.6985 245.173V245.589H99.6597V251.311ZM99.6597 244.753H74.7479L75.4166 239.031V239.449H99.6597V244.753ZM99.6597 238.614H75.4659L76.1347 232.894V233.31H99.6597V238.614ZM99.6597 232.475H76.1833L76.8528 226.751V227.171H99.6597V232.475ZM99.6597 226.336H76.9013L77.5701 220.614H100.077H99.6597V226.336Z" fill="#3F839E"/>
<path d="M99.6598 251.311H100.495V220.615H99.6598V251.311Z" fill="#266185"/>
<path d="M108.359 251.328L107.162 220.631L107.996 220.599L109.194 251.295L108.359 251.328Z" fill="#266185"/>
<path d="M117.059 251.344L114.666 220.648L115.497 220.582L117.891 251.279L117.059 251.344Z" fill="#266185"/>
<path d="M91.797 251.328L90.9609 251.295L92.1584 220.598L92.9937 220.631L91.797 251.328Z" fill="#266185"/>
<path d="M83.0961 251.344L82.2641 251.279L84.6567 220.582L85.4886 220.648L83.0961 251.344Z" fill="#266185"/>
<path d="M76.8527 227.172H123.301V226.337H76.8527V227.172Z" fill="#266185"/>
<path d="M76.1346 233.311H124.02V232.476H76.1346V233.311Z" fill="#266185"/>
<path d="M75.4167 239.449H124.738V238.614H75.4167V239.449Z" fill="#266185"/>
<path d="M74.6987 245.59H125.456V244.755H74.6987V245.59Z" fill="#266185"/>
<path d="M95.5549 260.986H104.601V253.469H95.5549V260.986Z" fill="#3B393D"/>
<path d="M92.9794 262.797H107.176V259.177H92.9794V262.797Z" fill="#49494A"/>
<path d="M128.989 253.817H104.601V253.468H100.077V251.311H100.495H108.358L108.359 251.327L108.777 251.311H117.056L117.059 251.344L117.475 251.311H126.174L125.456 245.175V244.754H125.407L124.738 239.034V238.614H124.689L124.021 232.898V232.475H123.971L123.301 226.751V226.336H123.253L122.584 220.615H115.5L115.497 220.582L115.081 220.615H107.997L107.996 220.599L107.578 220.615H100.077V218.109H124.814L128.989 253.817Z" fill="#307393"/>
<path d="M126.174 251.311H117.475L117.891 251.278L117.447 245.589H125.456V245.175L126.174 251.311ZM117.056 251.311H108.777L109.194 251.294L108.971 245.589H116.611L117.056 251.311ZM108.358 251.311H100.495V245.589H108.135L108.358 251.311ZM125.407 244.753H117.382L116.968 239.449H124.738V239.033L125.407 244.753ZM116.545 244.753H108.938L108.731 239.449H116.132L116.545 244.753ZM108.102 244.753H100.495V239.449H107.896L108.102 244.753ZM124.689 238.614H116.904L116.49 233.31H124.021V232.898L124.689 238.614ZM116.066 238.614H108.699L108.492 233.31H115.653L116.066 238.614ZM107.863 238.614H100.495V233.31H107.656L107.863 238.614ZM123.971 232.475H116.425L116.011 227.171H123.301V226.75L123.971 232.475ZM115.588 232.475H108.46L108.252 227.171H115.174L115.588 232.475ZM107.623 232.475H100.495V227.171H107.417L107.623 232.475ZM123.253 226.336H115.946L115.5 220.614H122.584L123.253 226.336ZM115.109 226.336H108.22L107.997 220.614H115.081L114.666 220.647L115.109 226.336ZM107.384 226.336H100.495V220.614H100.077H107.578L107.162 220.63L107.384 226.336Z" fill="#4E90A7"/>
<path d="M100.495 251.311H100.077V245.589H100.495V251.311ZM100.495 244.753H100.077V239.449H100.495V244.753ZM100.495 238.614H100.077V233.31H100.495V238.614ZM100.495 232.475H100.077V227.171H100.495V232.475ZM100.495 226.336H100.077V220.614H100.495V226.336Z" fill="#307393"/>
<path d="M108.359 251.328L108.358 251.312L108.135 245.59H108.971L109.194 251.295L108.777 251.312L108.359 251.328ZM108.938 244.754H108.102L107.896 239.449H108.732L108.938 244.754ZM108.699 238.615H107.863L107.656 233.311H108.493L108.699 238.615ZM108.46 232.476H107.623L107.417 227.172H108.253L108.46 232.476ZM108.22 226.337H107.384L107.162 220.631L107.578 220.615L107.996 220.599L107.997 220.615L108.22 226.337Z" fill="#307393"/>
<path d="M117.059 251.344L117.056 251.312L116.611 245.59H117.447L117.891 251.279L117.475 251.312L117.059 251.344ZM117.382 244.754H116.545L116.132 239.449H116.968L117.382 244.754ZM116.904 238.615H116.066L115.653 233.311H116.49L116.904 238.615ZM116.425 232.476H115.588L115.175 227.172H116.011L116.425 232.476ZM115.946 226.336H115.109L114.666 220.648L115.081 220.615L115.497 220.582L115.5 220.615L115.946 226.336Z" fill="#307393"/>
<path d="M123.301 227.172H100.077V226.337H123.301V226.751V227.172Z" fill="#307393"/>
<path d="M124.021 233.311H100.077V232.475H124.021V232.898V233.311Z" fill="#307393"/>
<path d="M124.738 239.449H100.077V238.615H124.738V239.034V239.449Z" fill="#307393"/>
<path d="M125.456 245.59H100.077V244.754H125.456V245.176V245.59Z" fill="#307393"/>
<path d="M104.601 259.177H100.077V253.469H104.601V253.818V259.177Z" fill="#4C4C50"/>
<path d="M107.175 262.797H100.077V259.177H107.175V262.797Z" fill="#5A5B5D"/>
<path d="M70.4593 252.798H4.98621L9.71351 213.121H65.732L70.4593 252.798Z" fill="#266185"/>
<path d="M37.2495 250.013H8.17316L8.98539 243.193V243.656H37.2495V250.013ZM37.2495 242.727H9.04127L9.79848 236.368V236.832H37.2495V242.727ZM37.2495 235.905H9.85436L10.6116 229.549V230.012H37.2495V235.905ZM37.2495 229.084H10.6666L11.4247 222.724V223.19H37.2495V229.084ZM37.2495 222.262H11.4797L12.2369 215.905H37.7222H37.2495V222.262Z" fill="#3F839E"/>
<path d="M37.2496 250.013H38.1954V215.905H37.2496V250.013Z" fill="#266185"/>
<path d="M47.0999 250.031L45.744 215.923L46.6889 215.888L48.0457 249.995L47.0999 250.031Z" fill="#266185"/>
<path d="M56.9514 250.05L54.2414 215.942L55.1826 215.869L57.8934 249.978L56.9514 250.05Z" fill="#266185"/>
<path d="M28.3464 250.031L27.3997 249.995L28.7556 215.887L29.7014 215.923L28.3464 250.031Z" fill="#266185"/>
<path d="M18.494 250.05L17.552 249.978L20.2612 215.869L21.2032 215.942L18.494 250.05Z" fill="#266185"/>
<path d="M11.4247 223.191H64.0189V222.263H11.4247V223.191Z" fill="#266185"/>
<path d="M10.6115 230.012H64.8334V229.084H10.6115V230.012Z" fill="#266185"/>
<path d="M9.79871 236.833H65.6464V235.906H9.79871V236.833Z" fill="#266185"/>
<path d="M8.9856 243.657H66.4593V242.728H8.9856V243.657Z" fill="#266185"/>
<path d="M32.6016 260.763H42.8442V252.41H32.6016V260.763Z" fill="#3B393D"/>
<path d="M29.6853 262.775H45.7598V258.754H29.6853V262.775Z" fill="#49494A"/>
<path d="M70.4592 252.798H42.844V252.41H37.7222V250.013H38.195H47.0986L47.0995 250.031L47.5731 250.013H56.9477L56.9512 250.05L57.4222 250.013H67.2722L66.4591 243.195V242.727H66.4032L65.646 236.371V235.906H65.5901L64.8337 229.554V229.084H64.7779L64.0189 222.723V222.263H63.9648L63.2067 215.905H55.1857L55.1823 215.869L54.7113 215.905H46.6895L46.6886 215.887L46.215 215.905H37.7222V213.121H65.7319L70.4592 252.798Z" fill="#307393"/>
<path d="M67.2722 250.013H57.4222L57.8932 249.977L57.3904 243.656H66.4591V243.195L67.2722 250.013ZM56.9477 250.013H47.5731L48.0449 249.995L47.7922 243.656H56.4432L56.9477 250.013ZM47.0986 250.013H38.195V243.656H46.8459L47.0986 250.013ZM66.4032 242.727H57.3165L56.848 236.832H65.646V236.371L66.4032 242.727ZM56.3693 242.727H47.7553L47.5215 236.832H55.9009L56.3693 242.727ZM46.809 242.727H38.195V236.832H46.5752L46.809 242.727ZM65.5901 235.905H56.775L56.3065 230.012H64.8337V229.554L65.5901 235.905ZM55.8269 235.905H47.4845L47.2507 230.012H55.3585L55.8269 235.905ZM46.5382 235.905H38.195V230.012H46.3036L46.5382 235.905ZM64.7779 229.084H56.2326L55.7642 223.19H64.0189V222.723L64.7779 229.084ZM55.2854 229.084H47.2138L46.9791 223.19H54.817L55.2854 229.084ZM46.2666 229.084H38.195V223.19H46.0328L46.2666 229.084ZM63.9648 222.262H55.6903L55.1857 215.905H63.2067L63.9648 222.262ZM54.7431 222.262H46.9422L46.6895 215.905H54.7113L54.2411 215.941L54.7431 222.262ZM45.9959 222.262H38.195V215.905H37.7222H46.215L45.744 215.923L45.9959 222.262Z" fill="#4E90A7"/>
<path d="M38.1951 250.013H37.7222V243.656H38.1951V250.013ZM38.1951 242.727H37.7222V236.832H38.1951V242.727ZM38.1951 235.905H37.7222V230.012H38.1951V235.905ZM38.1951 229.084H37.7222V223.19H38.1951V229.084ZM38.1951 222.262H37.7222V215.905H38.1951V222.262Z" fill="#307393"/>
<path d="M47.0999 250.031L47.0991 250.014L46.8463 243.656H47.7929L48.0457 249.995L47.5737 250.014L47.0999 250.031ZM47.756 242.727H46.8093L46.5755 236.833H47.5221L47.756 242.727ZM47.4851 235.906H46.5385L46.3038 230.013H47.2513L47.4851 235.906ZM47.2143 229.084H46.2668L46.0329 223.191H46.9796L47.2143 229.084ZM46.9426 222.263H45.996L45.744 215.923L46.2152 215.906L46.6889 215.888L46.6898 215.906L46.9426 222.263Z" fill="#307393"/>
<path d="M56.9514 250.05L56.948 250.014L56.4435 243.656H57.3906L57.8934 249.978L57.4224 250.014L56.9514 250.05ZM57.3167 242.727H56.3695L55.9011 236.833H56.8483L57.3167 242.727ZM56.7752 235.906H55.8272L55.3588 230.013H56.3068L56.7752 235.906ZM56.2329 229.084H55.2857L54.8173 223.191H55.7644L56.2329 229.084ZM55.6905 222.263H54.7434L54.2414 215.942L54.7115 215.906L55.1826 215.869L55.186 215.906L55.6905 222.263Z" fill="#307393"/>
<path d="M64.0189 223.191H37.7222V222.263H64.0189V222.724V223.191Z" fill="#307393"/>
<path d="M64.8337 230.012H37.7222V229.084H64.8337V229.554V230.012Z" fill="#307393"/>
<path d="M65.646 236.833H37.7222V235.906H65.646V236.372V236.833Z" fill="#307393"/>
<path d="M66.4591 243.657H37.7222V242.728H66.4591V243.196V243.657Z" fill="#307393"/>
<path d="M42.844 258.753H37.7222V252.411H42.844V252.798V258.753Z" fill="#4C4C50"/>
<path d="M45.7595 262.775H37.7222V258.753H45.7595V262.775Z" fill="#5A5B5D"/>
<path d="M421.998 238.39C421.926 231.822 418.249 226.298 413.139 224.204C413.453 222.984 413.678 221.72 413.678 220.387C413.678 212.981 408.451 206.978 402.002 206.978C400.292 206.978 398.679 207.423 397.213 208.185C394.01 205.046 389.864 203.145 385.326 203.145C377.576 203.145 370.962 208.672 368.275 216.476C361.783 218.228 356.975 224.451 356.975 231.879C356.975 234.826 357.744 237.577 359.064 239.943C356.217 242.395 354.473 245.595 354.473 249.114C354.473 258.01 362.68 263 372.796 263H410.363C420.48 263 427 256.783 427 249.114C427 244.795 426.08 240.936 421.998 238.39Z" fill="#7AB37F"/>
</svg>
