<svg width="72" height="72" viewBox="0 0 72 72" fill="none" xmlns="http://www.w3.org/2000/svg">
<path fill-rule="evenodd" clip-rule="evenodd" d="M36.4261 10C30.6271 10 25.9261 14.701 25.9261 20.5C25.9261 22.8286 26.6831 24.9788 27.9656 26.72C30.394 24.7845 33.0579 24 36.4261 24C39.7414 24 42.5059 24.7594 44.9393 26.6476C46.1897 24.9194 46.9261 22.7965 46.9261 20.5C46.9261 14.701 42.225 10 36.4261 10ZM28.5998 28.985C28.7306 28.8658 28.8224 28.7199 28.8746 28.5631C30.9926 26.7471 33.277 26 36.4261 26C39.495 26 41.8645 26.7104 43.9392 28.4078C43.9742 28.6224 44.0791 28.8271 44.2523 28.985C44.6604 29.3571 45.2929 29.328 45.665 28.9199C47.1528 27.2882 48.2147 25.2596 48.6734 23.012C56.7793 27.3474 59.2723 31.7802 60.2323 35.5115C60.9896 38.4552 60.9984 41.5634 59.8675 44.2535C57.9915 48.7162 54.0949 52.1862 51.3379 54.1913C50.9911 54.4435 50.8437 54.8889 50.9716 55.2983L53.0659 62H48.9274C48.4497 61.3576 47.8324 60.5161 47.2658 59.7201C46.547 58.7103 45.9776 57.8669 45.8205 57.5528C45.5954 57.1026 45.0708 56.8899 44.5957 57.0561C36.8689 59.7606 29.7981 58.165 27.3269 57.0838C26.8905 56.8929 26.38 57.0363 26.1069 57.4265L22.9054 62H18.7471C19.0315 60.9796 19.3572 59.7833 19.6441 58.6758C19.8536 57.8673 20.0443 57.0988 20.1832 56.4777C20.2526 56.1678 20.3109 55.8866 20.3523 55.6514C20.3901 55.437 20.4261 55.1964 20.4261 55C20.4261 54.483 20.0338 54.0576 19.5306 54.0054C19.5122 53.9969 19.4835 53.9824 19.4434 53.9592C19.3121 53.883 19.1311 53.7551 18.9004 53.5676C18.4415 53.1948 17.8771 52.6618 17.2582 52.0429C16.6431 51.4278 15.9949 50.7489 15.369 50.0916L15.2612 49.9784L15.261 49.9782C14.6779 49.3659 14.1143 48.774 13.6332 48.2929C12.1202 46.7798 9.34195 44.862 7.59193 43.7963C7.19529 43.5548 6.9785 43.1386 7.00181 42.7422L7.32668 37.2195C7.35499 36.7383 7.72258 36.3457 8.20092 36.2859L10.5501 35.9923C10.919 35.9462 11.2319 35.6992 11.3624 35.3511C12.7053 31.7702 14.4555 29.4491 15.9074 27.5234C16.0154 27.3802 16.1217 27.2392 16.2261 27.1C16.3061 26.9934 16.3639 26.8718 16.3962 26.7425C16.8768 24.8205 16.3678 23.1999 15.556 21.9922C15.2603 21.5521 14.9231 21.164 14.5752 20.8296C16.1892 20.653 18.6455 21.1337 21.219 23.7071C21.5561 24.0442 22.0842 24.0965 22.4808 23.8321C22.9912 23.4918 23.6036 23.2001 24.1705 22.9717C24.6248 25.2353 25.6905 27.2785 27.1871 28.9199C27.5592 29.328 28.1917 29.3571 28.5998 28.985ZM23.933 20.9214C23.3575 21.1305 22.6934 21.4092 22.0641 21.7518C17.9616 18.0487 13.7484 18.4166 11.8714 19.668C11.5748 19.8657 11.4059 20.2064 11.428 20.5621C11.4502 20.9179 11.66 21.235 11.9789 21.3944C12.5154 21.6627 13.3233 22.2556 13.8961 23.1078C14.4236 23.8926 14.7428 24.8766 14.4987 26.0695L14.301 26.3317C12.9143 28.1694 11.1256 30.5398 9.70941 34.0818L7.95285 34.3014C6.51784 34.4808 5.41505 35.6584 5.33013 37.102L5.00526 42.6248C4.93462 43.8257 5.58168 44.9138 6.5517 45.5045C8.26506 46.5479 10.8784 48.3665 12.219 49.7071C12.682 50.1702 13.2297 50.7452 13.8199 51.3651L13.8199 51.3651L13.8202 51.3654L13.9207 51.4709C14.5448 52.1262 15.2091 52.8222 15.844 53.4571C16.4751 54.0882 17.0982 54.6802 17.6393 55.1199C17.8681 55.3058 18.099 55.4783 18.3224 55.6182C18.2963 55.7456 18.266 55.8869 18.2315 56.041C18.0996 56.6304 17.9153 57.3744 17.7081 58.1742C17.2941 59.7722 16.7964 61.5638 16.4646 62.7253C16.3784 63.027 16.4388 63.3517 16.6277 63.6022C16.8167 63.8527 17.1123 64 17.4261 64H23.4261C23.7524 64 24.0582 63.8408 24.2453 63.5735L27.2932 59.2194C30.4838 60.3643 37.1649 61.528 44.4822 59.2023C44.799 59.6908 45.2176 60.2916 45.6364 60.8799C46.3424 61.8717 47.1226 62.9286 47.6261 63.6C47.8149 63.8518 48.1113 64 48.4261 64H54.4261C54.7442 64 55.0434 63.8486 55.2318 63.5923C55.4202 63.336 55.4755 63.0054 55.3806 62.7017L53.0924 55.3794C55.9172 53.2378 59.7592 49.6721 61.7112 45.0286C62.3266 43.5648 62.6493 42.0219 62.7383 40.468C63.8975 40.3731 64.8509 40.0685 65.6064 39.5681C66.5453 38.9463 67.0918 38.0791 67.3612 37.1548C67.8795 35.3761 67.3861 33.3682 66.8452 32.1061C66.6277 31.5985 66.0398 31.3633 65.5322 31.5809C65.0245 31.7984 64.7894 32.3863 65.007 32.8939C65.4661 33.9652 65.7727 35.4573 65.441 36.5952C65.2854 37.1292 64.9944 37.5746 64.502 37.9007C64.1123 38.1588 63.5464 38.3748 62.7282 38.4605C62.6518 37.2911 62.4571 36.1322 62.1692 35.0132C61.0174 30.5363 57.9766 25.5449 48.9203 20.8831C48.9241 20.7558 48.9261 20.6281 48.9261 20.5C48.9261 13.5964 43.3296 8 36.4261 8C29.5225 8 23.9261 13.5964 23.9261 20.5C23.9261 20.641 23.9284 20.7815 23.933 20.9214Z" fill="white"/>
<circle cx="20" cy="35" r="2.5" stroke="white" stroke-width="2"/>
</svg>
