<svg width="768" height="502" viewBox="0 0 768 502" fill="none" xmlns="http://www.w3.org/2000/svg">
<line x1="-24" y1="501.752" x2="775.427" y2="501.752" stroke="#1D3E74" stroke-width="0.453448"/>
<path d="M739.177 501.113H79.9613C35.0959 435.572 28.9779 345.701 97.2957 308.958C196.203 255.83 137.573 244.906 166.123 203.198C252.285 114.32 288.483 219.583 360.37 167.945C488.848 60.1987 660.152 161.986 667.29 211.639C674.428 261.292 627.013 285.125 693.292 336.763C798.929 402.305 767.897 473.639 739.177 501.113Z" fill="#DBFEF2"/>
<path fill-rule="evenodd" clip-rule="evenodd" d="M253.066 243.633C251.744 243.916 250.372 244.066 248.965 244.066C247.319 244.066 245.721 243.861 244.194 243.477C244.202 243.673 244.206 243.869 244.206 244.065H229.498H214.79C214.79 242.133 215.17 240.22 215.91 238.435C216.649 236.65 217.732 235.028 219.098 233.662C220.464 232.295 222.085 231.212 223.87 230.472C225.654 229.733 227.567 229.352 229.498 229.352C229.695 229.352 229.891 229.356 230.087 229.364C229.703 227.837 229.498 226.239 229.498 224.592C229.498 213.838 238.214 205.119 248.965 205.119C258.591 205.119 266.585 212.108 268.153 221.29C269.942 220.897 271.777 220.698 273.623 220.698C276.804 220.698 279.954 221.291 282.893 222.443C285.832 223.596 288.503 225.285 290.752 227.415C293.002 229.545 294.786 232.073 296.004 234.856C297.221 237.638 297.848 240.621 297.848 243.633H273.623L253.066 243.633Z" fill="white"/>
<path d="M352.787 496.833H305.369V393.498C305.369 380.543 315.866 370.042 328.817 370.042H329.339C342.29 370.042 352.787 380.543 352.787 393.498V496.833Z" fill="#266185"/>
<path d="M352.788 496.833H328.817V407.638H352.788V496.833ZM352.788 401.251H328.817V370.042H329.34C342.288 370.042 352.788 380.543 352.788 393.498V401.251Z" fill="#377A99"/>
<path d="M235.157 499.182H232.03V450.704H245.187V453.832H235.157V499.182Z" fill="#49494A"/>
<path d="M240.953 499.182H237.828V459.175H245.187V462.302H240.953V499.182Z" fill="#49494A"/>
<path d="M390.435 497.823H387.308V421.982H376.494V418.854H390.435V497.823Z" fill="#49494A"/>
<path d="M320.919 428.421L295.709 445.817L270.496 428.421L245.188 445.883V499.182H346.209V445.883L320.919 428.421Z" fill="#6ABA2F"/>
<path d="M226.037 501.526H395.253V496.837H226.037V501.526Z" fill="#3B393D"/>
<path d="M255.74 438.604V428.422H251.831V441.301L255.74 438.604Z" fill="#49494A"/>
<path d="M379.621 496.833H359.04V361.963C359.04 356.781 363.24 352.58 368.42 352.58H370.242C375.421 352.58 379.621 356.781 379.621 361.963V496.833Z" fill="#49494A"/>
<path d="M375.996 354.552C375.993 354.55 375.991 354.548 375.987 354.546C375.991 354.548 375.993 354.55 375.996 354.552ZM375.987 354.546C374.4 353.313 372.406 352.579 370.242 352.579H370.243C372.408 352.579 374.4 353.313 375.987 354.546Z" fill="white"/>
<path d="M379.621 496.833H368.42V352.58H370.242C372.406 352.58 374.4 353.313 375.987 354.547C375.991 354.549 375.993 354.551 375.996 354.552C378.202 356.269 379.621 358.95 379.621 361.963V418.855V421.982V496.833Z" fill="#5A5B5D"/>
<path d="M355.881 390.565H302.277V387.438H355.881V390.565Z" fill="#6ABA2F"/>
<path d="M355.881 385.483H302.277V383.919H355.881V385.483Z" fill="#6ABA2F"/>
<path d="M355.881 417.931H302.277V414.804H355.881V417.931Z" fill="#6ABA2F"/>
<path d="M355.881 422.329H302.277V420.765H355.881V422.329Z" fill="#6ABA2F"/>
<path d="M382.846 366.621H355.817V363.493H382.846V366.621Z" fill="#6ABA2F"/>
<path d="M382.846 370.823H355.817V369.259H382.846V370.823Z" fill="#6ABA2F"/>
<path d="M382.846 397.504H355.817V394.376H382.846V397.504Z" fill="#6ABA2F"/>
<path d="M382.846 401.708H355.817V400.145H382.846V401.708Z" fill="#6ABA2F"/>
<path d="M382.846 427.9H355.817V424.773H382.846V427.9Z" fill="#6ABA2F"/>
<path d="M382.846 432.102H355.817V430.539H382.846V432.102Z" fill="#6ABA2F"/>
<path d="M382.846 442.268H355.817V439.139H382.846V442.268Z" fill="#6ABA2F"/>
<path d="M275.637 499.182H264.986V473.443H275.637V499.182Z" fill="#3B393D"/>
<path d="M293.876 492.109H283.713V481.945H293.876V492.109Z" fill="#D5F0EB"/>
<path d="M308.344 492.109H298.183V481.945H308.344V492.109Z" fill="#D5F0EB"/>
<path d="M322.815 492.109H312.655V481.945H322.815V492.109Z" fill="#D5F0EB"/>
<path d="M337.284 492.109H327.125V481.945H337.284V492.109Z" fill="#D5F0EB"/>
<path d="M293.876 478.396H283.713V468.232H293.876V478.396Z" fill="#D5F0EB"/>
<path d="M308.344 478.396H298.183V468.232H308.344V478.396Z" fill="#D5F0EB"/>
<path d="M322.815 478.396H312.655V468.232H322.815V478.396Z" fill="#D5F0EB"/>
<path d="M337.284 478.396H327.125V468.232H337.284V478.396Z" fill="#D5F0EB"/>
<path d="M332.206 462.693H339.239V447.055H332.206V462.693Z" fill="#D5F0EB"/>
<path d="M322.229 462.693H329.263V447.055H322.229V462.693Z" fill="#D5F0EB"/>
<path d="M312.252 462.693H319.288V447.055H312.252V462.693Z" fill="#D5F0EB"/>
<path d="M302.277 462.693H309.312V447.055H302.277V462.693Z" fill="#D5F0EB"/>
<path d="M281.76 462.693H288.794V447.055H281.76V462.693Z" fill="#D5F0EB"/>
<path d="M271.781 462.693H278.817V447.055H271.781V462.693Z" fill="#D5F0EB"/>
<path d="M261.808 462.693H268.842V447.055H261.808V462.693Z" fill="#D5F0EB"/>
<path d="M251.831 462.693H258.865V447.055H251.831V462.693Z" fill="#D5F0EB"/>
<path d="M258.473 490.058H252.222V469.729H258.473V490.058Z" fill="#D5F0EB"/>
<path d="M369.202 352.579H367.64V336.811H369.202V352.579Z" fill="#49494A"/>
<path d="M370.766 336.421C370.766 337.716 369.717 338.767 368.421 338.767C367.124 338.767 366.075 337.716 366.075 336.421C366.075 335.125 367.124 334.076 368.421 334.076C369.717 334.076 370.766 335.125 370.766 336.421Z" fill="#6ABA2F"/>
<path d="M305.369 407.639H328.817V401.251H305.369V407.639Z" fill="#3F839E"/>
<path d="M328.817 407.639H352.788V401.251H328.817V407.639Z" fill="#5595AB"/>
<path d="M295.708 445.816L298.433 443.936V399.067H305.369V395.939H295.307V445.538L295.708 445.816Z" fill="#3B393D"/>
<path fill-rule="evenodd" clip-rule="evenodd" d="M408.686 193.241C407.846 193.421 406.974 193.516 406.08 193.516C405.034 193.516 404.019 193.386 403.049 193.142C403.054 193.266 403.056 193.391 403.056 193.516H393.711H384.365C384.365 192.288 384.607 191.073 385.076 189.938C385.546 188.804 386.234 187.773 387.102 186.905C387.97 186.037 389 185.349 390.134 184.879C391.268 184.409 392.483 184.167 393.711 184.167C393.835 184.167 393.96 184.17 394.085 184.175C393.84 183.204 393.711 182.188 393.711 181.142C393.711 174.309 399.249 168.769 406.08 168.769C412.196 168.769 417.276 173.21 418.272 179.044C419.409 178.794 420.575 178.668 421.748 178.668C423.769 178.668 425.771 179.045 427.638 179.777C429.506 180.509 431.203 181.583 432.632 182.936C434.061 184.289 435.195 185.896 435.969 187.664C436.742 189.432 437.141 191.327 437.141 193.241H421.748L408.686 193.241Z" fill="white"/>
<path fill-rule="evenodd" clip-rule="evenodd" d="M508.829 168.863C507.548 169.138 506.219 169.283 504.856 169.283C503.261 169.283 501.713 169.085 500.234 168.712C500.242 168.902 500.246 169.093 500.246 169.283H485.997H471.749C471.749 167.411 472.117 165.558 472.833 163.829C473.549 162.099 474.599 160.528 475.922 159.204C477.245 157.881 478.816 156.831 480.545 156.115C482.273 155.398 484.126 155.03 485.997 155.03C486.188 155.03 486.378 155.033 486.568 155.041C486.195 153.562 485.998 152.013 485.998 150.418C485.998 139.999 494.441 131.553 504.856 131.553C514.181 131.553 521.925 138.324 523.444 147.218C525.177 146.838 526.955 146.645 528.742 146.645C531.824 146.645 534.876 147.219 537.723 148.336C540.57 149.453 543.158 151.089 545.337 153.152C547.516 155.216 549.245 157.665 550.424 160.361C551.603 163.056 552.21 165.946 552.21 168.863H528.742L508.829 168.863Z" fill="white"/>
<path d="M462.509 183.857L457.245 325.019H476.192L470.94 183.857H462.509Z" fill="#266185"/>
<path d="M466.148 188.464C466.148 188.464 463.936 188.553 460.327 189.161C458.533 189.482 456.352 189.869 453.958 190.499C451.552 191.107 448.872 191.865 446.045 192.84C443.198 193.791 440.189 194.937 437.064 196.287C433.939 197.602 430.753 199.169 427.581 201.038C424.429 202.918 421.351 205.174 418.245 207.514C415.139 209.859 411.964 212.196 408.719 214.42C402.249 218.877 395.721 223.253 389.726 227.574C383.701 231.822 378.124 235.889 373.351 239.367C363.798 246.35 357.545 251.186 357.545 251.186L358.43 252.733C358.43 252.733 365.752 249.731 376.569 244.953C381.968 242.551 388.276 239.757 394.974 236.651C401.708 233.625 408.754 230.159 415.859 226.777C419.409 225.079 423.014 223.508 426.595 221.984C430.169 220.467 433.669 218.92 436.871 217.125C440.073 215.322 443.028 213.341 445.732 211.283C448.454 209.263 450.956 207.224 453.203 205.236C455.458 203.27 457.454 201.332 459.175 199.552C460.919 197.792 462.35 196.097 463.522 194.701C465.85 191.88 467.034 190.008 467.034 190.008L466.148 188.464Z" fill="#D5F0EB"/>
<path d="M466.272 190.008C466.272 190.008 467.448 191.88 469.784 194.701C470.964 196.097 472.387 197.792 474.123 199.552C475.856 201.332 477.855 203.27 480.11 205.236C482.357 207.224 484.856 209.263 487.578 211.283C490.286 213.341 493.237 215.322 496.439 217.125C499.641 218.92 503.137 220.467 506.723 221.984C510.296 223.508 513.912 225.079 517.455 226.777C524.544 230.159 531.602 233.625 538.336 236.651C545.03 239.757 551.338 242.551 556.741 244.953C567.558 249.731 574.876 252.733 574.876 252.733L575.765 251.186C575.765 251.186 569.512 246.35 559.959 239.367C555.19 235.889 549.609 231.822 543.576 227.574C537.589 223.253 531.057 218.877 524.579 214.42C521.35 212.196 518.174 209.859 515.069 207.514C511.967 205.174 508.881 202.918 505.725 201.038C502.565 199.169 499.363 197.602 496.23 196.287C493.132 194.937 490.115 193.791 487.265 192.84C484.442 191.865 481.758 191.107 479.344 190.499C476.958 189.869 474.773 189.482 472.983 189.161C469.374 188.553 467.162 188.464 467.162 188.464L466.272 190.008Z" fill="#D5F0EB"/>
<path d="M467.737 189.243C467.737 189.243 468.766 187.278 470.034 183.846C470.649 182.128 471.392 180.047 472.042 177.656C472.718 175.265 473.399 172.568 473.96 169.628C474.555 166.688 475.066 163.496 475.441 160.13C475.863 156.756 476.091 153.205 476.048 149.529C475.994 145.854 475.58 142.059 475.097 138.201C474.61 134.344 474.157 130.425 473.852 126.506C473.217 118.668 472.664 110.825 471.91 103.482C471.233 96.1315 470.487 89.2721 469.853 83.3915C468.561 71.6341 467.482 63.7996 467.482 63.7996H465.695C465.695 63.7996 464.647 71.6418 463.405 83.407C462.806 89.2876 462.071 96.147 461.429 103.498C460.706 110.852 460.196 118.698 459.588 126.533C459.291 130.456 458.861 134.379 458.389 138.232C457.921 142.093 457.527 145.893 457.477 149.568C457.453 153.243 457.697 156.795 458.138 160.161C458.521 163.531 459.051 166.719 459.65 169.659C460.23 172.595 460.919 175.288 461.603 177.675C462.253 180.066 463.007 182.148 463.641 183.858C464.925 187.285 465.958 189.243 465.958 189.243H467.737Z" fill="#D5F0EB"/>
<path d="M461.264 176.458C462.811 175.797 464.501 175.406 466.272 175.352V63.7974H465.696C465.696 63.7974 464.648 71.6396 463.406 83.4047C462.807 89.2854 462.072 96.1447 461.43 103.496C460.707 110.85 460.197 118.696 459.589 126.531C459.292 130.454 458.862 134.377 458.39 138.23C457.922 142.091 457.528 145.89 457.478 149.566C457.474 149.74 457.474 149.91 457.474 150.084C457.478 153.574 457.721 156.951 458.139 160.159C458.522 163.528 459.052 166.716 459.651 169.657C460.135 172.106 460.695 174.385 461.264 176.458Z" fill="#DEF4F0"/>
<path d="M563.469 241.949L563.477 241.647C562.406 240.858 561.277 240.034 560.097 239.175C555.305 235.712 549.728 231.654 543.687 227.421C541.839 226.094 539.944 224.763 538.014 223.429C537.963 223.463 537.909 223.498 537.859 223.533C539.804 224.887 541.715 226.234 543.575 227.576C549.608 231.824 555.189 235.89 559.958 239.368C561.184 240.266 562.356 241.129 563.469 241.949ZM514.669 207.214C514.704 207.195 514.739 207.172 514.774 207.152C511.8 204.912 508.818 202.765 505.782 200.958C502.614 199.094 499.412 197.534 496.272 196.227C493.166 194.88 490.157 193.739 487.307 192.799C484.905 191.979 482.619 191.317 480.523 190.764C480.519 190.776 480.519 190.791 480.519 190.803C482.615 191.356 484.893 192.021 487.264 192.842C490.115 193.793 493.131 194.938 496.229 196.289C499.362 197.604 502.564 199.171 505.724 201.04C508.744 202.839 511.699 204.982 514.669 207.214Z" fill="white"/>
<path d="M563.377 244.386L563.47 241.948C562.356 241.128 561.184 240.266 559.958 239.368C555.19 235.89 549.609 231.824 543.575 227.576C541.715 226.233 539.805 224.887 537.859 223.533C536.254 224.643 534.595 225.722 532.886 226.775L563.377 244.386ZM507.519 212.12C509.889 210.39 512.268 208.731 514.67 207.214C511.7 204.982 508.745 202.838 505.724 201.039C502.564 199.171 499.362 197.604 496.229 196.288C493.132 194.938 490.115 193.793 487.264 192.841C484.894 192.021 482.616 191.355 480.52 190.802C480.322 192.543 479.808 194.184 479.031 195.669L507.519 212.12Z" fill="#DEF4F0"/>
<path d="M457.245 325.019H467.034V257.833C464.512 258.99 462.037 260.116 459.624 261.207L457.245 325.019ZM460.207 245.592C461.244 244.857 462.292 244.118 463.348 243.371C464.562 242.497 465.792 241.619 467.034 240.737V203.131C466.929 203.135 466.821 203.135 466.713 203.135C464.992 203.135 463.344 202.822 461.82 202.249L460.207 245.592Z" fill="#3F839E"/>
<path d="M358.124 251.464L454.479 195.819C453.667 194.31 453.126 192.631 452.917 190.855C450.909 191.389 448.74 192.023 446.462 192.801C443.623 193.741 440.603 194.882 437.489 196.228C434.357 197.536 431.154 199.095 427.994 200.96C424.831 202.836 421.737 205.084 418.635 207.417C415.53 209.75 412.343 212.087 409.098 214.308C402.612 218.745 396.076 223.113 390.081 227.423C384.036 231.656 378.456 235.714 373.671 239.177C364.111 246.141 357.846 250.969 357.846 250.969L358.124 251.464Z" fill="#DEF4F0"/>
<path d="M452.829 189.241C452.829 196.913 459.051 203.134 466.713 203.134C474.39 203.134 480.605 196.913 480.605 189.241C480.605 181.561 474.39 175.344 466.713 175.344C459.051 175.344 452.829 181.561 452.829 189.241Z" fill="#6ABA2F"/>
<path d="M447.038 330.387H486.402V319.651H447.038V330.387Z" fill="#3B393D"/>
<path d="M466.712 199.105C472.165 199.105 476.578 194.687 476.578 189.239C476.578 183.792 472.165 179.374 466.712 179.374C461.271 179.374 456.861 183.792 456.861 189.239C456.861 194.687 461.271 199.105 466.712 199.105Z" fill="#85C927"/>
<path d="M607.233 181.865L599.838 380.434H626.5L619.094 181.865H607.233Z" fill="#266185"/>
<path d="M612.362 188.354C612.362 188.354 609.253 188.478 604.171 189.333C601.641 189.778 598.578 190.331 595.213 191.217C591.829 192.068 588.066 193.136 584.083 194.506C580.08 195.84 575.841 197.458 571.467 199.357C567.062 201.21 562.564 203.408 558.112 206.043C553.673 208.685 549.333 211.854 544.978 215.15C540.612 218.446 536.145 221.738 531.585 224.864C522.47 231.132 513.3 237.287 504.876 243.369C496.387 249.347 488.552 255.065 481.822 259.955C468.406 269.778 459.592 276.587 459.592 276.587L460.849 278.758C460.849 278.758 471.148 274.533 486.359 267.816C493.958 264.435 502.827 260.5 512.24 256.133C521.723 251.877 531.643 247.002 541.622 242.247C546.611 239.856 551.692 237.639 556.724 235.504C561.76 233.372 566.675 231.198 571.189 228.675C575.683 226.133 579.84 223.34 583.642 220.45C587.475 217.61 590.99 214.744 594.15 211.946C597.329 209.176 600.133 206.453 602.566 203.946C605.01 201.473 607.017 199.09 608.672 197.125C611.952 193.163 613.615 190.528 613.615 190.528L612.362 188.354Z" fill="#D5F0EB"/>
<path d="M612.532 190.528C612.532 190.528 614.199 193.163 617.486 197.125C619.13 199.09 621.137 201.473 623.593 203.946C626.022 206.453 628.826 209.176 632.005 211.946C635.161 214.744 638.684 217.61 642.509 220.45C646.318 223.34 650.464 226.133 654.97 228.675C659.479 231.198 664.395 233.372 669.427 235.504C674.466 237.639 679.544 239.856 684.533 242.247C694.515 247.002 704.436 251.877 713.911 256.133C723.321 260.5 732.196 264.435 739.788 267.816C755.011 274.533 765.302 278.758 765.302 278.758L766.555 276.587C766.555 276.587 757.753 269.778 744.321 259.955C737.607 255.065 729.768 249.347 721.278 243.369C712.859 237.287 703.677 231.132 694.562 224.864C690.002 221.738 685.539 218.446 681.172 215.15C676.81 211.854 672.471 208.685 668.035 206.043C663.583 203.408 659.085 201.21 654.692 199.357C650.31 197.458 646.067 195.84 642.076 194.506C638.092 193.136 634.318 192.068 630.937 191.217C627.569 190.331 624.506 189.778 621.98 189.333C616.906 188.478 613.793 188.354 613.793 188.354L612.532 190.528Z" fill="#D5F0EB"/>
<path d="M614.601 189.436C614.601 189.436 616.039 186.678 617.819 181.846C618.7 179.432 619.744 176.503 620.661 173.137C621.609 169.779 622.564 165.984 623.353 161.844C624.192 157.708 624.9 153.228 625.434 148.489C626.029 143.749 626.354 138.751 626.3 133.582C626.207 128.413 625.623 123.07 624.942 117.642C624.266 112.218 623.631 106.705 623.187 101.192C622.309 90.1619 621.539 79.1318 620.472 68.7981C619.524 58.4605 618.46 48.8115 617.582 40.5438C615.753 24.0083 614.241 12.9822 614.241 12.9822H611.735C611.735 12.9822 610.261 24.0162 608.498 40.5633C607.655 48.831 606.641 58.4875 605.733 68.8289C604.704 79.1703 603.977 90.2005 603.141 101.227C602.72 106.748 602.112 112.265 601.451 117.693C600.794 123.117 600.225 128.459 600.167 133.632C600.125 138.801 600.48 143.799 601.088 148.535C601.641 153.274 602.372 157.754 603.222 161.886C604.039 166.022 605.009 169.814 605.964 173.168C606.885 176.526 607.956 179.455 608.838 181.865C610.633 186.686 612.091 189.436 612.091 189.436H614.601Z" fill="#D5F0EB"/>
<path d="M605.489 171.465C607.663 170.536 610.038 169.991 612.532 169.91V12.9853H611.736C611.736 12.9853 610.262 24.0193 608.498 40.5663C607.655 48.8341 606.642 58.4905 605.733 68.832C604.704 79.1734 603.977 90.2036 603.142 101.23C602.72 106.751 602.113 112.268 601.452 117.696C600.794 123.12 600.226 128.463 600.168 133.635C600.164 133.918 600.164 134.2 600.164 134.483C600.164 139.353 600.516 144.062 601.088 148.538C601.641 153.277 602.372 157.758 603.223 161.889C603.904 165.34 604.693 168.548 605.489 171.465Z" fill="#DEF4F0"/>
<path d="M724.851 276.972L725.246 276.272C725.246 276.272 716.428 269.478 702.985 259.686C696.255 254.815 688.404 249.105 679.895 243.151C671.468 237.084 662.279 230.948 653.148 224.704C648.588 221.578 644.109 218.293 639.747 215.016C635.373 211.724 631.026 208.567 626.578 205.925C622.127 203.305 617.629 201.112 613.216 199.274C608.842 197.382 604.595 195.781 600.596 194.446C597.224 193.297 594.014 192.364 591.059 191.591C591.055 191.61 591.055 191.625 591.051 191.645C593.994 192.419 597.197 193.355 600.546 194.508C604.537 195.842 608.78 197.46 613.162 199.359C617.555 201.212 622.053 203.41 626.505 206.045C630.941 208.687 635.28 211.856 639.642 215.152C644.009 218.448 648.472 221.74 653.032 224.866C662.147 231.134 671.329 237.289 679.749 243.371C688.238 249.349 696.077 255.067 702.791 259.957C716.223 269.78 725.025 276.589 725.025 276.589L724.817 276.953L724.851 276.972Z" fill="white"/>
<path d="M766.346 276.95L766.555 276.586C766.555 276.586 757.753 269.777 744.321 259.954C737.607 255.063 729.768 249.345 721.278 243.368C712.859 237.286 703.677 231.131 694.562 224.863C690.002 221.737 685.539 218.445 681.172 215.149C676.81 211.852 672.471 208.684 668.035 206.041C663.583 203.407 659.085 201.209 654.692 199.356C650.31 197.456 646.067 195.839 642.076 194.504C638.727 193.352 635.524 192.415 632.581 191.642C632.307 194.087 631.583 196.396 630.489 198.485L766.346 276.95Z" fill="#DEF4F0"/>
<path d="M599.839 380.434H613.615V208.978C613.464 208.982 613.317 208.986 613.166 208.986C610.741 208.986 608.413 208.541 606.271 207.732L599.839 380.434Z" fill="#3F839E"/>
<path d="M460.424 276.972L595.953 198.694C594.812 196.57 594.05 194.214 593.76 191.707C590.925 192.457 587.873 193.355 584.675 194.446C580.672 195.781 576.422 197.382 572.051 199.274C567.646 201.112 563.137 203.306 558.689 205.925C554.245 208.567 549.898 211.724 545.532 215.017C541.154 218.294 536.691 221.578 532.112 224.704C522.992 230.949 513.803 237.085 505.36 243.151C496.867 249.105 489.012 254.815 482.279 259.686C468.832 269.478 460.025 276.272 460.025 276.272L460.424 276.972Z" fill="#DEF4F0"/>
<path d="M593.631 189.439C593.631 200.233 602.372 208.988 613.166 208.988C623.952 208.988 632.705 200.233 632.705 189.439C632.705 178.649 623.952 169.901 613.166 169.901C602.372 169.901 593.631 178.649 593.631 189.439Z" fill="#6ABA2F"/>
<path d="M585.479 387.989H640.85V372.885H585.479V387.989Z" fill="#3B393D"/>
<path d="M613.166 203.315C620.828 203.315 627.039 197.102 627.039 189.438C627.039 181.777 620.828 175.564 613.166 175.564C605.513 175.564 599.286 181.777 599.286 189.438C599.286 197.102 605.513 203.315 613.166 203.315Z" fill="#85C927"/>
<path d="M736.494 495.055H602.391V393.794H736.494V495.055Z" fill="#EEEDED"/>
<path d="M556.536 309.842H697.24L747.741 394.659H607.038L556.536 309.842Z" fill="#F39847"/>
<path d="M602.391 495.055H512.412V393.659L557.402 317.632L602.391 393.659V495.055Z" fill="#E3E3E2"/>
<path d="M556.97 325.989L597.944 394.659H607.583L556.97 309.842L506.357 394.659H515.995L556.97 325.989Z" fill="#F7A34B"/>
<path d="M747.742 501.979H504.626V495.055H747.742V501.979Z" fill="#732C18"/>
<path d="M689.775 471.687H664.684V424.951H689.775V471.687Z" fill="#929292"/>
<path d="M724.382 471.687H701.022V424.951H724.382V471.687Z" fill="#929292"/>
<path d="M553.076 471.687H527.986V424.951H553.076V471.687Z" fill="#929292"/>
<path d="M586.818 471.687H562.593V424.951H586.818V471.687Z" fill="#929292"/>
<path d="M701.022 54.5252C701.022 69.3456 689.014 81.3552 674.2 81.3552C659.385 81.3552 647.381 69.3456 647.381 54.5252C647.381 39.7076 659.385 27.6953 674.2 27.6953C689.014 27.6953 701.022 39.7076 701.022 54.5252Z" fill="#F9DC06"/>
<path d="M675.066 22.6999C677.145 22.6999 679.167 22.9315 681.123 23.3678L681.121 23.3624C677.856 17.7446 675.066 5.79805 675.066 -0.00018692C675.066 5.79805 672.275 17.7446 669.013 23.3624L669.011 23.3678C670.966 22.9315 672.989 22.6999 675.066 22.6999Z" fill="#F9DC06"/>
<path d="M706.016 54.525C706.016 56.8994 705.784 59.2153 705.348 61.4489H705.353C710.969 57.7154 722.914 54.525 728.708 54.525C722.914 54.525 710.969 51.3346 705.353 47.6041L705.348 47.6012C705.784 49.8348 706.016 52.1534 706.016 54.525Z" fill="#F9DC06"/>
<path d="M675.066 84.6691C672.989 84.6691 670.966 84.4203 669.011 83.9517L669.013 83.9575C672.275 89.9914 675.066 102.826 675.066 109.051C675.066 102.826 677.856 89.9914 681.121 83.9575L681.123 83.9517C679.167 84.4203 677.145 84.6691 675.066 84.6691Z" fill="#F9DC06"/>
<path d="M644.093 54.525C644.093 52.1534 644.336 49.8348 644.786 47.6012L644.783 47.6041C638.956 51.3346 626.571 54.525 620.56 54.525C626.571 54.525 638.956 57.7154 644.783 61.4489H644.786C644.336 59.2153 644.093 56.8994 644.093 54.525Z" fill="#F9DC06"/>
<path d="M652.858 32.7639C654.381 31.1146 656.025 29.6844 657.763 28.4618H657.757C651.44 26.7981 641.049 19.97 636.998 15.5785C641.049 19.97 647.35 31.227 648.885 38.0752V38.081C650.014 36.1981 651.334 34.4161 652.858 32.7639Z" fill="#F9DC06"/>
<path d="M696.615 32.7639C698.201 34.4161 699.575 36.1981 700.751 38.081V38.0752C702.35 31.227 708.913 19.97 713.134 15.5785C708.913 19.97 698.093 26.7981 691.51 28.4618H691.504C693.317 29.6844 695.03 31.1146 696.615 32.7639Z" fill="#F9DC06"/>
<path d="M696.615 75.8773C695.03 77.3998 693.317 78.72 691.504 79.8485H691.51C698.093 81.3843 708.913 87.6871 713.134 91.7408C708.913 87.6871 702.35 77.296 700.751 70.9746V70.9692C699.575 72.7073 698.201 74.3549 696.615 75.8773Z" fill="#F9DC06"/>
<path d="M652.858 75.8773C651.334 74.3549 650.014 72.7073 648.885 70.9692V70.9746C647.35 77.296 641.049 87.6871 636.998 91.7408C641.049 87.6871 651.437 81.3843 657.757 79.8485H657.763C656.025 78.72 654.381 77.3998 652.858 75.8773Z" fill="#F9DC06"/>
<path d="M452.531 442.581C444.101 435.825 436.939 427.214 439.773 418.671C442.284 411.095 462.76 367.106 464.596 363.166L468.332 365.466C464.409 373.881 445.784 414.055 444.798 418.665C442.695 428.467 460.645 440.917 473.594 444.786L467.942 459.61C466.505 459.18 460.611 449.058 452.531 442.581Z" fill="#732C18"/>
<path d="M486.042 442.581C494.472 435.825 501.631 427.214 498.797 418.671C496.289 411.095 475.813 367.106 473.974 363.166L470.241 365.466C474.161 373.881 492.786 414.055 493.775 418.665C495.875 428.464 477.928 440.917 464.973 444.786L470.634 459.61C472.065 459.18 477.959 449.058 486.042 442.581Z" fill="#732C18"/>
<path d="M539.142 373.203C538.979 358.33 530.644 345.822 519.062 341.08C519.774 338.32 520.284 335.458 520.284 332.439C520.284 315.668 508.437 302.076 493.821 302.076C489.944 302.076 486.288 303.083 482.966 304.809C475.706 297.703 466.309 293.398 456.024 293.398C438.459 293.398 423.468 305.912 417.378 323.582C402.664 327.55 391.765 341.639 391.765 358.459C391.765 365.132 393.509 371.36 396.499 376.719C390.046 382.271 386.095 389.516 386.095 397.485C386.095 417.627 404.696 428.925 427.625 428.925H512.772C535.701 428.925 550.479 414.848 550.479 397.485C550.479 387.704 548.395 378.967 539.142 373.203Z" fill="#7AB37F"/>
<path d="M512.773 428.925H470.141V296.257C474.872 298.225 479.209 301.133 482.967 304.809C486.289 303.083 489.945 302.076 493.822 302.076C508.438 302.076 520.285 315.668 520.285 332.439C520.285 335.458 519.775 338.32 519.063 341.08C530.645 345.822 538.98 358.33 539.143 373.203C548.396 378.967 550.48 387.704 550.48 397.485C550.48 414.848 535.702 428.925 512.773 428.925ZM517.724 412.517C516.143 412.517 514.86 413.801 514.86 415.382C514.86 416.967 516.143 418.245 517.724 418.245C519.305 418.245 520.588 416.967 520.588 415.382C520.588 413.801 519.305 412.517 517.724 412.517ZM484.327 392.59C482.746 392.59 481.463 393.873 481.463 395.455C481.463 397.043 482.746 398.32 484.327 398.32C485.905 398.32 487.188 397.043 487.188 395.455C487.188 393.873 485.905 392.59 484.327 392.59ZM540.325 383.042C538.741 383.042 537.458 384.326 537.458 385.907C537.458 387.495 538.741 388.772 540.325 388.772C541.9 388.772 543.183 387.495 543.183 385.907C543.183 384.326 541.9 383.042 540.325 383.042ZM508.063 369.14C506.482 369.14 505.199 370.424 505.199 372.005C505.199 373.59 506.482 374.867 508.063 374.867C509.644 374.867 510.928 373.59 510.928 372.005C510.928 370.424 509.644 369.14 508.063 369.14ZM519.149 346.301C517.571 346.301 516.288 347.585 516.288 349.163C516.288 350.748 517.571 352.028 519.149 352.028C520.73 352.028 522.013 350.748 522.013 349.163C522.013 347.585 520.73 346.301 519.149 346.301ZM477.647 345.113C476.066 345.113 474.783 346.396 474.783 347.978C474.783 349.562 476.066 350.843 477.647 350.843C479.225 350.843 480.508 349.562 480.508 347.978C480.508 346.396 479.225 345.113 477.647 345.113ZM501.506 316.209C499.928 316.209 498.645 317.492 498.645 319.074C498.645 320.659 499.928 321.939 501.506 321.939C503.09 321.939 504.373 320.659 504.373 319.074C504.373 317.492 503.09 316.209 501.506 316.209Z" fill="#7AB37F"/>
<path d="M567.274 497.239H478.5V427.907H567.274V497.239Z" fill="#EEEDED"/>
<path d="M448.146 370.426H541.289L574.72 428.499H481.577L448.146 370.426Z" fill="#F39847"/>
<path d="M478.501 497.239H418.936V427.815L448.718 375.76L478.501 427.815V497.239Z" fill="#E3E3E2"/>
<path d="M448.433 381.481L475.557 428.499H481.938L448.433 370.426L414.928 428.499H421.309L448.433 381.481Z" fill="#F7A34B"/>
<path d="M574.705 501.979H413.782V495.055H574.705V501.979Z" fill="#732C18"/>
<path d="M445.855 481.239H429.246V449.24H445.855V481.239Z" fill="#929292"/>
<path d="M468.192 481.239H452.155V449.24H468.192V481.239Z" fill="#929292"/>
<g opacity="0.4">
<path d="M161.557 249.937L156.615 435.922H174.432L169.483 249.937H161.557Z" fill="#266185"/>
<path d="M164.937 243.421C164.937 243.421 162.923 243.501 159.631 244.055C157.993 244.343 156.009 244.701 153.829 245.275C151.637 245.827 149.2 246.518 146.619 247.406C144.027 248.27 141.281 249.318 138.447 250.548C135.594 251.749 132.68 253.172 129.797 254.879C126.921 256.59 124.11 258.643 121.289 260.778C118.461 262.913 115.567 265.046 112.614 267.071C106.709 271.131 100.769 275.118 95.3125 279.057C89.8136 282.929 84.738 286.633 80.379 289.801C71.6884 296.164 65.979 300.575 65.979 300.575L66.7932 301.981C66.7932 301.981 73.4646 299.244 83.3176 294.893C88.2403 292.703 93.9848 290.154 100.082 287.325C106.225 284.568 112.651 281.411 119.115 278.331C122.346 276.782 125.638 275.346 128.897 273.962C132.159 272.582 135.343 271.173 138.267 269.539C141.178 267.893 143.871 266.083 146.334 264.211C148.816 262.372 151.094 260.515 153.14 258.703C155.2 256.909 157.016 255.144 158.592 253.52C160.175 251.919 161.475 250.375 162.547 249.102C164.672 246.536 165.749 244.829 165.749 244.829L164.937 243.421Z" fill="#D5F0EB"/>
<path d="M165.047 244.829C165.047 244.829 166.127 246.536 168.256 249.102C169.321 250.375 170.621 251.919 172.212 253.52C173.785 255.144 175.601 256.909 177.661 258.703C179.705 260.515 181.987 262.372 184.465 264.211C186.932 266.083 189.618 267.893 192.537 269.539C195.458 271.173 198.642 272.582 201.901 273.962C205.165 275.346 208.455 276.782 211.687 278.331C218.153 281.411 224.578 284.568 230.716 287.325C236.811 290.154 242.561 292.703 247.479 294.893C257.339 299.244 264.005 301.981 264.005 301.981L264.817 300.575C264.817 300.575 259.115 296.164 250.415 289.801C246.066 286.633 240.988 282.929 235.489 279.057C230.035 275.118 224.087 271.131 218.183 267.071C215.229 265.046 212.338 262.913 209.509 260.778C206.684 258.643 203.873 256.59 200.999 254.879C198.116 253.172 195.202 251.749 192.356 250.548C189.518 249.318 186.77 248.27 184.184 247.406C181.604 246.518 179.159 245.827 176.969 245.275C174.787 244.701 172.803 244.343 171.167 244.055C167.88 243.501 165.864 243.421 165.864 243.421L165.047 244.829Z" fill="#D5F0EB"/>
<path d="M166.387 244.122C166.387 244.122 167.319 242.335 168.471 239.205C169.043 237.642 169.719 235.745 170.313 233.564C170.927 231.389 171.545 228.93 172.056 226.249C172.6 223.57 173.059 220.668 173.404 217.598C173.79 214.528 174 211.29 173.965 207.942C173.905 204.594 173.527 201.133 173.086 197.617C172.648 194.103 172.237 190.532 171.949 186.961C171.38 179.816 170.881 172.671 170.19 165.978C169.576 159.281 168.887 153.031 168.319 147.676C167.134 136.965 166.154 129.822 166.154 129.822H164.531C164.531 129.822 163.576 136.97 162.434 147.688C161.888 153.044 161.231 159.299 160.643 165.998C159.976 172.696 159.505 179.841 158.964 186.984C158.691 190.56 158.298 194.133 157.869 197.649C157.443 201.163 157.075 204.624 157.038 207.974C157.01 211.323 157.241 214.56 157.634 217.628C157.992 220.698 158.466 223.6 159.017 226.276C159.545 228.955 160.174 231.411 160.793 233.584C161.389 235.76 162.083 237.657 162.654 239.218C163.817 242.341 164.761 244.122 164.761 244.122H166.387Z" fill="#D5F0EB"/>
<path d="M160.485 232.482C161.893 231.88 163.432 231.527 165.047 231.474V129.825H164.531C164.531 129.825 163.577 136.972 162.435 147.691C161.888 153.046 161.232 159.301 160.643 166C159.977 172.699 159.506 179.844 158.965 186.986C158.692 190.562 158.298 194.136 157.87 197.652C157.444 201.166 157.076 204.626 157.038 207.977C157.036 208.16 157.036 208.343 157.036 208.526C157.036 211.681 157.264 214.731 157.635 217.63C157.993 220.7 158.466 223.603 159.017 226.279C159.458 228.514 159.969 230.592 160.485 232.482Z" fill="#DEF4F0"/>
<path d="M264.704 300.824L264.96 300.371C264.96 300.371 259.248 295.97 250.54 289.627C246.181 286.472 241.095 282.773 235.583 278.916C230.125 274.986 224.172 271.012 218.258 266.967C215.304 264.942 212.403 262.814 209.577 260.692C206.743 258.559 203.928 256.514 201.047 254.802C198.163 253.106 195.25 251.685 192.391 250.494C189.558 249.269 186.807 248.231 184.217 247.367C182.032 246.623 179.953 246.019 178.039 245.517C178.036 245.53 178.036 245.54 178.034 245.553C179.94 246.054 182.014 246.66 184.184 247.407C186.769 248.272 189.518 249.319 192.356 250.55C195.202 251.75 198.116 253.173 200.999 254.88C203.873 256.592 206.683 258.644 209.509 260.779C212.338 262.915 215.229 265.047 218.182 267.072C224.087 271.132 230.034 275.119 235.488 279.059C240.987 282.931 246.065 286.635 250.414 289.802C259.115 296.165 264.817 300.576 264.817 300.576L264.682 300.812L264.704 300.824Z" fill="white"/>
<path d="M264.682 300.811L264.817 300.575C264.817 300.575 259.115 296.164 250.415 289.801C246.066 286.634 240.988 282.93 235.489 279.058C230.035 275.118 224.087 271.131 218.183 267.071C215.229 265.046 212.338 262.914 209.509 260.778C206.684 258.643 203.873 256.591 200.999 254.879C198.116 253.172 195.202 251.749 192.356 250.549C189.518 249.318 186.77 248.271 184.184 247.406C182.015 246.659 179.94 246.053 178.034 245.551C177.856 247.135 177.388 248.631 176.679 249.985L264.682 300.811Z" fill="#DEF4F0"/>
<path d="M156.615 435.922H165.911V254.356C165.81 254.36 165.71 254.364 165.609 254.364C163.972 254.364 162.401 253.893 160.955 253.037L156.615 435.922Z" fill="#3F839E"/>
<path d="M66.5172 300.824L154.307 250.119C153.568 248.743 153.075 247.217 152.887 245.593C151.051 246.079 149.074 246.66 147.002 247.367C144.409 248.231 141.656 249.269 138.825 250.494C135.972 251.685 133.051 253.106 130.17 254.802C127.291 256.514 124.475 258.559 121.647 260.692C118.811 262.814 115.92 264.942 112.954 266.967C107.046 271.012 101.094 274.986 95.6252 278.916C90.1238 282.773 85.0358 286.472 80.6742 289.627C71.9636 295.97 66.2592 300.371 66.2592 300.371L66.5172 300.824Z" fill="#DEF4F0"/>
<path d="M152.804 244.124C152.804 251.116 158.466 256.787 165.458 256.787C172.445 256.787 178.115 251.116 178.115 244.124C178.115 237.135 172.445 231.469 165.458 231.469C158.466 231.469 152.804 237.135 152.804 244.124Z" fill="#6ABA2F"/>
<path d="M147.523 440.931H183.39V431.147H147.523V440.931Z" fill="#3B393D"/>
<path d="M165.458 253.113C170.421 253.113 174.444 249.088 174.444 244.123C174.444 239.161 170.421 235.137 165.458 235.137C160.5 235.137 156.467 239.161 156.467 244.123C156.467 249.088 160.5 253.113 165.458 253.113Z" fill="#85C927"/>
</g>
<g opacity="0.4">
<path d="M324.572 324.45L320.909 462.316H334.117L330.448 324.45H324.572Z" fill="#266185"/>
<path d="M327.079 319.619C327.079 319.619 325.586 319.679 323.146 320.089C321.931 320.303 320.461 320.568 318.845 320.994C317.22 321.403 315.413 321.915 313.5 322.573C311.578 323.214 309.543 323.99 307.443 324.902C305.327 325.792 303.168 326.847 301.03 328.113C298.898 329.381 296.815 330.903 294.723 332.486C292.627 334.068 290.482 335.649 288.292 337.15C283.915 340.16 279.512 343.115 275.468 346.036C271.391 348.906 267.629 351.652 264.398 354C257.955 358.717 253.723 361.986 253.723 361.986L254.327 363.028C254.327 363.028 259.272 361 266.576 357.775C270.225 356.151 274.483 354.262 279.003 352.164C283.557 350.121 288.32 347.78 293.112 345.497C295.507 344.349 297.947 343.284 300.363 342.259C302.781 341.235 305.142 340.191 307.309 338.98C309.467 337.76 311.463 336.418 313.289 335.031C315.129 333.667 316.817 332.291 318.334 330.947C319.861 329.617 321.207 328.31 322.375 327.106C323.549 325.919 324.513 324.774 325.308 323.831C326.882 321.928 327.681 320.663 327.681 320.663L327.079 319.619Z" fill="#D5F0EB"/>
<path d="M327.16 320.663C327.16 320.663 327.961 321.928 329.539 323.831C330.328 324.774 331.292 325.919 332.471 327.106C333.638 328.31 334.984 329.617 336.511 330.947C338.026 332.291 339.718 333.667 341.554 335.031C343.384 336.418 345.374 337.76 347.538 338.98C349.703 340.191 352.063 341.235 354.48 342.259C356.899 343.284 359.338 344.349 361.733 345.497C366.526 347.78 371.29 350.121 375.84 352.164C380.358 354.262 384.62 356.151 388.265 357.775C395.575 361 400.516 363.028 400.516 363.028L401.118 361.986C401.118 361.986 396.891 358.717 390.442 354C387.218 351.652 383.453 348.906 379.377 346.036C375.334 343.115 370.926 340.16 366.549 337.15C364.359 335.649 362.216 334.068 360.119 332.486C358.025 330.903 355.941 329.381 353.811 328.113C351.673 326.847 349.514 325.792 347.404 324.902C345.3 323.99 343.263 323.214 341.346 322.573C339.434 321.915 337.621 321.403 335.998 320.994C334.381 320.568 332.91 320.303 331.697 320.089C329.261 319.679 327.766 319.619 327.766 319.619L327.16 320.663Z" fill="#D5F0EB"/>
<path d="M328.153 320.139C328.153 320.139 328.844 318.815 329.698 316.494C330.121 315.335 330.623 313.929 331.063 312.313C331.518 310.7 331.976 308.878 332.355 306.89C332.758 304.904 333.098 302.753 333.354 300.477C333.64 298.202 333.796 295.801 333.77 293.319C333.726 290.838 333.445 288.272 333.119 285.666C332.794 283.061 332.489 280.414 332.275 277.767C331.854 272.47 331.484 267.174 330.972 262.212C330.517 257.248 330.006 252.615 329.585 248.645C328.706 240.705 327.98 235.411 327.98 235.411H326.777C326.777 235.411 326.069 240.709 325.222 248.655C324.817 252.624 324.331 257.261 323.895 262.227C323.401 267.193 323.051 272.489 322.65 277.783C322.448 280.434 322.156 283.084 321.839 285.69C321.523 288.294 321.25 290.86 321.222 293.344C321.202 295.826 321.373 298.226 321.664 300.5C321.93 302.775 322.281 304.926 322.689 306.911C323.081 308.896 323.547 310.717 324.006 312.328C324.448 313.94 324.962 315.346 325.386 316.504C326.247 318.818 326.948 320.139 326.948 320.139H328.153Z" fill="#D5F0EB"/>
<path d="M323.778 311.51C324.822 311.064 325.962 310.802 327.16 310.763V235.413H326.777C326.777 235.413 326.07 240.711 325.223 248.656C324.818 252.626 324.332 257.263 323.895 262.229C323.401 267.194 323.052 272.491 322.651 277.785C322.449 280.436 322.157 283.085 321.839 285.692C321.524 288.296 321.251 290.862 321.223 293.345C321.221 293.481 321.221 293.617 321.221 293.752C321.221 296.091 321.39 298.352 321.665 300.501C321.93 302.777 322.281 304.928 322.69 306.912C323.017 308.569 323.396 310.11 323.778 311.51Z" fill="#DEF4F0"/>
<path d="M401.034 362.171L401.223 361.835C401.223 361.835 396.989 358.573 390.534 353.871C387.303 351.532 383.533 348.79 379.447 345.931C375.401 343.018 370.988 340.072 366.604 337.073C364.414 335.572 362.264 333.995 360.169 332.422C358.069 330.841 355.981 329.325 353.846 328.056C351.708 326.798 349.548 325.745 347.43 324.863C345.329 323.954 343.29 323.185 341.37 322.544C339.751 321.993 338.209 321.545 336.79 321.173C336.789 321.183 336.789 321.19 336.787 321.199C338.2 321.571 339.738 322.02 341.346 322.574C343.262 323.215 345.299 323.991 347.404 324.904C349.513 325.793 351.673 326.849 353.81 328.114C355.94 329.382 358.024 330.904 360.119 332.487C362.215 334.07 364.359 335.65 366.548 337.151C370.925 340.161 375.334 343.117 379.377 346.037C383.453 348.907 387.217 351.653 390.441 354.001C396.891 358.718 401.117 361.987 401.117 361.987L401.017 362.162L401.034 362.171Z" fill="white"/>
<path d="M401.018 362.161L401.118 361.986C401.118 361.986 396.891 358.717 390.442 354C387.218 351.652 383.453 348.906 379.377 346.036C375.334 343.116 370.926 340.16 366.549 337.151C364.359 335.65 362.216 334.069 360.119 332.486C358.025 330.903 355.941 329.382 353.811 328.113C351.673 326.848 349.514 325.793 347.404 324.903C345.3 323.991 343.263 323.214 341.346 322.573C339.738 322.02 338.2 321.57 336.787 321.199C336.655 322.373 336.308 323.482 335.783 324.485L401.018 362.161Z" fill="#DEF4F0"/>
<path d="M320.909 462.316H327.8V327.725C327.725 327.728 327.651 327.731 327.576 327.731C326.363 327.731 325.198 327.382 324.126 326.747L320.909 462.316Z" fill="#3F839E"/>
<path d="M254.122 362.171L319.199 324.584C318.651 323.564 318.285 322.433 318.146 321.229C316.785 321.589 315.32 322.02 313.784 322.544C311.862 323.185 309.821 323.954 307.722 324.863C305.607 325.745 303.442 326.798 301.306 328.056C299.172 329.325 297.085 330.841 294.988 332.422C292.886 333.995 290.743 335.572 288.544 337.073C284.165 340.072 279.753 343.018 275.699 345.931C271.621 348.79 267.849 351.532 264.616 353.871C258.159 358.573 253.931 361.835 253.931 361.835L254.122 362.171Z" fill="#DEF4F0"/>
<path d="M318.085 320.141C318.085 325.324 322.282 329.528 327.465 329.528C332.644 329.528 336.847 325.324 336.847 320.141C336.847 314.96 332.644 310.759 327.465 310.759C322.282 310.759 318.085 314.96 318.085 320.141Z" fill="#6ABA2F"/>
<path d="M314.17 466.029H340.757V458.777H314.17V466.029Z" fill="#3B393D"/>
<path d="M327.465 326.803C331.144 326.803 334.126 323.82 334.126 320.14C334.126 316.462 331.144 313.478 327.465 313.478C323.79 313.478 320.8 316.462 320.8 320.14C320.8 323.82 323.79 326.803 327.465 326.803Z" fill="#85C927"/>
</g>
<path d="M222.196 484.452H111.833L119.801 416.296H214.227L222.196 484.452Z" fill="#266185"/>
<path d="M166.217 479.669H117.205L118.574 467.954V468.748H166.217V479.669ZM166.217 467.152H118.668L119.945 456.231V457.028H166.217V467.152ZM166.217 455.435H120.039L121.315 444.517V445.311H166.217V455.435ZM166.217 443.717H121.408L122.686 432.792V433.594H166.217V443.717ZM166.217 432H122.778L124.055 421.079H167.013H166.217V432Z" fill="#3F839E"/>
<path d="M166.217 479.669H167.811V421.08H166.217V479.669Z" fill="#266185"/>
<path d="M182.821 479.7L180.536 421.111L182.128 421.05L184.415 479.638L182.821 479.7Z" fill="#266185"/>
<path d="M199.426 479.732L194.858 421.142L196.445 421.018L201.014 479.607L199.426 479.732Z" fill="#266185"/>
<path d="M151.21 479.7L149.614 479.638L151.9 421.048L153.494 421.111L151.21 479.7Z" fill="#266185"/>
<path d="M134.603 479.732L133.015 479.607L137.581 421.018L139.169 421.142L134.603 479.732Z" fill="#266185"/>
<path d="M122.686 433.595H211.34V432.001H122.686V433.595Z" fill="#266185"/>
<path d="M121.315 445.312H212.712V443.718H121.315V445.312Z" fill="#266185"/>
<path d="M119.945 457.029H214.083V455.435H119.945V457.029Z" fill="#266185"/>
<path d="M118.575 468.75H215.454V467.154H118.575V468.75Z" fill="#266185"/>
<path d="M158.382 498.135H175.647V483.787H158.382V498.135Z" fill="#3B393D"/>
<path d="M153.466 501.591H180.561V494.683H153.466V501.591Z" fill="#49494A"/>
<path d="M222.196 484.452H175.647V483.786H167.014V479.669H167.811H182.819L182.82 479.699L183.619 479.669H199.421L199.426 479.731L200.22 479.669H216.824L215.453 467.957V467.153H215.359L214.083 456.235V455.435H213.988L212.713 444.525V443.717H212.619L211.34 432.791V432H211.249L209.971 421.079H196.451L196.445 421.017L195.651 421.079H182.129L182.128 421.049L181.329 421.079H167.014V416.296H214.227L222.196 484.452Z" fill="#307393"/>
<path d="M216.824 479.669H200.22L201.014 479.606L200.167 468.748H215.453V467.957L216.824 479.669ZM199.421 479.669H183.619L184.414 479.637L183.988 468.748H198.57L199.421 479.669ZM182.819 479.669H167.811V468.748H182.393L182.819 479.669ZM215.359 467.152H200.042L199.253 457.028H214.083V456.235L215.359 467.152ZM198.446 467.152H183.926L183.532 457.028H197.656L198.446 467.152ZM182.331 467.152H167.811V457.028H181.936L182.331 467.152ZM213.988 455.435H199.129L198.34 445.311H212.713V444.524L213.988 455.435ZM197.531 455.435H183.469L183.075 445.311H196.742L197.531 455.435ZM181.874 455.435H167.811V445.311H181.479L181.874 455.435ZM212.619 443.717H198.215L197.426 433.594H211.34V432.791L212.619 443.717ZM196.619 443.717H183.013L182.617 433.594H195.829L196.619 443.717ZM181.416 443.717H167.811V433.594H181.022L181.416 443.717ZM211.249 432H197.301L196.451 421.079H209.971L211.249 432ZM195.704 432H182.555L182.129 421.079H195.651L194.858 421.141L195.704 432ZM180.96 432H167.811V421.079H167.014H181.329L180.535 421.109L180.96 432Z" fill="#4E90A7"/>
<path d="M167.811 479.669H167.014V468.748H167.811V479.669ZM167.811 467.152H167.014V457.028H167.811V467.152ZM167.811 455.435H167.014V445.311H167.811V455.435ZM167.811 443.717H167.014V433.594H167.811V443.717ZM167.811 432H167.014V421.079H167.811V432Z" fill="#307393"/>
<path d="M182.821 479.7L182.82 479.67L182.394 468.749H183.989L184.415 479.638L183.62 479.67L182.821 479.7ZM183.927 467.154H182.331L181.937 457.029H183.533L183.927 467.154ZM183.471 455.436H181.875L181.479 445.313H183.076L183.471 455.436ZM183.014 443.718H181.417L181.023 433.595H182.618L183.014 443.718ZM182.556 432.001H180.96L180.536 421.111L181.33 421.08L182.128 421.05L182.13 421.08L182.556 432.001Z" fill="#307393"/>
<path d="M199.426 479.732L199.42 479.67L198.57 468.749H200.167L201.014 479.607L200.22 479.67L199.426 479.732ZM200.042 467.154H198.445L197.656 457.029H199.252L200.042 467.154ZM199.129 455.436H197.531L196.742 445.312H198.34L199.129 455.436ZM198.215 443.718H196.618L195.829 433.595H197.425L198.215 443.718ZM197.301 432.001H195.704L194.858 421.142L195.651 421.08L196.445 421.018L196.45 421.08L197.301 432.001Z" fill="#307393"/>
<path d="M211.34 433.595H167.014V432.001H211.34V432.792V433.595Z" fill="#307393"/>
<path d="M212.713 445.312H167.014V443.718H212.713V444.525V445.312Z" fill="#307393"/>
<path d="M214.083 457.029H167.014V455.436H214.083V456.236V457.029Z" fill="#307393"/>
<path d="M215.453 468.75H167.014V467.154H215.453V467.958V468.75Z" fill="#307393"/>
<path d="M175.647 494.683H167.014V483.788H175.647V484.453V494.683Z" fill="#4C4C50"/>
<path d="M180.562 501.591H167.014V494.682H180.562V501.591Z" fill="#5A5B5D"/>
<path d="M110.484 482.506H-14.4826L-5.4598 406.776H101.461L110.484 482.506Z" fill="#266185"/>
<path d="M47.0973 477.191H-8.3997L-6.84942 464.175V465.057H47.0973V477.191ZM47.0973 463.284H-6.74277L-5.2975 451.148V452.034H47.0973V463.284ZM47.0973 450.264H-5.19085L-3.74558 438.133V439.016H47.0973V450.264ZM47.0973 437.244H-3.64057L-2.19362 425.105V425.996H47.0973V437.244ZM47.0973 424.224H-2.08864L-0.643341 412.09H47.9996H47.0973V424.224Z" fill="#3F839E"/>
<path d="M47.0979 477.191H48.9031V412.091H47.0979V477.191Z" fill="#266185"/>
<path d="M65.8984 477.226L63.3104 412.125L65.1139 412.058L67.7036 477.157L65.8984 477.226Z" fill="#266185"/>
<path d="M84.7019 477.262L79.5294 412.161L81.3257 412.022L86.4999 477.123L84.7019 477.262Z" fill="#266185"/>
<path d="M30.1042 477.226L28.2974 477.157L30.8854 412.056L32.6906 412.125L30.1042 477.226Z" fill="#266185"/>
<path d="M11.2995 477.262L9.5015 477.123L14.6724 412.022L16.4704 412.161L11.2995 477.262Z" fill="#266185"/>
<path d="M-2.19374 425.997H98.191V424.226H-2.19374V425.997Z" fill="#266185"/>
<path d="M-3.74547 439.016H99.7462V437.245H-3.74547V439.016Z" fill="#266185"/>
<path d="M-5.29718 452.036H101.297V450.265H-5.29718V452.036Z" fill="#266185"/>
<path d="M-6.84891 465.059H102.849V463.286H-6.84891V465.059Z" fill="#266185"/>
<path d="M38.2256 497.709H57.7753V481.767H38.2256V497.709Z" fill="#3B393D"/>
<path d="M32.6599 501.549H63.3408V493.874H32.6599V501.549Z" fill="#49494A"/>
<path d="M110.483 482.506H57.7749V481.767H47.9991V477.192H48.9014H65.8955L65.8971 477.226L66.801 477.192H84.6942L84.7007 477.261L85.5997 477.192H104.4L102.848 464.178V463.284H102.741L101.296 451.153V450.265H101.19L99.7459 438.142V437.245H99.6393L98.1907 425.104V424.225H98.0873L96.6404 412.091H81.3311L81.3245 412.021L80.4255 412.091H65.1146L65.1129 412.057L64.2091 412.091H47.9991V406.776H101.46L110.483 482.506Z" fill="#307393"/>
<path d="M104.4 477.191H85.5997L86.4987 477.122L85.539 465.057H102.848V464.178L104.4 477.191ZM84.6942 477.191H66.801L67.7017 477.156L67.2194 465.057H83.7312L84.6942 477.191ZM65.8955 477.191H48.9014V465.057H65.4132L65.8955 477.191ZM102.741 463.284H85.3979L84.5039 452.034H101.296V451.153L102.741 463.284ZM83.5901 463.284H67.1489L66.7026 452.034H82.696L83.5901 463.284ZM65.3426 463.284H48.9014V452.034H64.8964L65.3426 463.284ZM101.19 450.264H84.3644L83.4703 439.016H99.7459V438.141L101.19 450.264ZM82.5549 450.264H66.6321L66.1858 439.016H81.6608L82.5549 450.264ZM64.8259 450.264H48.9014V439.016H64.378L64.8259 450.264ZM99.6393 437.244H83.3292L82.4352 425.996H98.1907V425.104L99.6393 437.244ZM81.5214 437.244H66.1153L65.6675 425.996H80.6273L81.5214 437.244ZM64.3075 437.244H48.9014V425.996H63.8613L64.3075 437.244ZM98.0873 424.224H82.2941L81.3311 412.09H96.6404L98.0873 424.224ZM80.4863 424.224H65.5969L65.1146 412.09H80.4255L79.5282 412.159L80.4863 424.224ZM63.7907 424.224H48.9014V412.09H47.9991H64.2091L63.31 412.124L63.7907 424.224Z" fill="#4E90A7"/>
<path d="M48.9017 477.191H47.9991V465.057H48.9017V477.191ZM48.9017 463.284H47.9991V452.034H48.9017V463.284ZM48.9017 450.264H47.9991V439.016H48.9017V450.264ZM48.9017 437.244H47.9991V425.996H48.9017V437.244ZM48.9017 424.224H47.9991V412.09H48.9017V424.224Z" fill="#307393"/>
<path d="M65.8984 477.226L65.8967 477.193L65.4143 465.058H67.2211L67.7036 477.157L66.8026 477.193L65.8984 477.226ZM67.1505 463.285H65.3437L64.8973 452.035H66.7042L67.1505 463.285ZM66.6336 450.266H64.8267L64.3787 439.017H66.1872L66.6336 450.266ZM66.1167 437.246H64.3082L63.8618 425.997H65.6686L66.1167 437.246ZM65.5981 424.226H63.7912L63.3104 412.125L64.2097 412.091L65.1139 412.058L65.1156 412.091L65.5981 424.226Z" fill="#307393"/>
<path d="M84.7019 477.262L84.6954 477.193L83.7324 465.058H85.5402L86.4999 477.123L85.6009 477.193L84.7019 477.262ZM85.3991 463.285H83.5913L82.6972 452.035H84.5051L85.3991 463.285ZM84.3656 450.265H82.5561L81.662 439.017H83.4715L84.3656 450.265ZM83.3304 437.246H81.5226L80.6285 425.997H82.4364L83.3304 437.246ZM82.2953 424.226H80.4874L79.5294 412.161L80.4267 412.091L81.3257 412.022L81.3323 412.091L82.2953 424.226Z" fill="#307393"/>
<path d="M98.1907 425.997H47.9991V424.226H98.1907V425.105V425.997Z" fill="#307393"/>
<path d="M99.7459 439.016H47.9991V437.245H99.7459V438.142V439.016Z" fill="#307393"/>
<path d="M101.296 452.036H47.9991V450.266H101.296V451.155V452.036Z" fill="#307393"/>
<path d="M102.848 465.059H47.9991V463.286H102.848V464.18V465.059Z" fill="#307393"/>
<path d="M57.7749 493.873H47.9991V481.767H57.7749V482.507V493.873Z" fill="#4C4C50"/>
<path d="M63.3396 501.549H47.9991V493.873H63.3396V501.549Z" fill="#5A5B5D"/>
<path d="M781.453 455.007C781.316 442.47 774.297 431.927 764.544 427.93C765.143 425.603 765.572 423.19 765.572 420.645C765.572 406.508 755.596 395.051 743.288 395.051C740.023 395.051 736.944 395.9 734.147 397.355C728.033 391.365 720.12 387.735 711.459 387.735C696.667 387.735 684.044 398.284 678.915 413.18C666.524 416.524 657.346 428.401 657.346 442.579C657.346 448.204 658.815 453.454 661.333 457.971C655.899 462.652 652.571 468.758 652.571 475.476C652.571 492.455 668.235 501.979 687.544 501.979H759.247C778.555 501.979 791 490.112 791 475.476C791 467.231 789.245 459.866 781.453 455.007Z" fill="#7AB37F"/>
</svg>
