<svg width="72" height="73" viewBox="0 0 72 73" fill="none" xmlns="http://www.w3.org/2000/svg">
<path d="M39 39.5H33V21.5H39M39 51.5H33V45.5H39M36 6.5C32.0603 6.5 28.1593 7.27597 24.5195 8.78361C20.8797 10.2913 17.5726 12.501 14.7868 15.2868C9.1607 20.9129 6 28.5435 6 36.5C6 44.4565 9.1607 52.0871 14.7868 57.7132C17.5726 60.499 20.8797 62.7087 24.5195 64.2164C28.1593 65.724 32.0603 66.5 36 66.5C43.9565 66.5 51.5871 63.3393 57.2132 57.7132C62.8393 52.0871 66 44.4565 66 36.5C66 32.5603 65.224 28.6593 63.7164 25.0195C62.2087 21.3797 59.999 18.0726 57.2132 15.2868C54.4274 12.501 51.1203 10.2913 47.4805 8.78361C43.8407 7.27597 39.9397 6.5 36 6.5Z" fill="#F82C44"/>
</svg>
