<svg width="54" height="52" viewBox="0 0 54 52" fill="none" xmlns="http://www.w3.org/2000/svg">
<path d="M26.9995 35.828V21.788M26.9995 21.788L32.6155 27.404M26.9995 21.788L21.3835 27.404M52.2715 34.3717C52.2715 39.519 48.3699 43.7196 43.4042 44.252H12.664C6.57503 43.8379 1.72754 38.7498 1.72754 32.5376C1.72754 26.3846 6.4568 21.3557 12.4866 20.8232C13.3142 13.4869 19.5214 7.74805 27.0882 7.74805C35.1871 7.74805 41.808 14.3152 41.808 22.4798C41.808 23.1898 41.7489 23.8406 41.6898 24.4914C41.9263 24.4914 42.1627 24.4914 42.3992 24.4914C47.8379 24.4322 52.2715 28.9287 52.2715 34.3717Z" stroke="#28519E" stroke-width="1.56" stroke-miterlimit="10"/>
</svg>
