<svg width="14" height="18" viewBox="0 0 14 18" fill="none" xmlns="http://www.w3.org/2000/svg">
<path d="M8.66634 0.666748H1.99967C1.55765 0.666748 1.13372 0.842343 0.821163 1.1549C0.508602 1.46746 0.333008 1.89139 0.333008 2.33341V15.6667C0.333008 16.1088 0.508602 16.5327 0.821163 16.8453C1.13372 17.1578 1.55765 17.3334 1.99967 17.3334H11.9997C12.4417 17.3334 12.8656 17.1578 13.1782 16.8453C13.4907 16.5327 13.6663 16.1088 13.6663 15.6667V5.66675L8.66634 0.666748ZM8.24967 12.3334V14.8334H5.74967V12.3334H3.66634L6.99967 9.00008L10.333 12.3334H8.24967ZM7.83301 6.50008V1.91675L12.4163 6.50008H7.83301Z" fill="white"/>
</svg>
