<svg width="12" height="16" viewBox="0 0 12 16" fill="none" xmlns="http://www.w3.org/2000/svg">
<path d="M3.05194 0.652563C3.00161 0.674962 2.93556 0.722959 2.90725 0.754957C2.87894 0.790155 2.20578 2.42206 1.41624 4.38355C-0.147118 8.26493 -0.0873516 8.08894 0.0856556 8.27773C0.239789 8.44732 0.224061 8.44732 2.12399 8.44732C3.09284 8.44732 3.88552 8.45692 3.88552 8.46652C3.88552 8.47932 3.55209 9.92244 3.14631 11.6791C2.74053 13.4326 2.4071 14.9206 2.4071 14.9814C2.4071 15.1477 2.52348 15.3013 2.68705 15.3557C2.9733 15.4485 2.65245 15.7813 7.2859 10.6168C9.61049 8.02815 11.545 5.86507 11.5828 5.81067C11.7054 5.63468 11.6897 5.41389 11.5482 5.2539L11.4412 5.13551L9.46894 5.12591C7.92445 5.11951 7.4998 5.10991 7.51238 5.07791C7.52182 5.05871 7.92131 4.16277 8.39944 3.09403C9.21414 1.27333 9.27077 1.13574 9.25504 1.00134C9.23931 0.841352 9.14494 0.719759 8.99081 0.652563C8.84297 0.588567 3.19349 0.588567 3.05194 0.652563Z" fill="#FCB518"/>
</svg>
