<svg width="42" height="42" viewBox="0 0 42 42" fill="none" xmlns="http://www.w3.org/2000/svg">
<circle cx="21" cy="21" r="21" fill="#28519E"/>
<path d="M27.6942 14.3279H13.8595C13.2482 14.3285 12.6621 14.5717 12.2298 15.004C11.7975 15.4362 11.5544 16.0223 11.5537 16.6337V26.5156C11.5544 27.127 11.7975 27.7131 12.2298 28.1453C12.6621 28.5776 13.2482 28.8208 13.8595 28.8214H27.6942C28.3056 28.8208 28.8917 28.5776 29.3239 28.1453C29.7562 27.7131 29.9994 27.127 30 26.5156V16.6337C29.9994 16.0223 29.7562 15.4362 29.3239 15.004C28.8917 14.5717 28.3056 14.3285 27.6942 14.3279ZM27.1104 18.1419L21.1812 22.7535C21.0656 22.8434 20.9233 22.8922 20.7769 22.8922C20.6304 22.8922 20.4881 22.8434 20.3725 22.7535L14.4434 18.1419C14.3737 18.0893 14.3152 18.0234 14.2712 17.948C14.2273 17.8725 14.1987 17.7891 14.1873 17.7026C14.1758 17.6161 14.1817 17.5281 14.2045 17.4438C14.2274 17.3596 14.2667 17.2807 14.3203 17.2118C14.3739 17.1429 14.4406 17.0853 14.5166 17.0424C14.5927 16.9995 14.6765 16.9721 14.7632 16.9619C14.8498 16.9517 14.9377 16.9588 15.0216 16.9828C15.1056 17.0068 15.1839 17.0473 15.252 17.1018L20.7769 21.3988L26.3017 17.1018C26.4398 16.9975 26.6135 16.9517 26.7851 16.9745C26.9568 16.9972 27.1125 17.0865 27.2188 17.2232C27.3251 17.3598 27.3733 17.5328 27.353 17.7048C27.3327 17.8767 27.2455 18.0337 27.1104 18.1419Z" fill="white"/>
</svg>
