<svg width="42" height="42" viewBox="0 0 42 42" fill="none" xmlns="http://www.w3.org/2000/svg">
<circle cx="21" cy="21" r="21" fill="#28519E"/>
<path d="M16.2925 19.9412C17.5525 22.4175 19.5825 24.4475 22.0588 25.7075L23.9837 23.7825C24.2288 23.5375 24.57 23.4675 24.8763 23.5638C25.8562 23.8875 26.9062 24.0625 28 24.0625C28.2321 24.0625 28.4546 24.1547 28.6187 24.3188C28.7828 24.4829 28.875 24.7054 28.875 24.9375V28C28.875 28.2321 28.7828 28.4546 28.6187 28.6187C28.4546 28.7828 28.2321 28.875 28 28.875C24.0549 28.875 20.2714 27.3078 17.4818 24.5182C14.6922 21.7286 13.125 17.9451 13.125 14C13.125 13.7679 13.2172 13.5454 13.3813 13.3813C13.5454 13.2172 13.7679 13.125 14 13.125H17.0625C17.2946 13.125 17.5171 13.2172 17.6812 13.3813C17.8453 13.5454 17.9375 13.7679 17.9375 14C17.9375 15.0938 18.1125 16.1438 18.4362 17.1238C18.5325 17.43 18.4625 17.7713 18.2175 18.0163L16.2925 19.9412Z" fill="white"/>
</svg>
